<?xml version="1.0" encoding="utf-8"?>
<!-- Generator: Adobe Illustrator 25.4.3, SVG Export Plug-In . SVG Version: 6.00 Build 0)  -->
<svg version="1.1" id="Layer_1" xmlns="http://www.w3.org/2000/svg" xmlns:xlink="http://www.w3.org/1999/xlink" x="0px" y="0px"
	 viewBox="0 0 94.9 50" style="enable-background:new 0 0 94.9 50;" xml:space="preserve">
<style type="text/css">
	.st0{fill:#F1F1F1;}
</style>
<g>
	<g>
		<path class="st0" d="M33.6,45.5H-0.6v-3.2c0.8-0.1,2.2-0.2,4-0.4c1.8-0.2,3.1-0.4,3.7-0.7c0.8-0.3,1.5-0.7,2-1.4
			c0.5-0.7,0.7-1.6,0.7-2.7V10.8H-0.8V6.9h2.3c2.4,0,4.5-0.3,6.2-0.8c1.8-0.5,3.2-1.2,4.4-1.9c1.2-0.8,2.2-1.6,2.9-2.4
			s1.4-1.6,1.8-2.2h7.3c-0.1,1.8-0.2,3.9-0.2,6.3c-0.1,2.4-0.1,4.6-0.1,6.5v24.3c0,1,0.2,1.9,0.6,2.6c0.4,0.7,1,1.3,1.8,1.7
			c0.7,0.3,1.9,0.6,3.6,0.9c1.7,0.3,2.9,0.4,3.7,0.5V45.5z"/>
		<path class="st0" d="M85.1,6.8c2.1,2.2,3.7,4.7,4.7,7.6s1.5,5.8,1.5,8.8c0,3.6-0.6,6.9-1.9,9.8c-1.3,2.9-3,5.4-5.2,7.4
			c-2.3,2.1-5,3.7-8,4.8c-3,1.1-6.5,1.7-10.5,1.7c-4.2,0-7.9-0.7-11.1-2c-3.2-1.3-5.9-3-8-5.1c-2.1-2.1-3.7-4.6-4.8-7.4
			c-1.1-2.8-1.6-5.9-1.6-9.2c0-3.2,0.5-6.2,1.6-9c1-2.8,2.6-5.3,4.8-7.5c2.1-2.2,4.8-3.9,8-5.2c3.2-1.3,7-2,11.2-2
			c4.3,0,8.1,0.7,11.4,2C80.4,2.9,83.1,4.7,85.1,6.8z M73.4,37.8c0.8-1.9,1.4-3.9,1.7-6.2c0.3-2.3,0.5-5.1,0.5-8.3
			c0-2.9-0.2-5.6-0.5-7.9c-0.3-2.4-0.9-4.4-1.6-6.3c-0.8-1.9-1.8-3.3-3.1-4.4s-2.8-1.5-4.7-1.5c-1.9,0-3.5,0.5-4.7,1.5
			c-1.3,1-2.3,2.4-3.1,4.3c-0.7,1.7-1.2,3.8-1.6,6.2c-0.3,2.4-0.5,5.1-0.5,8.1c0,3.1,0.1,5.7,0.4,7.8c0.3,2.2,0.8,4.2,1.6,6.2
			c0.7,1.8,1.7,3.3,3,4.4c1.3,1.1,2.9,1.7,4.8,1.7c1.8,0,3.3-0.5,4.6-1.5S72.7,39.5,73.4,37.8z"/>
	</g>
</g>
</svg>
