<?xml version="1.0" encoding="utf-8"?>
<!-- Generator: Adobe Illustrator 26.3.1, SVG Export Plug-In . SVG Version: 6.00 Build 0)  -->
<svg version="1.1" id="Layer_1" xmlns="http://www.w3.org/2000/svg" xmlns:xlink="http://www.w3.org/1999/xlink" x="0px" y="0px"
	 viewBox="0 0 104 52.1" style="enable-background:new 0 0 104 52.1;" xml:space="preserve">
<g>
	<path d="M21.9,3.7c3.8,0,7,0.9,9.6,2.8c2.6,1.8,4.7,4.5,6.1,7.9c1.4,3.5,2.1,7.6,2.1,12.5c0,4.7-0.7,8.8-2.2,12.3
		c-1.5,3.4-3.6,6.1-6.3,7.9c-2.7,1.8-5.9,2.8-9.6,2.8c-3.7,0-6.9-0.9-9.6-2.8c-2.7-1.8-4.7-4.5-6.1-7.9c-1.4-3.5-2.1-7.6-2.1-12.5
		c0-4.7,0.8-8.8,2.3-12.2c1.5-3.4,3.6-6.1,6.3-7.9C15,4.7,18.2,3.7,21.9,3.7z M32,28c0-5.2-0.4-9.3-1.2-12.6s-2-5.6-3.6-7.1
		c-1.6-1.5-3.5-2.3-5.7-2.3c-2.1,0-3.9,0.7-5.5,2.2c-1.5,1.5-2.7,3.7-3.5,6.5c-0.8,2.9-1.2,6.5-1.2,10.8c0,5.2,0.4,9.3,1.2,12.6
		c0.8,3.2,2,5.6,3.6,7.1c1.6,1.5,3.4,2.3,5.7,2.3c2.1,0,4-0.7,5.5-2.2s2.7-3.6,3.5-6.5S32,32.3,32,28z"/>
	<path d="M45.4,45.7c0-2,0.7-3.6,2.2-4.9c1.5-1.3,3.6-1.9,6.4-1.9c1.4,0,2.8,0.2,4.1,0.6s2.6,0.9,3.9,1.4c1.3,0.5,2.6,1,3.9,1.5
		c1.3,0.4,2.6,0.6,3.9,0.6c1.6,0,2.8-0.3,3.6-1c0.9-0.7,1.6-1.7,2.1-3.2c0.2-0.4,0.4-0.6,0.6-0.8c0.2-0.1,0.5-0.2,0.8-0.2
		c0.3,0,0.6,0.2,0.8,0.4c0.2,0.3,0.2,0.7,0.2,1.3c-0.3,2.5-0.8,4.5-1.6,6s-1.7,2.6-3,3.2c-1.2,0.7-2.6,1-4.3,1
		c-1.3,0-2.5-0.2-3.6-0.6c-1.1-0.4-2.1-1-3-1.8c-0.9-0.8-1.9-1.9-2.8-3.2c-1-1.1-1.8-1.8-2.4-2.2c-0.6-0.4-1.3-0.6-2-0.6
		c-0.8,0-1.4,0.3-1.8,0.9c-0.4,0.6-0.7,1.7-0.8,3.2c-0.1,1-0.3,1.8-0.6,2.4s-0.8,1.1-1.3,1.3c-0.5,0.3-1.2,0.4-2,0.4
		c-0.9,0-1.7-0.4-2.4-1.1C45.8,48,45.4,47,45.4,45.7z M49.6,41.8l-1.5-1.3l9-7c2.7-2,4.8-3.9,6.5-5.8c1.6-1.8,2.8-3.6,3.5-5.5
		c0.7-1.9,1.1-3.9,1.1-6.1c0-2.3-0.3-4.3-0.9-5.8c-0.6-1.5-1.5-2.7-2.6-3.4s-2.4-1.1-3.9-1.1c-2.4,0-4.2,0.7-5.3,2
		c-1.1,1.3-1.7,3-1.7,4.9v3c0,1.2-0.3,2.1-1,2.8c-0.7,0.7-1.6,1-2.7,1c-1.1,0-2-0.4-2.6-1.1c-0.7-0.8-1-1.8-1-3.2
		c0-2,0.6-3.9,1.7-5.6c1.1-1.8,2.8-3.2,5.1-4.3c2.2-1.1,5-1.6,8.3-1.6c3.2,0,5.9,0.5,8,1.6c2.1,1.1,3.7,2.5,4.8,4.3s1.6,3.9,1.6,6.2
		c0,2-0.4,3.9-1.3,5.7c-0.9,1.8-2.4,3.7-4.5,5.6c-2.1,1.9-5,4.1-8.7,6.6L49.6,41.8z"/>
</g>
</svg>
