<?xml version="1.0" encoding="utf-8"?>
<!-- Generator: Adobe Illustrator 26.3.1, SVG Export Plug-In . SVG Version: 6.00 Build 0)  -->
<svg version="1.1" id="Layer_1" xmlns="http://www.w3.org/2000/svg" xmlns:xlink="http://www.w3.org/1999/xlink" x="0px" y="0px"
	 viewBox="0 0 104 52.1" style="enable-background:new 0 0 104 52.1;" xml:space="preserve">
<g>
	<path d="M20.8,3.1c3.8,0,7,0.9,9.6,2.8c2.6,1.8,4.7,4.5,6.1,7.9c1.4,3.5,2.1,7.6,2.1,12.5c0,4.7-0.7,8.8-2.2,12.3
		c-1.5,3.4-3.6,6.1-6.3,7.9c-2.7,1.8-5.9,2.8-9.6,2.8c-3.7,0-6.9-0.9-9.6-2.8c-2.7-1.8-4.7-4.5-6.1-7.9c-1.4-3.5-2.1-7.6-2.1-12.5
		c0-4.7,0.8-8.8,2.3-12.2c1.5-3.4,3.6-6.1,6.3-7.9C14,4,17.2,3.1,20.8,3.1z M31,27.4c0-5.2-0.4-9.3-1.2-12.6s-2-5.6-3.6-7.1
		c-1.6-1.5-3.5-2.3-5.7-2.3c-2.1,0-3.9,0.7-5.5,2.2c-1.5,1.5-2.7,3.7-3.5,6.5c-0.8,2.9-1.2,6.5-1.2,10.8c0,5.2,0.4,9.3,1.2,12.6
		c0.8,3.2,2,5.6,3.6,7.1c1.6,1.5,3.4,2.3,5.7,2.3c2.1,0,4-0.7,5.5-2.2s2.7-3.6,3.5-6.5S31,31.7,31,27.4z"/>
	<path d="M56.1,25l-0.7-0.9c0.3,0,0.6-0.1,1-0.1c0.3,0,0.7-0.1,1.1-0.1c0.4,0,0.8,0,1.2,0c3.1,0,5.8,0.5,8,1.4
		c2.2,0.9,3.9,2.3,5.1,4.1c1.2,1.8,1.8,3.9,1.8,6.4c0,2.7-0.6,5.1-1.9,7.1c-1.3,2-3.1,3.6-5.4,4.7c-2.3,1.1-5.1,1.7-8.2,1.7
		c-3,0-5.6-0.4-7.7-1.3s-3.7-2-4.7-3.5c-1.1-1.5-1.6-3.1-1.6-4.9c0-1.4,0.4-2.5,1.1-3.2c0.7-0.8,1.7-1.2,2.8-1.2c1.1,0,2,0.3,2.6,1
		c0.6,0.7,0.9,1.6,0.9,2.7v2.7c0,1.7,0.6,3,1.8,4.1c1.2,1,2.9,1.5,5.1,1.5c1.6,0,3-0.4,4.3-1.1c1.2-0.8,2.2-1.9,2.9-3.4
		c0.7-1.5,1.1-3.4,1.1-5.6c0-3.6-0.8-6.2-2.4-7.9s-4-2.6-7.4-2.6h-2.1c-0.6,0-1-0.1-1.2-0.3c-0.3-0.2-0.4-0.5-0.4-0.9
		c0-0.3,0.1-0.6,0.2-0.9s0.5-0.7,1-1.2L68.8,7.6L69,9.8H51.2c-0.7,0-1.3,0.1-1.6,0.4c-0.4,0.3-0.6,0.7-0.8,1.3L47.9,15
		c-0.1,0.4-0.3,0.7-0.5,0.9c-0.3,0.2-0.6,0.3-1.1,0.3c-0.4,0-0.8-0.1-1-0.4c-0.3-0.3-0.4-0.7-0.3-1.2l1-8.7c0.1-0.6,0.3-1.1,0.7-1.4
		C47.2,4.1,47.8,4,48.6,4h23.4c0.7,0,1.1,0.1,1.4,0.3c0.3,0.2,0.5,0.5,0.5,0.8c0,0.3-0.1,0.6-0.3,1c-0.2,0.4-0.7,0.9-1.4,1.6
		L56.1,25z"/>
</g>
</svg>
