<?xml version="1.0" encoding="utf-8"?>
<!-- Generator: Adobe Illustrator 26.3.1, SVG Export Plug-In . SVG Version: 6.00 Build 0)  -->
<svg version="1.1" id="Layer_1" xmlns="http://www.w3.org/2000/svg" xmlns:xlink="http://www.w3.org/1999/xlink" x="0px" y="0px"
	 viewBox="0 0 104 52.1" style="enable-background:new 0 0 104 52.1;" xml:space="preserve">
<g>
	<path d="M20.8,3.1c3.8,0,7,0.9,9.6,2.8c2.6,1.8,4.7,4.5,6.1,7.9c1.4,3.5,2.1,7.6,2.1,12.5c0,4.7-0.7,8.8-2.2,12.3
		c-1.5,3.4-3.6,6.1-6.3,7.9c-2.7,1.8-5.9,2.8-9.6,2.8c-3.7,0-6.9-0.9-9.6-2.8c-2.7-1.8-4.7-4.5-6.1-7.9c-1.4-3.5-2.1-7.6-2.1-12.5
		c0-4.7,0.8-8.8,2.3-12.2c1.5-3.4,3.6-6.1,6.3-7.9C14,4,17.2,3.1,20.8,3.1z M31,27.4c0-5.2-0.4-9.3-1.2-12.6s-2-5.6-3.6-7.1
		c-1.6-1.5-3.5-2.3-5.7-2.3c-2.1,0-3.9,0.7-5.5,2.2c-1.5,1.5-2.7,3.7-3.5,6.5c-0.8,2.9-1.2,6.5-1.2,10.8c0,5.2,0.4,9.3,1.2,12.6
		c0.8,3.2,2,5.6,3.6,7.1c1.6,1.5,3.4,2.3,5.7,2.3c2.1,0,4-0.7,5.5-2.2s2.7-3.6,3.5-6.5S31,31.7,31,27.4z"/>
	<path d="M58.1,16.5c0.7-0.7,1.2-1.3,1.5-1.9c0.3-0.5,0.5-1.1,0.5-1.8c0-0.5-0.1-1-0.3-1.5s-0.4-0.9-0.6-1.3
		c-0.2-0.4-0.4-0.9-0.6-1.4s-0.3-1-0.3-1.6c0-0.8,0.2-1.6,0.6-2.2c0.4-0.7,0.9-1.2,1.7-1.5c0.7-0.4,1.6-0.5,2.7-0.5
		c1.4,0,2.5,0.4,3.4,1.2c0.9,0.8,1.3,1.9,1.3,3.4c0,0.7-0.1,1.4-0.3,2.1c-0.2,0.8-0.7,1.6-1.3,2.5c-0.7,0.9-1.6,2.1-2.9,3.3
		L45.2,35.6l-0.4-1.2h29.9c0.5,0,0.9,0.1,1.2,0.3s0.4,0.5,0.4,0.9c0,0.9-0.5,1.3-1.6,1.3H44.3c-0.6,0-1.1-0.1-1.4-0.4
		c-0.3-0.3-0.5-0.6-0.5-1c0-0.3,0.1-0.6,0.3-0.9s0.5-0.7,1-1.2L58.1,16.5z M62.1,25c0-0.4,0.1-0.8,0.2-1.1c0.1-0.3,0.3-0.6,0.6-0.9
		l4.1-3.9c0.3-0.3,0.6-0.5,0.8-0.6c0.2-0.1,0.4-0.2,0.6-0.2c0.3,0,0.5,0.1,0.6,0.3c0.2,0.2,0.2,0.4,0.2,0.8l0,24
		c0,0.6,0.2,1.1,0.5,1.4c0.3,0.3,0.8,0.6,1.4,0.7l2.7,0.5c0.5,0.1,0.8,0.3,1.1,0.5c0.2,0.2,0.4,0.5,0.4,0.8c0,0.4-0.1,0.7-0.4,0.9
		c-0.3,0.2-0.7,0.3-1.2,0.3H57.4c-1.1,0-1.6-0.4-1.6-1.2c0-0.6,0.5-1.1,1.4-1.3l2.9-0.6c0.6-0.1,1.1-0.3,1.4-0.6
		c0.3-0.3,0.5-0.8,0.5-1.4V25z"/>
</g>
</svg>
