<?xml version="1.0" encoding="utf-8"?>
<!-- Generator: Adobe Illustrator 26.3.1, SVG Export Plug-In . SVG Version: 6.00 Build 0)  -->
<svg version="1.1" id="Layer_1" xmlns="http://www.w3.org/2000/svg" xmlns:xlink="http://www.w3.org/1999/xlink" x="0px" y="0px"
	 viewBox="0 0 104 52.1" style="enable-background:new 0 0 104 52.1;" xml:space="preserve">
<g>
	<path d="M20.8,3.1c3.8,0,7,0.9,9.6,2.8c2.6,1.8,4.7,4.5,6.1,7.9c1.4,3.5,2.1,7.6,2.1,12.5c0,4.7-0.7,8.8-2.2,12.3
		c-1.5,3.4-3.6,6.1-6.3,7.9c-2.7,1.8-5.9,2.8-9.6,2.8c-3.7,0-6.9-0.9-9.6-2.8c-2.7-1.8-4.7-4.5-6.1-7.9c-1.4-3.5-2.1-7.6-2.1-12.5
		c0-4.7,0.8-8.8,2.3-12.2c1.5-3.4,3.6-6.1,6.3-7.9C14,4,17.2,3.1,20.8,3.1z M31,27.4c0-5.2-0.4-9.3-1.2-12.6s-2-5.6-3.6-7.1
		c-1.6-1.5-3.5-2.3-5.7-2.3c-2.1,0-3.9,0.7-5.5,2.2c-1.5,1.5-2.7,3.7-3.5,6.5c-0.8,2.9-1.2,6.5-1.2,10.8c0,5.2,0.4,9.3,1.2,12.6
		c0.8,3.2,2,5.6,3.6,7.1c1.6,1.5,3.4,2.3,5.7,2.3c2.1,0,4-0.7,5.5-2.2s2.7-3.6,3.5-6.5S31,31.7,31,27.4z"/>
	<path d="M45.1,39.4c0-1.3,0.4-2.3,1.1-3.1c0.7-0.8,1.7-1.2,2.8-1.2c1.1,0,2,0.3,2.6,1c0.6,0.7,0.9,1.6,0.9,2.7v3.1
		c0,1.5,0.6,2.8,1.7,3.8s2.9,1.5,5.2,1.5c2.3,0,4.3-0.9,5.8-2.8c1.5-1.9,2.3-4.8,2.3-8.6c0-3.8-0.8-6.7-2.3-8.6
		c-1.6-1.9-3.6-2.9-6.1-2.9c-1.1,0-2.1,0.2-3.1,0.6c-1,0.4-1.9,1-2.8,1.7c-0.9,0.7-1.7,1.6-2.4,2.7c-0.4,0.4-0.7,0.7-1,0.8
		c-0.3,0.2-0.7,0.3-1,0.3c-0.5,0-0.8-0.1-1.1-0.4c-0.3-0.3-0.4-0.6-0.4-1.1V5.2c0-0.7,0.2-1.2,0.6-1.6c0.4-0.4,1-0.6,1.7-0.6
		c0.4,0,0.9,0.1,1.3,0.2c0.5,0.1,1.2,0.5,2,1c0.9,0.4,1.8,0.8,2.9,1.2c1,0.4,2.2,0.7,3.4,0.9c1.2,0.2,2.6,0.3,4.1,0.3
		c2.2,0,3.9-0.3,5.3-0.9c1.4-0.6,2.5-1.5,3.3-2.6c0.4-0.4,0.8-0.6,1.1-0.7c0.3-0.1,0.6-0.1,0.8,0c0.2,0.1,0.4,0.2,0.5,0.5
		c0.1,0.2,0.1,0.6,0,1.1C73.8,6,73,7.7,72,9c-1.1,1.3-2.5,2.3-4.1,2.9c-1.7,0.6-3.6,1-5.8,1c-1.7,0-3.3-0.2-4.9-0.5
		c-1.6-0.3-3.1-0.8-4.6-1.4c-1.4-0.6-2.8-1.3-4-2.1l1.4-1.6v20.5l-1,0c1-1.3,2.1-2.5,3.3-3.4c1.2-0.9,2.5-1.7,3.9-2.1
		c1.4-0.5,3-0.7,4.7-0.7c2.8,0,5.2,0.6,7.3,1.7c2,1.1,3.6,2.7,4.8,4.7c1.1,2,1.7,4.3,1.7,7c0,2.9-0.7,5.5-2,7.6
		c-1.3,2.1-3.1,3.8-5.5,4.9c-2.4,1.2-5.1,1.7-8.3,1.7c-2.9,0-5.4-0.4-7.4-1.3c-2.1-0.9-3.6-2.1-4.7-3.5
		C45.6,42.9,45.1,41.2,45.1,39.4z"/>
</g>
</svg>
