<?xml version="1.0" encoding="utf-8"?>
<!-- Generator: Adobe Illustrator 25.4.3, SVG Export Plug-In . SVG Version: 6.00 Build 0)  -->
<svg version="1.1" id="Layer_1" xmlns="http://www.w3.org/2000/svg" xmlns:xlink="http://www.w3.org/1999/xlink" x="0px" y="0px"
	 viewBox="0 0 111 62.5" style="enable-background:new 0 0 111 62.5;" xml:space="preserve">
<style type="text/css">
	.st0{fill:#F1F1F1;}
</style>
<g>
	<g>
		<path class="st0" d="M45.2,16.9c2.1,2.2,3.7,4.7,4.7,7.6s1.5,5.8,1.5,8.8c0,3.6-0.6,6.9-1.9,9.8c-1.3,2.9-3,5.4-5.2,7.4
			c-2.3,2.1-5,3.7-8,4.8c-3,1.1-6.5,1.7-10.5,1.7c-4.2,0-7.9-0.7-11.1-2c-3.2-1.3-5.9-3-8-5.1c-2.1-2.1-3.7-4.6-4.8-7.4
			c-1.1-2.8-1.6-5.9-1.6-9.2c0-3.2,0.5-6.2,1.6-9c1-2.8,2.6-5.3,4.8-7.5c2.1-2.2,4.8-3.9,8-5.2c3.2-1.3,7-2,11.2-2
			c4.3,0,8.1,0.7,11.4,2C40.5,13,43.1,14.8,45.2,16.9z M33.5,47.9c0.8-1.9,1.4-3.9,1.7-6.2c0.3-2.3,0.5-5.1,0.5-8.3
			c0-2.9-0.2-5.6-0.5-7.9c-0.3-2.4-0.9-4.4-1.6-6.3c-0.8-1.9-1.8-3.3-3.1-4.4c-1.3-1-2.8-1.5-4.7-1.5c-1.9,0-3.5,0.5-4.7,1.5
			c-1.3,1-2.3,2.4-3.1,4.3c-0.7,1.7-1.2,3.8-1.6,6.2c-0.3,2.4-0.5,5.1-0.5,8.1c0,3.1,0.1,5.7,0.4,7.8c0.3,2.2,0.8,4.2,1.6,6.2
			c0.7,1.8,1.7,3.3,3,4.4c1.3,1.1,2.9,1.7,4.8,1.7c1.8,0,3.3-0.5,4.6-1.5C31.7,50.9,32.7,49.6,33.5,47.9z"/>
		<path class="st0" d="M107.2,36.4c0,5.9-2.2,10.8-6.6,14.7c-4.4,4-10,5.9-16.9,5.9c-7.2,0-12.9-2.2-17.3-6.7
			c-4.3-4.5-6.5-10.5-6.5-18.1c0-10.1,3.4-18.5,10.3-25.1C77,0.5,86.3-3.5,98-4.9l1,4.1L94.6,0c-3.3,0.9-6.1,2.2-8.4,3.8
			s-4.1,3.4-5.6,5.5c-1.4,2-2.5,4.2-3.3,6.7c-0.8,2.5-1.4,4.9-1.8,7.3c2.4-2.2,4.8-3.6,7.2-4.4c2.4-0.7,4.9-1.1,7.6-1.1
			c4.8,0,8.8,1.7,12.1,5.2C105.6,26.4,107.2,30.9,107.2,36.4z M91.9,37.5c0-4.4-0.8-7.8-2.3-10.4c-1.5-2.6-3.6-3.9-6.2-3.9
			c-1.7,0-3.2,0.3-4.5,0.9c-1.3,0.6-2.5,1.8-3.8,3.7c0,0.1,0,0.4,0,0.7c0,0.3,0,0.8-0.1,1.3c0,0.6,0,1.2-0.1,1.7c0,0.5,0,1,0,1.3
			c0,6.6,0.8,11.7,2.4,15.3c1.6,3.5,3.7,5.3,6.2,5.3c2.5,0,4.4-1.4,6-4.2S91.9,42.6,91.9,37.5z"/>
	</g>
</g>
</svg>
