<?xml version="1.0" encoding="utf-8"?>
<!-- Generator: Adobe Illustrator 25.4.3, SVG Export Plug-In . SVG Version: 6.00 Build 0)  -->
<svg version="1.1" id="Layer_1" xmlns="http://www.w3.org/2000/svg" xmlns:xlink="http://www.w3.org/1999/xlink" x="0px" y="0px"
	 viewBox="0 0 108.9 62.5" style="enable-background:new 0 0 108.9 62.5;" xml:space="preserve">
<style type="text/css">
	.st0{fill:#F1F1F1;}
</style>
<g>
	<g>
		<path class="st0" d="M43.1,21c2.1,2.2,3.7,4.7,4.7,7.6c1,2.8,1.5,5.8,1.5,8.8c0,3.6-0.6,6.9-1.9,9.8s-3,5.4-5.2,7.4
			c-2.3,2.1-5,3.7-8,4.8s-6.5,1.7-10.5,1.7c-4.2,0-7.9-0.7-11.1-2c-3.2-1.3-5.9-3-8-5.1c-2.1-2.1-3.7-4.6-4.8-7.4s-1.6-5.9-1.6-9.2
			c0-3.2,0.5-6.2,1.6-9c1-2.8,2.6-5.3,4.8-7.5c2.1-2.2,4.8-3.9,8-5.2c3.2-1.3,7-2,11.2-2c4.3,0,8.1,0.7,11.4,2
			C38.4,17,41.1,18.8,43.1,21z M31.4,51.9c0.8-1.9,1.4-3.9,1.7-6.2c0.3-2.3,0.5-5.1,0.5-8.3c0-2.9-0.2-5.6-0.5-7.9
			c-0.3-2.4-0.9-4.4-1.6-6.3c-0.8-1.9-1.8-3.3-3.1-4.4c-1.3-1-2.8-1.5-4.7-1.5c-1.9,0-3.5,0.5-4.7,1.5s-2.3,2.4-3.1,4.3
			c-0.7,1.7-1.2,3.8-1.6,6.2c-0.3,2.4-0.5,5.1-0.5,8.1c0,3.1,0.1,5.7,0.4,7.8c0.3,2.2,0.8,4.2,1.6,6.2c0.7,1.8,1.7,3.3,3,4.4
			c1.3,1.1,2.9,1.7,4.8,1.7c1.8,0,3.3-0.5,4.6-1.5C29.7,55,30.7,53.6,31.4,51.9z"/>
		<path class="st0" d="M106.8,43.2c0,5.1-2.3,9.4-6.8,12.8c-4.6,3.5-10.7,5.2-18.6,5.2c-7,0-12.7-1.5-17-4.4s-6.5-6.8-6.5-11.4
			c0-3.6,1.2-6.5,3.5-8.8c2.3-2.3,6-4,10.9-5.2c-4-1.8-7-4.1-9-6.8c-2-2.7-3-5.8-3-9.2c0-4.6,2.2-8.5,6.6-11.6
			c4.4-3.1,9.9-4.7,16.4-4.7c6.3,0,11.4,1.4,15.3,4.2c3.9,2.8,5.9,6.2,5.9,10.3c0,3.2-1.1,5.8-3.2,7.9c-2.1,2.1-5.3,3.9-9.5,5.1
			c5.3,1.9,9.2,4.3,11.5,7C105.6,36.4,106.8,39.6,106.8,43.2z M92.9,47.4c0-1.9-0.4-3.5-1.2-4.8c-0.8-1.3-2-2.4-3.6-3.4
			c-1.6-1-3.5-2-5.9-3.1c-2.4-1.1-4.7-2.1-6.8-3.2c-0.9,1.1-1.7,2.7-2.4,4.9c-0.7,2.2-1,4.4-1,6.8c0,4.1,1,7.2,3,9.5
			c2,2.3,4.6,3.4,7.8,3.4s5.7-0.9,7.6-2.8C91.9,52.8,92.9,50.4,92.9,47.4z M90.5,13.4c0-3.2-0.7-5.8-2.1-7.8c-1.4-2-3.4-3-5.9-3
			c-2.4,0-4.4,0.8-6,2.5c-1.6,1.7-2.4,3.8-2.4,6.5c0,1.8,0.3,3.4,1,4.6c0.7,1.2,1.7,2.3,2.9,3.2c1.2,0.9,2.8,1.8,4.9,2.8
			c2.1,1,4,2,5.7,2.8c0.6-1.4,1.1-3.1,1.4-5.1C90.4,18,90.5,15.8,90.5,13.4z"/>
	</g>
</g>
</svg>
