<?xml version="1.0" encoding="utf-8"?>
<!-- Generator: Adobe Illustrator 25.4.3, SVG Export Plug-In . SVG Version: 6.00 Build 0)  -->
<svg version="1.1" id="Layer_1" xmlns="http://www.w3.org/2000/svg" xmlns:xlink="http://www.w3.org/1999/xlink" x="0px" y="0px"
	 viewBox="0 0 108.9 62.5" style="enable-background:new 0 0 108.9 62.5;" xml:space="preserve">
<style type="text/css">
	.st0{fill:#F1F1F1;}
</style>
<g>
	<g>
		<path class="st0" d="M42.8,7c2.1,2.2,3.7,4.7,4.7,7.6s1.5,5.8,1.5,8.8c0,3.6-0.6,6.9-1.9,9.8c-1.3,2.9-3,5.4-5.2,7.4
			c-2.3,2.1-5,3.7-8,4.8c-3,1.1-6.5,1.7-10.5,1.7c-4.2,0-7.9-0.7-11.1-1.9c-3.2-1.3-5.9-3-8-5.1c-2.1-2.1-3.7-4.6-4.8-7.4
			c-1.1-2.8-1.6-5.9-1.6-9.2c0-3.2,0.5-6.2,1.6-9c1-2.8,2.6-5.3,4.8-7.5c2.1-2.2,4.8-3.9,8-5.2c3.2-1.3,7-2,11.2-2
			c4.3,0,8.1,0.7,11.4,2C38.1,3.1,40.7,4.8,42.8,7z M31.1,37.9c0.8-1.9,1.4-3.9,1.7-6.2c0.3-2.3,0.5-5.1,0.5-8.3
			c0-2.9-0.2-5.6-0.5-7.9c-0.3-2.4-0.9-4.4-1.6-6.3c-0.8-1.9-1.8-3.3-3.1-4.4c-1.3-1-2.8-1.5-4.7-1.5c-1.9,0-3.5,0.5-4.7,1.5
			c-1.3,1-2.3,2.4-3.1,4.3c-0.7,1.7-1.2,3.8-1.6,6.2c-0.3,2.4-0.5,5.1-0.5,8.1c0,3.1,0.1,5.7,0.4,7.8c0.3,2.2,0.8,4.2,1.6,6.2
			c0.7,1.8,1.7,3.2,3,4.4c1.3,1.1,2.9,1.7,4.8,1.7c1.8,0,3.3-0.5,4.6-1.5C29.3,41,30.4,39.7,31.1,37.9z"/>
		<path class="st0" d="M104.1,24.6c0,10.1-3.4,18.3-10.2,24.7C87,55.7,77.7,59.7,66,61.3l-1-4.1l4.4-0.7c3.4-1,6.2-2.2,8.5-3.7
			c2.2-1.5,4.1-3.3,5.5-5.3c1.5-2.1,2.6-4.3,3.4-6.6s1.4-4.7,1.7-7.2c-2.4,2.1-4.8,3.5-7.1,4.2c-2.3,0.7-4.8,1-7.7,1
			c-2.4,0-4.6-0.5-6.7-1.4c-2.1-0.9-3.9-2.2-5.4-3.9c-1.5-1.7-2.8-3.7-3.6-6c-0.9-2.3-1.3-4.9-1.3-7.6c0-5.8,2.2-10.7,6.7-14.5
			s10.1-5.7,16.8-5.7c7.3,0,13.1,2.3,17.3,6.8C101.9,10.9,104.1,17,104.1,24.6z M88.9,26.9c0-0.4,0-0.9,0-1.4c0-0.6,0-1.1,0-1.6
			c0-6.6-0.8-11.7-2.4-15.3c-1.6-3.5-3.7-5.3-6.2-5.3c-2.5,0-4.5,1.3-6,4c-1.5,2.7-2.3,6.6-2.3,11.6c0,4.4,0.8,8,2.3,10.6
			c1.6,2.6,3.6,3.9,6.2,3.9c1.6,0,3.1-0.3,4.4-1c1.4-0.6,2.6-1.8,3.8-3.6c0-0.1,0-0.4,0-0.7C88.9,27.9,88.9,27.4,88.9,26.9z"/>
	</g>
</g>
</svg>
