<svg id="Layer_1" data-name="Layer 1" xmlns="http://www.w3.org/2000/svg" viewBox="0 0 98 98"><defs><style>.cls-1{fill:none;stroke:#ce9941;stroke-linejoin:round;stroke-width:2.5px;}.cls-2{fill:#ce9941;}</style></defs><circle class="cls-1" cx="49" cy="49" r="35"/><path class="cls-2" d="M57.71,42.41c0,4.54-3.25,6.75-7.29,7.17v4.15H47.21V47.91c5.15-.77,7.25-2.17,7.25-5.11,0-2.45-1.79-4.07-5.47-4.07A5.7,5.7,0,0,0,42.9,44l-2.75-1.59c.85-4,4.19-6.59,9.07-6.59S57.71,38.34,57.71,42.41ZM51.28,59.66a2.52,2.52,0,1,1-2.52-2.52A2.38,2.38,0,0,1,51.28,59.66Z"/></svg>