<?xml version="1.0" encoding="utf-8"?>
<!-- Generator: Adobe Illustrator 26.0.3, SVG Export Plug-In . SVG Version: 6.00 Build 0)  -->
<svg version="1.1" id="Layer_1" xmlns="http://www.w3.org/2000/svg" xmlns:xlink="http://www.w3.org/1999/xlink" x="0px" y="0px"
	 viewBox="0 0 98 98" style="enable-background:new 0 0 98 98;" xml:space="preserve">
<style type="text/css">
	.st0{fill:none;stroke:#000000;stroke-width:2.5;stroke-linejoin:round;}
	.st1{fill:none;stroke:#000000;stroke-width:2.5;stroke-linecap:round;stroke-linejoin:round;}
</style>
<path class="st0" d="M30,86.5c-5.2,0.2-9.5-3.9-9.7-9.1c-0.2-5.2,3.9-9.5,9.1-9.7c0.2,0,0.4,0,0.6,0"/>
<path class="st0" d="M30,11.5c-5.2,0-9.4,4.2-9.4,9.4l0,0v56.2"/>
<line class="st0" x1="30" y1="67.8" x2="77.4" y2="67.8"/>
<line class="st0" x1="20.7" y1="77.1" x2="77.4" y2="77.1"/>
<line class="st0" x1="21.9" y1="72.4" x2="77.4" y2="72.4"/>
<line class="st0" x1="21.9" y1="81.8" x2="77.4" y2="81.8"/>
<polygon class="st1" points="39.4,30.2 34.7,25.6 30,30.2 30,11.5 39.4,11.5 "/>
<polyline class="st0" points="30,11.5 77.4,11.5 77.4,25.9 77.4,62.7 77.4,86.5 30,86.5 "/>
</svg>
