<?xml version="1.0" encoding="utf-8"?>
<!-- Generator: Adobe Illustrator 26.0.3, SVG Export Plug-In . SVG Version: 6.00 Build 0)  -->
<svg version="1.1" id="Capa_1" xmlns="http://www.w3.org/2000/svg" xmlns:xlink="http://www.w3.org/1999/xlink" x="0px" y="0px"
	 viewBox="0 0 50 47.5" style="enable-background:new 0 0 50 47.5;" xml:space="preserve">
<path d="M41.1,36.4H14.51l-0.46-3.45H43.4c0.57,0,1.05-0.41,1.14-0.97l3.45-21.85c0.05-0.33-0.04-0.67-0.26-0.93
	c-0.22-0.26-0.54-0.4-0.87-0.4H10.83l-0.79-5.9c-0.08-0.57-0.56-1-1.14-1H3.15C2.51,1.9,2,2.41,2,3.05S2.51,4.2,3.15,4.2h4.74
	l4.32,32.41C10.31,37.17,8.9,38.91,8.9,41c0,2.54,2.06,4.6,4.6,4.6s4.6-2.06,4.6-4.6c0-0.84-0.24-1.62-0.64-2.3h19.68
	c-0.4,0.68-0.64,1.46-0.64,2.3c0,2.54,2.06,4.6,4.6,4.6c2.54,0,4.6-2.06,4.6-4.6S43.64,36.4,41.1,36.4z M45.5,11.1l-3.09,19.55
	H13.74L11.13,11.1H45.5z M15.8,41c0,1.27-1.03,2.3-2.3,2.3s-2.3-1.03-2.3-2.3s1.03-2.3,2.3-2.3S15.8,39.73,15.8,41z M41.1,43.3
	c-1.27,0-2.3-1.03-2.3-2.3s1.03-2.3,2.3-2.3c1.27,0,2.3,1.03,2.3,2.3S42.37,43.3,41.1,43.3z"/>
</svg>
