<?xml version="1.0" encoding="utf-8"?>
<!-- Generator: Adobe Illustrator 25.4.3, SVG Export Plug-In . SVG Version: 6.00 Build 0)  -->
<svg version="1.1" id="Layer_1" xmlns="http://www.w3.org/2000/svg" xmlns:xlink="http://www.w3.org/1999/xlink" x="0px" y="0px"
	 viewBox="0 0 78.2 78.2" style="enable-background:new 0 0 78.2 78.2;" xml:space="preserve">
<style type="text/css">
	.st0{fill:#FFFF00;}
	.st1{fill:#FFFFFF;}
</style>
<g>
	
		<rect x="11.5" y="11.5" transform="matrix(0.7071 0.7071 -0.7071 0.7071 39.1155 -16.2025)" class="st0" width="55.3" height="55.3"/>
	<g id="gWS7hg.tif">
		<g>
			<path class="st1" d="M39.4,21.2c-0.2,0.1-0.4,0.1-0.6,0.2c-0.6,0.3-1.1,0.6-1.7,0.9c-0.3,0.1-0.7,0.3-1.1,0.3
				c-0.6,0.1-1.3,0.1-2,0.1c-0.5,0-0.8,0.2-1,0.6c-0.8,1.5-1.9,2.7-3.4,3.4c-0.4,0.2-0.6,0.6-0.6,1c0,0.6,0,1.2-0.1,1.8
				c0,0.4-0.2,0.8-0.3,1.2c-0.2,0.6-0.5,1.1-0.8,1.6c-0.2,0.4-0.2,0.8,0,1.2c0.3,0.6,0.6,1.1,0.9,1.7c0.1,0.3,0.3,0.7,0.3,1
				c0.1,0.5,0.1,1,0.1,1.4c-0.1,0.9,0.3,1.5,1.1,1.9c1.2,0.6,2.1,1.5,2.7,2.7c0.4,0.8,1,1.1,1.9,1.1c1.2-0.1,2.3,0.1,3.3,0.8
				c0.2,0.2,0.5,0.3,0.8,0.4c0.4,0.2,0.7,0.2,1.1,0c0.6-0.3,1.1-0.6,1.7-0.9c0.4-0.2,0.7-0.3,1.1-0.3c0.6-0.1,1.2-0.1,1.8-0.1
				c0.5,0,0.9-0.2,1.1-0.6c0.3-0.5,0.6-1,1-1.5c0.3-0.3,0.6-0.6,0.9-0.9c0.5-0.4,1-0.7,1.5-1c0.4-0.2,0.6-0.5,0.6-1
				c0-0.5,0.1-1,0.1-1.4c0-0.7,0.2-1.4,0.5-2c0.3-0.4,0.5-0.9,0.7-1.3c0.2-0.4,0.2-0.7,0-1.1c-0.3-0.6-0.6-1.1-0.9-1.7
				c-0.2-0.4-0.3-0.8-0.3-1.2c-0.1-0.6-0.1-1.3-0.1-2c0-0.4-0.2-0.7-0.6-0.9c-0.5-0.3-1-0.6-1.5-1c-0.4-0.3-0.7-0.6-0.9-0.9
				c-0.4-0.5-0.7-1-1-1.6c-0.2-0.3-0.5-0.5-0.9-0.5c-0.4,0-0.8-0.1-1.2,0c-0.9,0-1.7-0.2-2.5-0.7c-0.3-0.2-0.7-0.4-1.1-0.6
				C39.7,21.4,39.5,21.3,39.4,21.2z"/>
			<path d="M34.3,57c-0.2-0.2-0.5-0.4-0.7-0.7c-0.7-0.9-1.3-1.9-2-2.9c-0.3-0.4-0.6-0.6-1.1-0.6C29.1,53,27.7,53,26.4,53
				c-0.9,0-1.4-0.6-1-1.4c1.6-3.5,3.1-7,4.7-10.5c0,0,0-0.1,0.1-0.1c0.4,0.2,0.8,0.4,1,0.8c0.3,0.5,0.6,1,0.9,1.5
				c0.5,0.7,1.1,1.1,2,1.1c0.2,0,0.5,0.1,0.7,0c1.1-0.1,2,0.3,3,0.8c0.4,0.3,0.9,0.4,1.4,0.5c0.3,0.1,0.7,0,1.1-0.1
				c0,0.1-0.1,0.2-0.1,0.3c-1.5,3.4-3.1,6.8-4.6,10.2c-0.2,0.4-0.4,0.6-0.7,0.8C34.7,57,34.5,57,34.3,57z"/>
			<path d="M43.5,57c-0.4-0.2-0.6-0.5-0.8-0.9c-0.9-2.1-1.8-4.1-2.8-6.1c-0.1-0.2-0.1-0.4,0-0.6c0.6-1.4,1.3-2.8,1.9-4.2
				c0.2-0.5,0.5-0.6,1-0.6c0.6,0,1.2-0.1,1.8-0.1c0.9,0,1.5-0.4,2-1.1c0.3-0.5,0.7-1.1,1-1.6c0.1-0.2,0.3-0.4,0.6-0.6
				c0.1,0.2,0.1,0.3,0.2,0.4c1.5,3.3,3,6.6,4.5,9.9c0.1,0.3,0.2,0.6,0.1,0.9c-0.1,0.5-0.5,0.7-1.1,0.7c-1.5-0.1-2.9-0.1-4.4-0.2
				c-0.3,0-0.5,0.2-0.7,0.4c-0.4,0.5-0.7,1-1.1,1.6c-0.4,0.5-0.7,1-1.1,1.5c-0.2,0.3-0.5,0.5-0.8,0.7C43.8,57,43.6,57,43.5,57z"/>
			<path d="M39.4,21.2c0.2,0.1,0.4,0.1,0.6,0.2c0.4,0.2,0.7,0.3,1.1,0.6c0.8,0.5,1.6,0.7,2.5,0.7c0.4,0,0.8,0,1.2,0
				c0.4,0,0.7,0.2,0.9,0.5c0.3,0.5,0.6,1.1,1,1.6c0.3,0.4,0.6,0.7,0.9,0.9c0.5,0.4,1,0.7,1.5,1c0.4,0.2,0.5,0.5,0.6,0.9
				c0,0.7,0,1.3,0.1,2c0,0.4,0.2,0.8,0.3,1.2c0.2,0.6,0.6,1.1,0.9,1.7c0.2,0.4,0.2,0.7,0,1.1c-0.2,0.4-0.4,0.9-0.7,1.3
				c-0.4,0.6-0.5,1.3-0.5,2c0,0.5,0,1-0.1,1.4c0,0.5-0.2,0.8-0.6,1c-0.5,0.3-1,0.6-1.5,1c-0.3,0.3-0.6,0.6-0.9,0.9
				c-0.4,0.5-0.7,1-1,1.5c-0.3,0.4-0.6,0.6-1.1,0.6c-0.6,0-1.2,0-1.8,0.1c-0.4,0-0.8,0.1-1.1,0.3c-0.6,0.3-1.1,0.6-1.7,0.9
				c-0.4,0.2-0.8,0.2-1.1,0c-0.3-0.1-0.5-0.2-0.8-0.4c-1-0.7-2.1-0.9-3.3-0.8c-0.9,0.1-1.5-0.2-1.9-1.1c-0.6-1.2-1.5-2.1-2.7-2.7
				c-0.8-0.4-1.2-1-1.1-1.9c0-0.5,0-1-0.1-1.4c0-0.3-0.2-0.7-0.3-1c-0.3-0.6-0.6-1.1-0.9-1.7c-0.2-0.4-0.2-0.8,0-1.2
				c0.3-0.5,0.6-1.1,0.8-1.6c0.2-0.4,0.3-0.8,0.3-1.2C29,29,29,28.3,29,27.7c0-0.5,0.2-0.8,0.6-1c1.5-0.8,2.7-1.9,3.4-3.4
				c0.2-0.4,0.6-0.6,1-0.6c0.7,0,1.3,0,2-0.1c0.4,0,0.7-0.1,1.1-0.3c0.6-0.3,1.1-0.6,1.7-0.9C39,21.4,39.2,21.3,39.4,21.2z"/>
		</g>
	</g>
</g>
</svg>
