<?xml version="1.0" encoding="utf-8"?>
<!-- Generator: Adobe Illustrator 25.4.3, SVG Export Plug-In . SVG Version: 6.00 Build 0)  -->
<svg version="1.1" id="Layer_1" xmlns="http://www.w3.org/2000/svg" xmlns:xlink="http://www.w3.org/1999/xlink" x="0px" y="0px"
	 viewBox="0 0 78.2 78.2" style="enable-background:new 0 0 78.2 78.2;" xml:space="preserve">
<style type="text/css">
	.st0{fill:#FFFF00;}
</style>
<g>
	
		<rect x="11.5" y="11.5" transform="matrix(0.7071 -0.7071 0.7071 0.7071 -16.2022 39.1163)" class="st0" width="55.3" height="55.3"/>
	<g>
		<path d="M43,14.7c0.6,0.1,1.2,0.2,1.7,0.3c4.6,1,8.2,5.1,8.6,9.8c0.5,5.9-3.3,11.1-9.2,12.2C38.1,38.2,32,33.9,31,27.7
			c-0.9-6.1,3-11.7,9.1-12.9c0.4-0.1,0.7-0.1,1.1-0.2C41.8,14.7,42.4,14.7,43,14.7z M43.5,30.9c0.1,0,0.2-0.1,0.3-0.1
			c1.4-0.5,2.3-1.7,2.2-3.2c-0.1-1.4-1.2-2.6-2.6-2.8c-0.5-0.1-1-0.1-1.5-0.1c-0.6,0-0.9-0.2-0.9-0.6c0-0.4,0.3-0.6,0.9-0.6
			c0.9,0,1.9,0,2.8,0c0.8,0,1.3-0.5,1.3-1.3c0-0.7-0.6-1.2-1.3-1.3c-0.4,0-0.8,0-1.2,0c-0.2-0.8-0.6-1.3-1.3-1.3
			c-0.7,0-1.1,0.5-1.3,1.3c-0.1,0-0.2,0.1-0.3,0.1c-1.4,0.5-2.3,1.7-2.2,3.2c0.1,1.4,1.1,2.6,2.6,2.9c0.5,0.1,1.1,0.1,1.6,0.1
			c0.5,0,0.8,0.2,0.8,0.6c0,0.4-0.3,0.6-0.8,0.6c-1,0-1.9,0-2.9,0c-0.8,0-1.3,0.5-1.3,1.3c0,0.7,0.6,1.2,1.3,1.3c0.4,0,0.8,0,1.2,0
			c0.2,0.8,0.6,1.2,1.3,1.3C42.8,32.2,43.3,31.8,43.5,30.9z"/>
		<path d="M40.4,52.2c-1.6,0-3.2,0-4.7,0c-0.8,0-1.5-0.3-2.1-0.6c-0.1,0-0.1-0.2-0.1-0.4c0-3,0-6,0-9c0-0.3,0-0.6-0.1-0.9
			c0-0.2,0-0.4,0.2-0.6c0.9-0.9,2-1.2,3.3-1.1c2.4,0.1,4.8,0,7.2,0c0.9,0,1.7,0.7,1.9,1.5c0.2,0.9-0.3,1.8-1.2,2.1
			c-0.2,0.1-0.5,0.1-0.8,0.1c-1.4,0-2.8,0-4.2,0c-0.8,0-1.4,0.5-1.4,1.3c0,0.7,0.6,1.2,1.4,1.2c1.6,0,3.2,0,4.8,0
			c1.9,0,3.3-1.2,3.7-3c0-0.1,0.1-0.3,0.2-0.4c1.4-1.6,2.7-3.1,4.1-4.7c0.6-0.7,1.4-0.9,2.3-0.7c0.8,0.2,1.3,1,1.1,1.8
			c-0.1,0.4-0.3,0.8-0.5,1.1c-2.3,3.6-4.6,7.3-6.9,10.9c-0.2,0.3-0.5,0.6-0.9,0.7c-0.8,0.4-1.7,0.6-2.7,0.6
			C43.6,52.3,42,52.2,40.4,52.2z"/>
		<path d="M30.9,46.6c0,1.5,0,3.1,0,4.6c0,2-1.6,3.6-3.6,3.6c-0.8,0-1.5,0.1-2.3-0.1c-1.7-0.3-2.9-1.8-2.9-3.5c0-3.1,0-6.1,0-9.2
			c0-2,1.6-3.6,3.5-3.6c0.8,0,1.6,0,2.3,0.1c1.7,0.3,2.9,1.7,2.9,3.5C30.9,43.5,30.9,45.1,30.9,46.6z"/>
	</g>
</g>
</svg>
