<?xml version="1.0" encoding="utf-8"?>
<!-- Generator: Adobe Illustrator 25.4.3, SVG Export Plug-In . SVG Version: 6.00 Build 0)  -->
<svg version="1.1" id="Layer_1" xmlns="http://www.w3.org/2000/svg" xmlns:xlink="http://www.w3.org/1999/xlink" x="0px" y="0px"
	 viewBox="0 0 78.2 78.2" style="enable-background:new 0 0 78.2 78.2;" xml:space="preserve">
<style type="text/css">
	.st0{fill:#FFFF00;}
</style>
<g>
	
		<rect x="11.5" y="11.5" transform="matrix(0.7071 -0.7071 0.7071 0.7071 -16.2022 39.1163)" class="st0" width="55.3" height="55.3"/>
	<g id="DY73f7.tif">
		<g>
			<path d="M55.6,33.5c-0.2,0.6-0.7,0.8-1.3,0.8c-0.9,0-1.7,0-2.6,0c0,5.8,0,11.6,0,17.4c-2.6,0-5.1,0-7.7,0c0-5.8,0-11.6,0-17.4
				c-0.1,0-0.3,0-0.4,0c-0.8,0-1.6,0-2.4,0c-0.4,0-0.8-0.1-1-0.5c-0.2-0.4-0.1-0.8,0.2-1.1c2.2-3.2,4.4-6.3,6.6-9.5
				c0.2-0.2,0.5-0.4,0.7-0.5c0.1,0,0.3,0,0.4,0c0.4,0.1,0.6,0.4,0.8,0.7c2.1,3.1,4.2,6.1,6.4,9.1c0.1,0.2,0.3,0.4,0.4,0.7
				C55.6,33.3,55.6,33.4,55.6,33.5z"/>
			<path d="M55.6,54.8c-0.2,0.6-0.6,0.8-1.2,0.8c-10.2,0-20.4,0-30.5,0c-0.2,0-0.4,0-0.5-0.1c-0.4-0.1-0.7-0.6-0.7-1
				c0-0.5,0.4-0.8,0.9-0.9c0.1,0,0.3,0,0.4,0c10.2,0,20.3,0,30.5,0c0.6,0,1,0.2,1.3,0.7C55.6,54.5,55.6,54.7,55.6,54.8z"/>
			<path d="M42.1,51.7c-2.6,0-5.2,0-7.9,0c0-0.1,0-0.2,0-0.3c0-4,0-8.1,0-12.1c0-0.8,0.4-1.1,1.1-1.1c1.9,0,3.7,0,5.6,0
				c0.8,0,1.1,0.4,1.1,1.1c0,4,0,8.1,0,12.1C42.1,51.5,42.1,51.6,42.1,51.7z"/>
			<path d="M32.3,51.7c-2.6,0-5.1,0-7.7,0c0-0.1,0-0.2,0-0.3c0-2.1,0-4.2,0-6.3c0-0.8,0.4-1.1,1.1-1.1c1.8,0,3.6,0,5.4,0
				c0.8,0,1.1,0.4,1.1,1.1c0,2.1,0,4.2,0,6.3C32.3,51.5,32.3,51.6,32.3,51.7z"/>
		</g>
	</g>
</g>
</svg>
