<?xml version="1.0" encoding="utf-8"?>
<!-- Generator: Adobe Illustrator 25.4.3, SVG Export Plug-In . SVG Version: 6.00 Build 0)  -->
<svg version="1.1" id="Layer_1" xmlns="http://www.w3.org/2000/svg" xmlns:xlink="http://www.w3.org/1999/xlink" x="0px" y="0px"
	 viewBox="0 0 78.2 78.2" style="enable-background:new 0 0 78.2 78.2;" xml:space="preserve">
<style type="text/css">
	.st0{fill:#FFFF00;}
	.st1{fill:#FFFFFF;}
</style>
<g>
	
		<rect x="11.5" y="11.5" transform="matrix(0.7071 0.7071 -0.7071 0.7071 39.1155 -16.2025)" class="st0" width="55.3" height="55.3"/>
	<g id="lrKeBA.tif">
		<g>
			<path class="st1" d="M28,33.4c-0.5,1-0.9,1.8-1.3,2.6c-0.3,0.6-0.7,0.9-1.3,0.9c-1.1,0.1-2.1,0.3-3.2,0.5c-0.3,0-0.6,0.3-0.7,0.5
				c-0.1,0.2,0.1,0.6,0.3,0.8c0.8,0.8,1.6,1.6,2.4,2.3c0.3,0.3,0.5,0.7,0.4,1.1c-0.2,1.1-0.4,2.2-0.6,3.3c0,0.3,0,0.6,0.2,0.8
				c0.2,0.3,0.6,0.2,0.9,0c1-0.5,1.9-1,2.9-1.5c0.5-0.3,0.9-0.3,1.5,0c0.9,0.5,1.8,1,2.7,1.4c0.1,0.1,0.3,0.1,0.4,0.2
				c0.4,0.1,0.7-0.1,0.8-0.4c0.1-0.4-0.2-0.4-0.5-0.5c-1.4-0.4-2.3-1.8-2-3.3c0.2-1.4,0.5-2.8,0.7-4.2c0.1-0.3,0-0.5-0.3-0.8
				C30.4,35.9,29.2,34.7,28,33.4z M51.1,33.6c-0.6,0.6-1.2,1.1-1.8,1.7c-0.6,0.6-1.2,1.2-1.8,1.7c-0.3,0.3-0.4,0.5-0.3,0.9
				c0.2,1.3,0.5,2.6,0.7,3.9c0.3,1.8-0.4,3-2.2,3.6c-0.3,0.1-0.3,0.3-0.2,0.5c0.1,0.4,0.6,0.5,1,0.3c1-0.5,2.1-1,3.1-1.6
				c0.4-0.2,0.8-0.2,1.3,0c1,0.5,2,1,3,1.6c0.3,0.2,0.6,0.3,0.9,0c0.2-0.2,0.2-0.5,0.2-0.8c-0.2-1.1-0.4-2.2-0.6-3.3
				c-0.1-0.4,0-0.8,0.4-1.1c0.8-0.8,1.6-1.5,2.4-2.3c0.2-0.2,0.5-0.5,0.3-0.8c-0.1-0.2-0.5-0.4-0.7-0.5c-1-0.2-2.1-0.3-3.1-0.4
				c-0.6-0.1-1-0.3-1.2-0.9C51.9,35.2,51.5,34.4,51.1,33.6z M20.9,40c-0.3,0.5-0.5,0.9-0.7,1.4c-0.2,0.5-0.6,0.8-1.1,0.8
				c-0.9,0.1-1.9,0.2-2.8,0.4c-0.2,0-0.6,0.2-0.6,0.4c0,0.2,0.1,0.5,0.3,0.7c0.6,0.7,1.3,1.3,2,2c0.4,0.4,0.5,0.8,0.4,1.3
				c-0.2,0.9-0.3,1.9-0.5,2.8c0,0.2,0,0.6,0.2,0.7c0.2,0.1,0.5,0,0.7-0.1c0.8-0.4,1.7-0.8,2.5-1.3c0.5-0.3,0.9-0.3,1.4,0
				c0.8,0.5,1.7,0.9,2.6,1.4c0.5,0.2,0.9,0.1,0.8-0.4c-0.1-0.8-0.2-1.5-0.3-2.2c-0.1,0-0.2,0-0.2,0c-1.9,0.6-3.4-0.8-3.1-2.8
				c0.2-0.9,0.3-1.8,0.5-2.8c0-0.2,0-0.4-0.1-0.5C22.2,41.2,21.5,40.7,20.9,40z"/>
			<path d="M39.8,24.2c0.5,0.2,0.7,0.5,0.9,1c0.7,1.4,1.4,2.7,2,4.1c0.2,0.5,0.6,0.7,1.2,0.8c1.6,0.2,3.1,0.5,4.7,0.7
				c0.5,0.1,0.9,0.3,1.1,0.8c0.2,0.5,0,0.9-0.4,1.3c-1.2,1.1-2.3,2.2-3.4,3.3c-0.4,0.4-0.5,0.8-0.4,1.3c0.3,1.6,0.6,3.2,0.8,4.8
				c0.1,0.5-0.1,0.9-0.5,1.2c-0.4,0.3-0.9,0.3-1.3,0.1c-1.4-0.7-2.9-1.5-4.3-2.3c-0.5-0.3-0.9-0.3-1.4,0c-1.3,0.7-2.7,1.4-4.1,2.2
				c-0.5,0.3-1,0.4-1.5,0c-0.5-0.4-0.5-0.9-0.4-1.4c0.3-1.5,0.5-3.1,0.8-4.6c0.1-0.5,0-0.9-0.4-1.2c-1.1-1.1-2.3-2.2-3.4-3.3
				c-0.4-0.4-0.6-0.8-0.5-1.4c0.2-0.6,0.6-0.8,1.2-0.9c1.5-0.2,3.1-0.5,4.6-0.7c0.6-0.1,0.9-0.3,1.2-0.8c0.6-1.4,1.3-2.7,2-4.1
				c0.2-0.4,0.5-0.8,0.9-1C39.4,24.2,39.6,24.2,39.8,24.2z"/>
			<path d="M63.5,43.4c-0.8,0.8-1.6,1.6-2.4,2.3c-0.4,0.4-0.5,0.7-0.4,1.3c0.2,0.9,0.3,1.7,0.4,2.6c0,0.1,0,0.3,0.1,0.4
				c0,0.6-0.3,0.8-0.8,0.5c-0.9-0.5-1.8-0.9-2.7-1.4c-0.4-0.2-0.8-0.2-1.2,0c-0.9,0.5-1.7,0.9-2.6,1.4c-0.2,0.1-0.5,0.2-0.7,0
				c-0.1-0.1-0.2-0.4-0.2-0.7c0.1-0.7,0.2-1.3,0.3-1.9c0.5,0,0.9,0.1,1.4,0.1c1.4-0.2,2.2-1.4,2-2.8c-0.2-1-0.3-1.9-0.5-2.9
				c0-0.2,0-0.4,0.1-0.5c0.6-0.6,1.2-1.2,1.9-1.9c0.3,0.5,0.5,1,0.7,1.5c0.2,0.4,0.5,0.6,0.9,0.7c1,0.1,2,0.3,3,0.4
				c0.2,0,0.4,0.2,0.6,0.3C63.5,43.1,63.5,43.2,63.5,43.4z"/>
			<path d="M28,33.4c1.2,1.3,2.3,2.4,3.5,3.6c0.2,0.2,0.3,0.5,0.3,0.8c-0.3,1.4-0.5,2.8-0.7,4.2c-0.3,1.5,0.6,2.9,2,3.3
				c0.3,0.1,0.6,0.1,0.5,0.5c-0.1,0.3-0.5,0.5-0.8,0.4c-0.1,0-0.3-0.1-0.4-0.2c-0.9-0.5-1.8-0.9-2.7-1.4c-0.5-0.3-1-0.3-1.5,0
				c-0.9,0.5-1.9,1-2.9,1.5c-0.3,0.2-0.6,0.3-0.9,0c-0.2-0.2-0.2-0.5-0.2-0.8c0.2-1.1,0.3-2.2,0.6-3.3c0.1-0.5,0-0.8-0.4-1.1
				c-0.8-0.8-1.6-1.5-2.4-2.3c-0.2-0.2-0.4-0.5-0.3-0.8c0.1-0.2,0.4-0.4,0.7-0.5c1-0.2,2.1-0.3,3.2-0.5c0.6-0.1,1-0.3,1.3-0.9
				C27.1,35.2,27.6,34.4,28,33.4z"/>
			<path d="M51.1,33.6c0.4,0.8,0.9,1.6,1.2,2.5c0.3,0.6,0.6,0.8,1.2,0.9c1,0.1,2.1,0.3,3.1,0.4c0.3,0,0.6,0.2,0.7,0.5
				c0.2,0.3-0.1,0.6-0.3,0.8c-0.8,0.8-1.6,1.5-2.4,2.3c-0.3,0.3-0.4,0.6-0.4,1.1c0.2,1.1,0.4,2.2,0.6,3.3c0,0.3,0,0.6-0.2,0.8
				c-0.2,0.3-0.6,0.2-0.9,0c-1-0.5-2-1-3-1.6c-0.4-0.2-0.8-0.3-1.3,0c-1,0.6-2,1.1-3.1,1.6c-0.4,0.2-0.9,0.1-1-0.3
				c-0.1-0.2-0.1-0.4,0.2-0.5c1.8-0.6,2.5-1.7,2.2-3.6c-0.2-1.3-0.4-2.6-0.7-3.9c-0.1-0.4,0-0.7,0.3-0.9c0.6-0.5,1.2-1.1,1.8-1.7
				C49.9,34.7,50.5,34.2,51.1,33.6z"/>
			<path d="M20.9,40c0.7,0.6,1.3,1.2,1.9,1.8c0.1,0.1,0.2,0.4,0.1,0.5c-0.1,0.9-0.3,1.8-0.5,2.8c-0.3,1.9,1.2,3.3,3.1,2.8
				c0,0,0.1,0,0.2,0c0.1,0.8,0.3,1.5,0.3,2.2c0,0.4-0.4,0.6-0.8,0.4c-0.9-0.4-1.7-0.9-2.6-1.4c-0.5-0.3-0.9-0.3-1.4,0
				c-0.8,0.5-1.6,0.9-2.5,1.3c-0.2,0.1-0.6,0.2-0.7,0.1c-0.2-0.1-0.2-0.5-0.2-0.7c0.1-0.9,0.3-1.9,0.5-2.8c0.1-0.5,0-0.9-0.4-1.3
				c-0.7-0.6-1.4-1.3-2-2c-0.2-0.2-0.3-0.5-0.3-0.7c0-0.2,0.4-0.3,0.6-0.4c0.9-0.2,1.8-0.3,2.8-0.4c0.6-0.1,0.9-0.3,1.1-0.8
				C20.4,41,20.6,40.5,20.9,40z"/>
		</g>
	</g>
</g>
</svg>
