<?xml version="1.0" encoding="utf-8"?>
<!-- Generator: Adobe Illustrator 25.4.3, SVG Export Plug-In . SVG Version: 6.00 Build 0)  -->
<svg version="1.1" id="Layer_1" xmlns="http://www.w3.org/2000/svg" xmlns:xlink="http://www.w3.org/1999/xlink" x="0px" y="0px"
	 viewBox="0 0 78.2 78.2" style="enable-background:new 0 0 78.2 78.2;" xml:space="preserve">
<style type="text/css">
	.st0{fill:#FFFF00;}
</style>
<g>
	
		<rect x="11.5" y="11.5" transform="matrix(0.7071 -0.7071 0.7071 0.7071 -16.2022 39.1163)" class="st0" width="55.3" height="55.3"/>
	<g>
		<path d="M46.3,55c-4.7,0-9.3,0-14,0c-0.5-0.1-1.1-0.3-1.6-0.5c-3.2-1.2-5.3-4.4-5.4-8.1c0-2,0.3-4,0.9-5.9
			c1.3-4.1,3.6-7.6,6.3-10.9c0.1-0.1,0.3-0.2,0.4-0.2c4.2,0,8.5,0,12.7,0c0.2,0,0.4,0.1,0.5,0.3c1.4,1.8,2.7,3.6,3.9,5.6
			c1.3,2.3,2.4,4.7,2.9,7.3c0.2,0.8,0.3,1.6,0.4,2.3c0,0.6,0,1.3,0,1.9c-0.1,0.3-0.1,0.6-0.2,1c-0.6,3.2-2.4,5.5-5.5,6.7
			C47.2,54.8,46.7,54.9,46.3,55z M40.5,47.4c0.3,0,0.5-0.1,0.8-0.1c1.8-0.3,3.1-2,3.1-3.8c0-1.8-1.4-3.5-3.1-3.7
			c-1-0.1-2.1-0.1-3.2-0.1c-0.8,0-1.3-0.6-1.3-1.3c0-0.7,0.6-1.3,1.3-1.3c0.7,0,1.5,0,2.2,0c0.6,0,1.1,0.2,1.4,0.8
			c0.4,0.6,1.1,0.8,1.7,0.4c0.6-0.4,0.8-1.1,0.4-1.7c-0.6-1-1.4-1.7-2.5-1.9c-0.3-0.1-0.6-0.1-0.9-0.1c0-0.4,0-0.8,0-1.2
			c0-0.8-0.6-1.3-1.3-1.3c-0.7,0-1.3,0.6-1.3,1.3c0,0.4,0,0.8,0,1.2c-0.1,0-0.2,0-0.2,0c-1.9,0.2-3.5,1.7-3.6,3.6
			c-0.1,2,1.2,3.7,3.2,4c1,0.1,2,0.1,3.1,0.1c0.8,0,1.3,0.6,1.3,1.3c0,0.7-0.6,1.3-1.3,1.3c-0.7,0-1.5,0-2.2,0
			c-0.6,0-1.1-0.2-1.4-0.8c-0.4-0.6-1.1-0.8-1.7-0.4c-0.6,0.4-0.8,1.1-0.4,1.7c0.5,1,1.4,1.6,2.5,1.9c0.3,0.1,0.6,0.1,0.9,0.2
			c0,0.4,0,0.8,0,1.2c0,0.7,0.6,1.3,1.3,1.3c0.7,0,1.3-0.6,1.3-1.3C40.5,48.2,40.5,47.8,40.5,47.4z"/>
		<path d="M39.2,27c-1.8,0-3.7,0-5.5,0c-0.2,0-0.4-0.1-0.5-0.3c-0.9-1.8-1.8-3.6-2.7-5.4c-0.3-0.6-0.2-1.1,0.2-1.5
			c0.4-0.4,0.9-0.5,1.4-0.3c0.1,0.1,0.2,0.1,0.3,0.2c1.5,1.3,4.5,1.3,6,0c0.5-0.4,1.1-0.4,1.6,0c1.5,1.3,4.4,1.3,6,0
			c0.5-0.4,1.2-0.4,1.6,0c0.5,0.4,0.6,1,0.3,1.6c-0.9,1.8-1.8,3.7-2.7,5.5C45.2,27,45,27,44.8,27C43,27,41.1,27,39.2,27z"/>
	</g>
</g>
</svg>
