<?xml version="1.0" encoding="utf-8"?>
<!-- Generator: Adobe Illustrator 25.4.3, SVG Export Plug-In . SVG Version: 6.00 Build 0)  -->
<svg version="1.1" id="Layer_1" xmlns="http://www.w3.org/2000/svg" xmlns:xlink="http://www.w3.org/1999/xlink" x="0px" y="0px"
	 viewBox="0 0 78.2 78.2" style="enable-background:new 0 0 78.2 78.2;" xml:space="preserve">
<style type="text/css">
	.st0{fill:#FFFF00;}
</style>
<g>
	
		<rect x="11.5" y="11.5" transform="matrix(0.7071 -0.7071 0.7071 0.7071 -16.2022 39.1163)" class="st0" width="55.3" height="55.3"/>
	<g>
		<path d="M55.4,48.3c-0.1,0.5-0.3,1.1-0.7,1.5c-0.4,0.5-1,0.9-1.6,0.9c-1.5,0.1-3,0-4.4,0c0-0.9,0-1.9,0.1-2.8c0-2.3,0-4.6,0-6.9
			c0-0.9-0.1-1.7-0.3-2.5c0,0,0-0.1,0-0.2c1.3,0.1,2.7-0.2,3.9,0.3c1.7,0.6,2.7,1.9,3.1,3.7c0,0,0,0.1,0.1,0.1
			C55.4,44.3,55.4,46.3,55.4,48.3z"/>
		<path d="M39.4,50.7c-2.1,0-4.2,0-6.3,0c-0.8,0-1.1-0.3-1.1-1.1c0-3,0-6.1,0-9.1c0-2.3,1.4-4,3.6-4.6c0.3-0.1,0.7-0.1,1-0.1
			c1.9,0,3.7,0,5.6,0c2.2,0,4,1.5,4.5,3.6c0.1,0.4,0.1,0.7,0.1,1.1c0,3,0,6,0,9.1c0,0.7-0.3,1.1-1.1,1.1
			C43.7,50.7,41.5,50.7,39.4,50.7z"/>
		<path d="M39.4,23.6c3,0,5.5,2.5,5.5,5.5c0,3.1-2.5,5.6-5.6,5.6c-3.1,0-5.6-2.5-5.6-5.6C33.9,26.1,36.4,23.6,39.4,23.6z"/>
		<path d="M30.2,50.7c-1.4,0-2.8,0-4.2,0c-1.5-0.1-2.5-1.3-2.6-2.8c0-1.7,0-3.4,0-5c0-2.6,2-4.6,4.6-4.6c0.8,0,1.6,0,2.4,0
			c-0.1,0.4-0.2,0.8-0.3,1.2c-0.1,0.4-0.1,0.8-0.1,1.2c0,3,0,6,0,8.9C30.1,49.9,30.2,50.3,30.2,50.7z"/>
		<path d="M25.5,32.9c0-2.3,1.9-4.1,4.2-4.1c2.3,0,4.1,1.9,4.1,4.2c0,2.3-1.9,4.2-4.2,4.1C27.3,37,25.5,35.1,25.5,32.9z"/>
		<path d="M53.3,32.9c0,2.3-1.9,4.1-4.1,4.2c-2.3,0-4.1-1.9-4.2-4.1c0-2.3,1.8-4.1,4.1-4.1C51.5,28.8,53.3,30.6,53.3,32.9z"/>
	</g>
</g>
</svg>
