<?xml version="1.0" encoding="utf-8"?>
<!-- Generator: Adobe Illustrator 26.0.3, SVG Export Plug-In . SVG Version: 6.00 Build 0)  -->
<svg version="1.1" id="Capa_1" xmlns="http://www.w3.org/2000/svg" xmlns:xlink="http://www.w3.org/1999/xlink" x="0px" y="0px"
	 viewBox="0 0 107.42 102.05" style="enable-background:new 0 0 107.42 102.05;" xml:space="preserve">
<style type="text/css">
	.st0{fill:#FFFF00;}
</style>
<path class="st0" d="M89.06,78.8H30.67l-1.01-7.58h64.45c1.24,0,2.3-0.9,2.49-2.13l7.58-47.98c0.12-0.73-0.09-1.47-0.57-2.03
	c-0.48-0.56-1.18-0.89-1.92-0.89H22.59L20.86,5.24c-0.17-1.26-1.24-2.19-2.5-2.19H5.73c-1.4,0-2.53,1.13-2.53,2.53
	S4.34,8.1,5.73,8.1h10.41l9.49,71.15c-4.19,1.23-7.28,5.06-7.28,9.65c0,5.57,4.53,10.1,10.1,10.1s10.1-4.53,10.1-10.1
	c0-1.85-0.53-3.56-1.4-5.05h43.21c-0.87,1.49-1.4,3.2-1.4,5.05c0,5.57,4.53,10.1,10.1,10.1c5.57,0,10.1-4.53,10.1-10.1
	C99.16,83.33,94.63,78.8,89.06,78.8z M98.73,23.25l-6.78,42.93H28.99l-5.72-42.93H98.73z M33.51,88.9c0,2.78-2.27,5.05-5.05,5.05
	s-5.05-2.27-5.05-5.05c0-2.78,2.27-5.05,5.05-5.05S33.51,86.11,33.51,88.9z M89.06,93.95c-2.78,0-5.05-2.27-5.05-5.05
	c0-2.78,2.27-5.05,5.05-5.05s5.05,2.27,5.05,5.05C94.11,91.68,91.84,93.95,89.06,93.95z"/>
</svg>
