<?xml version="1.0" encoding="utf-8"?>
<!-- Generator: Adobe Illustrator 26.0.3, SVG Export Plug-In . SVG Version: 6.00 Build 0)  -->
<svg version="1.1" id="Capa_1" xmlns="http://www.w3.org/2000/svg" xmlns:xlink="http://www.w3.org/1999/xlink" x="0px" y="0px"
	 viewBox="0 0 186.12 78.85" style="enable-background:new 0 0 186.12 78.85;" xml:space="preserve">
<g>
	<g>
		<path d="M64.05,33.91c-1.01,0.3-1.68,1.08-1.49,1.73c0.19,0.65,1.17,0.94,2.19,0.64c1.01-0.3,1.68-1.08,1.49-1.73
			C66.04,33.9,65.07,33.61,64.05,33.91z"/>
		<path d="M100.19,33.91c-1.01,0.3-1.68,1.08-1.49,1.73c0.19,0.65,1.17,0.94,2.19,0.64c1.02-0.3,1.69-1.08,1.5-1.73
			C102.18,33.9,101.2,33.61,100.19,33.91z"/>
		<path d="M82.63,43.72c2.1-1.93,2.63-4.61,1.17-5.97c-1.45-1.37-4.34-0.9-6.44,1.03c-2.1,1.94-2.63,4.61-1.17,5.97
			C77.64,46.12,80.52,45.65,82.63,43.72z M78.99,40.74c0.76-1.67,1.87-2.79,2.49-2.51c0.61,0.28,0.51,1.86-0.24,3.52
			c-0.76,1.67-1.87,2.79-2.49,2.51C78.13,43.98,78.24,42.4,78.99,40.74z"/>
		<path d="M137.6,31.71c-0.07-0.1-0.15-0.18-0.24-0.27c-0.79-0.77-1.92-1.25-3.21-1.26c-0.12,0-0.24,0.01-0.35,0.02
			c-1.96,0.13-3.68,1.35-4.3,3.01c-0.28,0.73-0.2,1.8-0.07,2.37c0.34,1.45,1.06,3.81,1.52,5.42c0.24,0.83,0.58,2.25,0.52,3.32
			c-0.14,2.74-1.82,5.07-4.14,5.56c-0.13,0.03-0.27,0.04-0.4,0.06c-0.67,0.07-1.33-0.02-1.94-0.24c-1.07-0.45-1.85-1.46-2.04-2.71
			c-0.58,0.46-0.95,1.18-0.95,1.99c0,0.99,1.05,2.87,4.35,2.87c3.06,0,5.83-1.74,7.27-4.27c0.56-0.99,0.92-2.13,1.01-3.31
			c0,0,0-0.01,0-0.01c0.05-0.83-0.03-1.63-0.23-2.38c-0.18-0.67-1.91-5.54-2.16-6.58c-0.08-0.34-0.19-0.72-0.16-1.08
			c0.01-0.1,0.02-0.19,0.03-0.29c0-0.01,0.01-0.01,0.01-0.02c0-0.01,0-0.03,0-0.05c0.01-0.07,0.02-0.15,0.03-0.22
			c0.03-0.19,0.09-0.38,0.17-0.57c0.3-0.76,0.87-1.34,1.49-1.61c0.42-0.18,0.87-0.22,1.29-0.09c1.02,0.33,1.45,1.64,0.95,2.91
			c-0.29,0.73-0.83,1.29-1.42,1.57c0.21,0.05,0.43,0.09,0.66,0.09c1.46,0,2.73-1.15,2.82-2.57
			C138.15,32.74,137.96,32.16,137.6,31.71z"/>
		<path d="M100.55,47.85c-2.24-0.55-4.29-1.33-6.09-1.92c-0.29-0.1-0.57-0.18-0.85-0.27l5.28-15.18c0.73-1.96,2.01-2.55,2.81-2.3
			c0.82,0.26,1.18,1.43,0.9,2.6c-0.02,0.11-0.05,0.21-0.08,0.31c-0.24,0.73-0.71,1.29-1.21,1.57c0.17,0.06,0.37,0.09,0.57,0.09
			c1.25,0.01,2.33-1.15,2.41-2.57c0.02-0.34-0.02-0.66-0.11-0.96c-0.07-0.25-0.19-0.49-0.32-0.69c-0.07-0.09-0.14-0.18-0.21-0.27
			c-0.68-0.77-1.64-1.25-2.73-1.26c-0.01,0-0.01,0-0.01,0c-0.09,0-0.17,0-0.25,0.01c-0.02,0-0.04,0-0.06,0
			c-0.02,0-0.04,0.01-0.06,0.01c-1.76,0.13-3.3,1.1-4.21,2.52c-0.16,0.24-0.3,0.51-0.42,0.79c-0.08,0.2-0.15,0.4-0.21,0.6
			l-4.9,14.16c-0.25-0.01-0.48,0-0.71,0.03c-0.22,0.03-0.43,0.07-0.63,0.13c0.06-0.32,0.11-0.65,0.13-0.98c0,0,0-0.01,0-0.01
			c0.05-0.83-0.03-1.63-0.23-2.38c-0.18-0.67-1.92-5.54-2.16-6.58c-0.08-0.34-0.18-0.72-0.16-1.08c0-0.1,0.02-0.19,0.03-0.29
			c0-0.01,0-0.01,0-0.02c0-0.01,0-0.03,0-0.05c0.01-0.07,0.02-0.15,0.03-0.22c0.03-0.19,0.09-0.38,0.16-0.57
			c0.31-0.76,0.87-1.34,1.5-1.61c0.42-0.18,0.87-0.22,1.28-0.09c1.03,0.33,1.46,1.64,0.95,2.91c-0.29,0.73-0.82,1.29-1.42,1.57
			c0.21,0.05,0.43,0.09,0.66,0.09c1.47,0,2.73-1.15,2.82-2.57c0.04-0.63-0.15-1.2-0.5-1.65c-0.08-0.1-0.16-0.18-0.25-0.27
			c-0.79-0.77-1.92-1.25-3.2-1.26c-0.12,0-0.24,0.01-0.35,0.02c-1.96,0.13-3.68,1.35-4.31,3.01c-0.27,0.73-0.2,1.8-0.06,2.37
			c0.34,1.45,1.05,3.81,1.52,5.42c0.24,0.83,0.58,2.25,0.52,3.32c-0.14,2.74-1.82,5.07-4.14,5.56c-0.14,0.03-0.27,0.04-0.4,0.06
			c-0.67,0.07-1.33-0.02-1.94-0.24c-1.07-0.45-1.85-1.46-2.04-2.71c-0.58,0.46-0.95,1.18-0.95,1.99c0,0.99,1.04,2.87,4.35,2.87
			c3.06,0,5.83-1.74,7.26-4.27c0.26-0.46,0.48-0.94,0.64-1.46c0.18-0.01,0.35-0.03,0.51-0.03c0.97-0.01,1.87,0.24,2.81,0.65
			c1.73,0.77,3.58,2.07,6.13,3.24c0.37,0.19,0.75,0.36,1.15,0.5c1.07,0.39,2.22,0.6,3.43,0.6c3,0,5.69-1.32,7.53-3.4v-0.03
			C107.13,48.93,103.66,48.62,100.55,47.85z"/>
		<path d="M52.54,51.08c0.08,0,0.16,0,0.24-0.01c-0.09,0.01-0.17,0.01-0.26,0.01C52.53,51.08,52.53,51.08,52.54,51.08z"/>
		<path d="M122.95,45.05c1.74,1.25,4.42,0.55,5.96-1.56c0.06-0.07,0.12-0.15,0.16-0.22h-0.31c-1.08,1.23-2.61,1.55-3.66,0.67
			c-0.46-0.38-0.76-0.94-0.89-1.58c0.04,0.17,1.37,0.03,1.51,0.01c0.56-0.08,1.1-0.28,1.61-0.52c0.93-0.46,2.04-1.19,2.23-2.3
			c0.02-0.12,0.03-0.24,0.03-0.36c0-0.4-0.12-0.78-0.34-1.09c-0.1-0.13-0.2-0.25-0.32-0.36c-0.12-0.12-0.24-0.22-0.38-0.32
			c-0.83-0.6-1.89-0.74-2.93-0.51c-1.12,0.26-2.22,0.97-3.03,2.07c-1.18,1.6-1.37,3.56-0.63,4.95c-0.15,0.1-0.31,0.19-0.46,0.25
			c-0.27,0.11-0.89,0.21-1.2,0.17c-0.23-0.03-0.63-0.13-0.85-0.44c-0.39-0.55,0.71-3.61,1.51-5.41l0.06-0.15l-0.15-0.07
			c-0.07-0.04-0.15-0.08-0.24-0.14c-0.14-0.09-0.27-0.2-0.38-0.32c-0.44-0.32-0.82-0.71-1.13-1.15c-0.56,0.34-1.31,0.64-2.12,0.84
			c-0.07,0.02-0.13,0.03-0.19,0.04c0-0.01,0-0.02,0.01-0.03c0.15-0.4,0.22-0.82,0.22-1.24c0-0.05-0.01-1.33-0.7-1.92
			c-0.91-0.77-2.47-0.45-3.48,0.72c-0.05,0.06-0.1,0.12-0.16,0.2l-0.01,0.01l-0.03,0.03c-0.05,0.07-0.09,0.14-0.13,0.21
			c0,0-0.01,0.01-0.01,0.02l-0.01,0.01c-0.04,0.06-0.07,0.12-0.1,0.19l-0.01,0.01c0,0.01-0.01,0.01-0.01,0.02
			c-0.04,0.07-0.07,0.14-0.1,0.21c-0.01,0.01-0.02,0.03-0.02,0.05c-0.03,0.08-0.06,0.15-0.08,0.21v0c0,0.01,0,0.01-0.01,0.01
			c-0.1,0.27-0.16,0.55-0.16,0.84c0,0.26,0.05,0.53,0.15,0.78c0.03,0.09,0.07,0.17,0.11,0.26c0.26,0.51,0.72,0.9,1.27,1.12
			l-0.39,1.09c-0.05,0.16-0.11,0.3-0.17,0.45c-0.07,0.21-0.16,0.43-0.23,0.64c-0.13,0.39-1.03,2.29-1.89,2.55
			c-0.21,0.06-0.4,0.03-0.58-0.11c-0.18-0.14-0.12-0.47-0.08-0.71l0.01-0.07c0.03-0.15,0.12-0.39,0.22-0.63
			c0.14-0.37,0.44-1.03,0.58-1.58c0.53-1.65,0.27-3.24-0.81-3.98c-0.78-0.54-1.82-0.51-2.85-0.04c0,0,0.71-1.97,0.7-1.98l0.19-0.54
			c0.01-0.03,0.02-0.06,0.03-0.09c0.03-0.09,0.05-0.2,0.05-0.31c0-0.38-0.22-0.71-0.54-0.88c-0.12-0.05-0.24-0.09-0.38-0.1
			c-0.02,0-0.04-0.01-0.05-0.01c-0.03,0-0.04,0.01-0.06,0.01h-0.16l-2.65,0l-0.11,0.32c0.38,0.21,0.64,0.62,0.64,1.09
			c0,0.1-0.01,0.2-0.04,0.29l-2.38,6.62l0,0l-0.47,1.33c-0.01,0.02-0.01,0.04-0.03,0.06c-0.09,0.23-0.29,0.46-0.56,0.64
			c-0.54,0.36-1.17,0.38-1.4,0.03c-0.11-0.16-0.11-0.36-0.03-0.58c0.01-0.03,0.02-0.05,0.03-0.07l0.91-2.55l1.1-3.06h-2.64v-0.01
			l-1.6,0.01l-0.12,0.31c0.39,0.22,0.65,0.62,0.65,1.08c0,0.12-0.02,0.23-0.05,0.33l0,0c-0.43,1.2-1,2.8-1.46,4.06L96.92,43
			c0,0.01-0.01,0.01-0.01,0.02l0,0.02c0,0,0,0,0-0.01c-0.16,0.58-0.11,1.16,0.2,1.6c0.01,0.02,0.02,0.03,0.04,0.05l0,0
			c0.02,0.03,0.05,0.06,0.07,0.09c0.03,0.03,0.05,0.06,0.08,0.1c0.03,0.03,0.07,0.07,0.11,0.1c0.03,0.03,0.06,0.05,0.1,0.08
			c0.03,0.03,0.08,0.05,0.13,0.08c0.03,0.02,0.06,0.04,0.1,0.06c0.05,0.02,0.1,0.04,0.14,0.06c0.04,0.02,0.08,0.03,0.11,0.04
			c0.05,0.02,0.11,0.03,0.16,0.05c0.04,0.01,0.08,0.02,0.12,0.03c0.06,0.01,0.12,0.02,0.18,0.03c0.04,0.01,0.08,0.01,0.12,0.02
			c0.07,0.01,0.14,0.01,0.21,0.01c0.03,0.01,0.06,0.01,0.1,0.01c0.1,0,0.22-0.01,0.32-0.02c0.62-0.07,1.28-0.31,1.9-0.72
			c0.16-0.11,0.31-0.22,0.45-0.34c0-0.01,0.01-0.01,0.01-0.02l0,0c0.03-0.03,0.07-0.06,0.1-0.09c0.03-0.02,0.05-0.05,0.08-0.07
			c0.02-0.03,0.05-0.06,0.08-0.08c0.08,0.47,0.4,0.89,0.88,1.06c0.05,0.02,0.23,0.08,0.23,0.08c0.61,0.17,1.35,0.26,2.16,0.22
			c0.86-0.04,1.64-0.21,2.24-0.46c0.5-0.19,1.01-0.47,1.5-0.86c0.03,0.24,0.12,0.48,0.28,0.71c0.38,0.55,1.05,0.72,1.43,0.76
			c0.5,0.06,1.4-0.09,1.82-0.25c0.44-0.18,0.86-0.47,1.25-0.85c0.41-0.4,0.78-0.78,1.08-1.33c0.17-0.32,0.35-0.65,0.48-1l0.19-0.53
			l0.83-2.31c0.4-0.05,0.81-0.12,1.2-0.22c0.26-0.07,0.53-0.15,0.78-0.23l-1.56,4.36c0,0.01-0.01,0.03-0.01,0.03l-0.03,0.06
			c0,0.01,0,0.01,0,0.01v0.02v0c-0.12,0.41-0.11,0.82,0.01,1.16c0.17,0.45,0.53,0.74,0.67,0.83l0.02,0.01
			c0.01,0.01,0.02,0.01,0.03,0.02c0.02,0.01,0.04,0.03,0.07,0.04c0.04,0.02,0.08,0.04,0.11,0.05l0.02,0.01
			c0.02,0.01,0.03,0.01,0.04,0.02c0.02,0.01,0.05,0.02,0.08,0.03c0.04,0.02,0.08,0.03,0.13,0.04l0.02,0.01c0,0,0.01,0.01,0.02,0.01
			c0.03,0.01,0.05,0.02,0.08,0.02c0.05,0.01,0.1,0.02,0.14,0.02l0.03,0.01c0.01,0,0.01,0,0.01,0v0.01l0.08,0
			c0.05,0.01,0.09,0.01,0.13,0.01c0.18,0.01,0.35,0.02,0.5,0.02c1.38,0,2.67-0.36,3.72-1.01C122.63,44.8,122.79,44.93,122.95,45.05z
			 M107.51,42.03c-0.23,0.34-0.48,0.64-0.74,0.9c-0.43,0.43-0.89,0.72-1.32,0.88c-0.03,0.01-0.05,0.02-0.08,0.02
			c-0.19,0-0.34-0.18-0.33-0.39c0-0.04,0.01-0.07,0.02-0.11l0,0v0l0,0l0.23-0.63l1.63-4.53c0.09-0.22,0.29-0.37,0.52-0.36
			c0.03,0,0.05,0.01,0.08,0.01c0.04,0.01,0.08,0.03,0.12,0.03l0.01,0.01l0,0c0.1,0.04,0.19,0.08,0.28,0.16
			C108.74,38.66,108.56,40.46,107.51,42.03z M113.77,37.54c-0.15-0.09-0.23-0.31-0.22-0.62c0.01-0.32,0.12-0.68,0.31-1.03
			c0.04-0.07,0.08-0.14,0.13-0.21c0.05-0.07,0.1-0.14,0.15-0.21c0.1-0.11,0.21-0.2,0.3-0.27c0.2-0.14,0.3-0.15,0.32-0.14
			c0.07,0.04,0.14,0.37-0.1,1.16c-0.12,0.4-0.31,0.85-0.53,1.32C114.02,37.58,113.89,37.6,113.77,37.54z M124.98,39.12
			c0.31-0.37,0.7-0.67,1.11-0.9c0.09-0.05,0.19-0.09,0.32-0.1c0.03,0,0.06,0,0.09,0c0.32,0,0.58,0.16,0.67,0.36
			c0,0.02,0.01,0.03,0.01,0.05c0,0.01,0,0.01,0,0.01c0.14,0.59-0.12,1.25-0.71,1.79c-0.19,0.18-0.41,0.34-0.66,0.48
			c-0.52,0.3-1.09,0.48-1.66,0.56C124.09,40.64,124.36,39.83,124.98,39.12z"/>
		<path d="M65.3,32.3c0.2-0.03,0.39-0.08,0.58-0.12c0.11-0.02,0.23-0.05,0.33-0.08c0.02,0,0.04,0,0.05-0.01
			c0.06-0.02,0.13-0.04,0.19-0.06c1.42-0.45,2.57-1.48,3.2-2.82c-1.65,0.67-3.46,1.05-5.36,1.05c-1.11,0-2.28-0.31-3.36-0.54
			c-3.51-0.77-7.59-3.18-11-0.84c-0.39,0.27-0.86,0.62-1.14,1.01c-0.17,0.24-0.33,0.51-0.45,0.79c-0.23,0.51-0.36,1.09-0.36,1.7
			c0,2.35,1.9,4.25,4.26,4.25c0.52,0,1.03-0.1,1.49-0.27c-1.38-0.39-2.39-1.65-2.41-3.15c0-0.02,0-0.03,0-0.05
			c0-1.83,1.48-3.32,3.32-3.32c0.62,0,1.2,0.21,1.78,0.4c0.16,0.05,0.34,0.11,0.51,0.16c0.52,0.16,1,0.39,1.5,0.58
			c0.45,0.18,0.91,0.35,1.37,0.52L54.19,47.6c-0.73,1.96-2.01,2.55-2.81,2.3c-0.83-0.25-1.19-1.43-0.9-2.6
			c0.02-0.1,0.05-0.2,0.09-0.31c0.25-0.73,0.71-1.29,1.22-1.58c-0.18-0.05-0.37-0.08-0.57-0.08c-1.25-0.01-2.34,1.14-2.41,2.56
			c-0.02,0.35,0.02,0.67,0.11,0.96c0.07,0.26,0.18,0.5,0.32,0.7c0.07,0.09,0.14,0.19,0.21,0.27c0.67,0.77,1.63,1.25,2.73,1.26
			c0.08,0,0.17,0,0.25-0.01c0.02,0,0.04,0,0.06-0.01c0.03,0,0.05,0,0.06,0c1.77-0.13,3.3-1.1,4.21-2.52
			c0.16-0.25,0.3-0.52,0.42-0.79c0.08-0.2,0.16-0.4,0.22-0.61l5.17-14.86C63.46,32.43,64.38,32.44,65.3,32.3z"/>
		<path d="M73.81,37.06c-0.87-0.45-1.96-0.24-2.94,0.45c-0.07-0.2-0.26-0.36-0.48-0.38c-0.03-0.01-0.05-0.01-0.07-0.01
			c-0.03,0-0.04,0-0.07,0.01h-2.3l0,0l-1.11,0.01l-0.11,0.32c0.39,0.22,0.65,0.63,0.65,1.1c0,0.11-0.02,0.21-0.04,0.31l-1.39,3.88
			h-0.01l-0.06,0.15c-0.11,0.16-0.26,0.32-0.46,0.45c-0.53,0.36-1.16,0.38-1.4,0.03c-0.11-0.16-0.11-0.36-0.04-0.58
			c0.01-0.03,0.02-0.05,0.03-0.07l0.91-2.55l1.1-3.06h-2.64v-0.01l-1.6,0.01l-0.12,0.31c0.38,0.22,0.64,0.62,0.64,1.08
			c0,0.12-0.02,0.23-0.05,0.33l0,0c-0.43,1.2-1.01,2.8-1.46,4.06L60.79,43c0,0.01-0.01,0.01-0.01,0.02l0,0.02c0,0,0,0,0-0.01
			c-0.16,0.58-0.11,1.16,0.2,1.6c0.01,0.02,0.03,0.03,0.04,0.05l0,0c0.02,0.03,0.05,0.06,0.07,0.09c0.03,0.03,0.06,0.06,0.09,0.1
			c0.04,0.03,0.08,0.07,0.11,0.1c0.03,0.03,0.06,0.05,0.1,0.08c0.04,0.03,0.08,0.05,0.13,0.08c0.03,0.02,0.06,0.04,0.1,0.06
			c0.05,0.02,0.1,0.04,0.15,0.06c0.03,0.02,0.07,0.03,0.1,0.04c0.05,0.02,0.11,0.03,0.16,0.05c0.04,0.01,0.08,0.02,0.12,0.03
			c0.06,0.01,0.12,0.02,0.18,0.03c0.04,0.01,0.08,0.01,0.11,0.02c0.07,0.01,0.14,0.01,0.21,0.01c0.04,0.01,0.07,0.01,0.11,0.01
			c0.1,0,0.21-0.01,0.32-0.02c0.62-0.07,1.29-0.31,1.9-0.72c0.14-0.09,0.27-0.19,0.39-0.3l-2.37,6.59c1.32,0.4,2.71-0.09,3.5-1.16
			c0.12-0.17,0.22-0.33,0.31-0.52c0.05-0.1,0.09-0.2,0.13-0.31l1.33-3.71c0.48,0.1,1.03,0.14,1.62,0.12
			c0.77-0.04,1.48-0.19,2.02-0.42l0,0c0.11-0.05,0.2-0.1,0.29-0.14c0.02-0.02,0.05-0.03,0.07-0.04c0.03-0.01,0.05-0.03,0.08-0.04
			c0.82-0.47,1.58-1.28,2.13-2.32C75.58,40.23,75.3,37.84,73.81,37.06z M72.3,40.45c-0.04,0.12-0.08,0.24-0.13,0.37
			c-0.02,0.04-0.04,0.07-0.05,0.11c-0.03,0.07-0.06,0.14-0.09,0.22c-0.76,1.8-1.77,3.13-2.43,3.26c-0.07,0.02-0.14,0.03-0.21,0.03
			c-0.3,0-0.55-0.15-0.71-0.37c0,0,0-0.01,0-0.01l0.48-1.32l1.34-3.75c0.44-0.51,0.97-0.76,1.39-0.58
			C72.42,38.64,72.58,39.51,72.3,40.45z"/>
	</g>
</g>
</svg>
