<?xml version="1.0" encoding="utf-8"?>
<!-- Generator: Adobe Illustrator 25.4.3, SVG Export Plug-In . SVG Version: 6.00 Build 0)  -->
<svg version="1.1" id="Capa_1" xmlns="http://www.w3.org/2000/svg" xmlns:xlink="http://www.w3.org/1999/xlink" x="0px" y="0px"
	 viewBox="0 0 23.5 18.4" style="enable-background:new 0 0 23.5 18.4;" xml:space="preserve">
<style type="text/css">
	.st0{fill:#777777;}
</style>
<g>
	<path class="st0" d="M10.7,13.7c0,1-0.4,1.9-1.2,2.6s-1.8,1.1-2.9,1.1c-1.7,0-3-0.6-4-1.7C1.7,14.6,1.2,13,1.2,11
		c0-1.9,0.8-3.8,2.4-5.7S7.2,2,9.4,1l1,1.7c-1.8,0.9-3.2,1.9-4.2,3S4.7,8.2,4.5,9.8h1.3c1,0,1.8,0.1,2.4,0.3
		c0.6,0.2,1.1,0.5,1.5,0.9c0.4,0.4,0.6,0.8,0.8,1.2C10.6,12.7,10.7,13.2,10.7,13.7z M22.2,13.7c0,1-0.4,1.9-1.2,2.6
		s-1.8,1.1-2.9,1.1c-1.7,0-3.1-0.6-4-1.7c-0.9-1.1-1.4-2.7-1.4-4.7c0-1.9,0.8-3.8,2.4-5.7S18.7,2,21,1l1,1.7c-1.8,0.9-3.2,1.9-4.2,3
		s-1.6,2.5-1.7,4.2h1.3c1,0,1.8,0.1,2.4,0.3s1.1,0.5,1.5,0.9c0.4,0.4,0.6,0.8,0.8,1.2C22.2,12.7,22.2,13.2,22.2,13.7z"/>
</g>
</svg>
