<?xml version="1.0" encoding="utf-8"?>
<!-- Generator: Adobe Illustrator 25.4.3, SVG Export Plug-In . SVG Version: 6.00 Build 0)  -->
<svg version="1.1" id="Capa_1" xmlns="http://www.w3.org/2000/svg" xmlns:xlink="http://www.w3.org/1999/xlink" x="0px" y="0px"
	 viewBox="0 0 50 49" style="enable-background:new 0 0 50 49;" xml:space="preserve">
<style type="text/css">
	.st0{fill:#FFFF00;}
</style>
<g id="_x33_eLRnR.tif_00000128455509652719910520000017672921720683340701_">
	<g>
		<g>
			<g>
				<path class="st0" d="M28.4,4.9c0.7,0.1,1.5,0.2,2.2,0.4c3.9,1,7,4.5,7.5,8.5c0.1,0.5,0.1,1,0.1,1.5c0.2,0,0.3,0,0.4,0
					c1.5,0,3.1,0,4.7,0c1.3,0,1.9,0.8,1.6,2c-1.1,4.5-2.2,8.9-3.3,13.4c-0.2,1-0.7,1.4-1.8,1.4c-8,0-16,0-24,0
					c-1.1,0-1.5-0.4-1.7-1.4c-1.4-6.5-2.8-13-4.2-19.5c0-0.1-0.1-0.2-0.1-0.4c-1.6,0-3.2,0-4.7,0C5,9.9,5,9,5,8c1.9,0,3.8,0,5.7,0
					c0.9,0,1.4,0.4,1.6,1.2c0.2,0.7,0.3,1.4,0.5,2.1c0.3,1.3,0.6,2.6,0.9,4c1.3,0,2.6,0,4,0c0-0.2,0-0.3,0-0.5
					c0.1-0.7,0.1-1.3,0.3-2c1.1-4,3.6-6.6,7.6-7.7c0.6-0.2,1.3-0.2,2-0.3C27.8,4.9,28.1,4.9,28.4,4.9z M27.9,7.8
					c-4.1,0-7.5,3.4-7.5,7.5c0,4.1,3.4,7.5,7.5,7.5c4.1,0,7.5-3.5,7.5-7.6C35.4,11.1,32,7.7,27.9,7.8z"/>
				<path class="st0" d="M34.2,34.3c2.7,0,4.9,2.2,4.9,4.9c0,2.7-2.2,4.9-4.9,4.9c-2.7,0-4.9-2.2-4.9-4.9
					C29.4,36.5,31.5,34.3,34.2,34.3z"/>
				<path class="st0" d="M19.2,44.1c-2.7,0-4.9-2.2-4.9-4.8c0-2.7,2.2-4.8,4.9-4.9c2.7,0,4.8,2.2,4.9,4.8
					C24,41.9,21.9,44.1,19.2,44.1z"/>
				<path class="st0" d="M31.8,10.7c0.7,0.7,1.3,1.4,1.9,2.1c-0.1,0.1-0.1,0.1-0.2,0.2c-1.9,1.8-3.8,3.6-5.7,5.4
					c-0.6,0.6-1.4,0.6-2,0c-1.2-1.2-2.5-2.4-3.6-3.5c0.7-0.8,1.4-1.4,2-2.1c0.9,0.9,1.8,1.7,2.7,2.6C28.5,13.8,30.1,12.3,31.8,10.7z
					"/>
			</g>
		</g>
	</g>
</g>
</svg>
