<?xml version="1.0" encoding="utf-8"?>
<!-- Generator: Adobe Illustrator 25.4.3, SVG Export Plug-In . SVG Version: 6.00 Build 0)  -->
<svg version="1.1" id="Capa_1" xmlns="http://www.w3.org/2000/svg" xmlns:xlink="http://www.w3.org/1999/xlink" x="0px" y="0px"
	 viewBox="0 0 93 93" style="enable-background:new 0 0 93 93;" xml:space="preserve">
<style type="text/css">
	.st0{fill:#FFFFFF;}
</style>
<circle class="st0" cx="46.5" cy="46.5" r="45"/>
<path d="M21.5,61c0-9.7,0-19.4,0-29.1c0.2-0.4,0.4-1,0.7-1.3c0.4-0.4,1-0.6,1.5-0.9c15.2,0,30.3,0,45.5,0c1.2,0.3,1.9,1,2.2,2.1
	c0,9.7,0,19.4,0,29.1c-0.2,0.4-0.3,0.7-0.5,1c-0.4,0.7-1.1,0.9-1.8,1.1c-15.2,0-30.3,0-45.5,0C22.6,62.9,21.8,62.2,21.5,61z
	 M68.2,61.2c-0.1-0.2-0.2-0.3-0.3-0.4c-2.9-3.6-5.9-7.3-8.8-10.9c-0.6-0.7-1.2-1.4-1.8-2.2c-0.3-0.4-0.3-0.9,0-1.2
	c0.3-0.3,0.8-0.5,1.2-0.2c0.2,0.1,0.4,0.3,0.5,0.5c3.4,4.2,6.8,8.4,10.2,12.6c0.1,0.1,0.2,0.2,0.3,0.4c0-9,0-17.8,0-26.8
	c-0.2,0.1-0.3,0.2-0.5,0.3C62.5,38.2,56,43.2,49.4,48c-1.9,1.4-4,1.5-5.9,0c-6.3-4.8-12.6-9.5-19-14.2c-0.4-0.3-0.7-0.5-1.1-0.8
	c0,8.9,0,17.8,0,26.8c0.1-0.1,0.2-0.2,0.3-0.3c3.1-3.9,6.3-7.8,9.4-11.6c0.4-0.4,0.7-0.9,1-1.3c0.3-0.3,0.7-0.5,1.1-0.2
	c0.3,0.2,0.5,0.5,0.6,0.8c0,0.3-0.2,0.6-0.3,0.9c-2.7,3.4-5.5,6.8-8.2,10.2c-0.8,1-1.6,2-2.5,3.1C39.3,61.2,53.7,61.2,68.2,61.2z
	 M25.1,31.8c0.2,0.1,0.2,0.2,0.3,0.3c6.5,4.9,13,9.8,19.5,14.6c1,0.7,2.2,0.7,3.2,0c6.5-4.9,13-9.7,19.5-14.6
	c0.1-0.1,0.2-0.1,0.3-0.2c-0.1,0-0.1-0.1-0.1-0.1C53.6,31.8,39.4,31.8,25.1,31.8z"/>
</svg>
