<?xml version="1.0" encoding="utf-8"?>
<!-- Generator: Adobe Illustrator 25.4.3, SVG Export Plug-In . SVG Version: 6.00 Build 0)  -->
<svg version="1.1" id="Layer_1" xmlns="http://www.w3.org/2000/svg" xmlns:xlink="http://www.w3.org/1999/xlink" x="0px" y="0px"
	 viewBox="0 0 76 76" style="enable-background:new 0 0 76 76;" xml:space="preserve">
<style type="text/css">
	.st0{fill:#F5F5F5;}
</style>
<g>
	<rect x="0" class="st0" width="76" height="76"/>
	<g id="UfIaxd.tif">
		<g>
			<path d="M23,49.5c0-6.9,0-13.8,0-20.7c0-0.2,0.1-0.4,0.1-0.7c0.4-2,2-3.4,4.1-3.4c0.5,0,1,0,1.6,0c0-0.4,0-0.7,0-1
				c0-0.2,0-0.4,0.1-0.6c0.2-0.5,0.8-0.7,1.3-0.6c0.5,0.1,0.9,0.6,0.9,1.1c0,0.4,0,0.8,0,1.2c4.6,0,9.2,0,13.8,0c0-0.1,0-0.2,0-0.3
				c0-0.3,0-0.5,0-0.8c0-0.7,0.5-1.2,1.1-1.2c0.6,0,1.2,0.5,1.2,1.1c0,0.4,0,0.8,0,1.2c0.6,0,1.1,0,1.7,0c0.7,0,1.3,0.2,1.9,0.5
				c1.4,0.8,2.1,2.1,2.1,3.7c0,4.2,0,8.4,0,12.6c0,2.6,0,5.1,0,7.7c0,2-1.2,3.6-3,4.1c-0.2,0.1-0.4,0.1-0.6,0.1
				c-7.6,0-15.2,0-22.7,0c-0.1,0-0.1,0-0.2-0.1c-1.7-0.4-2.9-1.4-3.3-3.1C23,50.1,23,49.8,23,49.5z M47.2,27.1c0,0.4,0,0.7,0,1.1
				c0,0.4-0.1,0.7-0.4,0.9c-0.4,0.3-0.8,0.4-1.2,0.2c-0.4-0.2-0.7-0.5-0.7-1c0-0.4,0-0.8,0-1.2c-4.6,0-9.2,0-13.8,0
				c0,0.4,0,0.8,0,1.2c0,0.7-0.7,1.2-1.4,1.1c-0.5-0.1-0.9-0.6-0.9-1.2c0-0.4,0-0.7,0-1.1c-0.6,0-1.2,0-1.8,0
				c-0.2,0-0.5,0.1-0.7,0.2c-0.7,0.4-0.9,1-0.9,1.8c0,4.2,0,8.3,0,12.5c0,2.6,0,5.1,0,7.7c0,1.2,0.8,2,2,2c7.1,0,14.3,0,21.4,0
				c0.2,0,0.3,0,0.5,0c0.9-0.2,1.5-0.9,1.5-1.9c0-6.7,0-13.5,0-20.2c0-0.1,0-0.3,0-0.4c-0.1-0.8-0.7-1.5-1.5-1.6
				C48.5,27,47.9,27.1,47.2,27.1z"/>
			<path d="M31.4,47.2c-0.8,0-1.4-0.6-1.4-1.4c0-0.8,0.7-1.5,1.4-1.5c0.8,0,1.5,0.7,1.4,1.5C32.8,46.6,32.1,47.2,31.4,47.2z"/>
			<path d="M31.4,41.4c-0.8,0-1.5-0.7-1.5-1.4c0-0.8,0.6-1.4,1.4-1.4c0.8,0,1.5,0.6,1.5,1.4C32.8,40.8,32.2,41.4,31.4,41.4z"/>
			<path d="M44,32.8c0.8,0,1.4,0.6,1.4,1.4c0,0.8-0.6,1.5-1.4,1.5c-0.8,0-1.4-0.6-1.4-1.4C42.6,33.4,43.2,32.8,44,32.8z"/>
			<path d="M39.1,45.8c0,0.8-0.7,1.5-1.5,1.4c-0.8,0-1.4-0.6-1.4-1.4c0-0.8,0.7-1.5,1.4-1.4C38.5,44.3,39.1,45,39.1,45.8z"/>
			<path d="M45.5,40c0,0.8-0.6,1.4-1.4,1.4c-0.8,0-1.4-0.6-1.4-1.4c0-0.8,0.6-1.4,1.4-1.4C44.8,38.6,45.5,39.2,45.5,40z"/>
			<path d="M31.4,35.7c-0.8,0-1.5-0.6-1.5-1.4c0-0.8,0.6-1.4,1.4-1.4c0.8,0,1.5,0.6,1.5,1.4C32.8,35,32.2,35.7,31.4,35.7z"/>
			<path d="M45.5,45.8c0,0.8-0.6,1.4-1.4,1.4c-0.8,0-1.4-0.6-1.4-1.4c0-0.8,0.6-1.4,1.4-1.4C44.8,44.3,45.5,45,45.5,45.8z"/>
			<path d="M36.3,40c0-0.8,0.6-1.5,1.4-1.4c0.8,0,1.4,0.6,1.4,1.4c0,0.8-0.7,1.5-1.4,1.4C36.9,41.4,36.3,40.8,36.3,40z"/>
			<path d="M37.7,35.7c-0.8,0-1.4-0.6-1.4-1.4c0-0.8,0.6-1.4,1.4-1.4c0.8,0,1.5,0.6,1.5,1.4C39.1,35,38.5,35.7,37.7,35.7z"/>
		</g>
	</g>
</g>
</svg>
