<?xml version="1.0" encoding="utf-8"?>
<!-- Generator: Adobe Illustrator 25.4.3, SVG Export Plug-In . SVG Version: 6.00 Build 0)  -->
<svg version="1.1" id="Capa_1" xmlns="http://www.w3.org/2000/svg" xmlns:xlink="http://www.w3.org/1999/xlink" x="0px" y="0px"
	 viewBox="0 0 16 7.7" style="enable-background:new 0 0 16 7.7;" xml:space="preserve">
<path d="M14.3,4c-0.1,0.1-0.1,0.3-0.2,0.4c-0.8,0.8-1.6,1.6-2.4,2.4C11.4,7,11.1,7,10.9,6.8c-0.2-0.2-0.2-0.5,0-0.7
	C11.4,5.6,12,5,12.5,4.5c0,0,0.1-0.1,0.1-0.1c-0.1,0-0.1,0-0.2,0c-3.4,0-6.8,0-10.2,0C1.9,4.4,1.7,4.3,1.7,4
	C1.6,3.7,1.8,3.4,2.1,3.4c0,0,0.1,0,0.2,0c3.4,0,6.8,0,10.2,0c0.1,0,0.1,0,0.2,0c0,0-0.1-0.1-0.1-0.1c-0.5-0.5-1-1-1.5-1.5
	c-0.3-0.3-0.3-0.8,0.1-0.9c0.1,0,0.1,0,0.2,0c0.1,0.1,0.2,0.2,0.4,0.3c0.8,0.8,1.6,1.6,2.4,2.3c0.1,0.1,0.2,0.2,0.2,0.3
	C14.3,3.8,14.3,3.9,14.3,4z"/>
</svg>
