<?xml version="1.0" encoding="utf-8"?>
<!-- Generator: Adobe Illustrator 25.4.3, SVG Export Plug-In . SVG Version: 6.00 Build 0)  -->
<svg version="1.1" id="Capa_1" xmlns="http://www.w3.org/2000/svg" xmlns:xlink="http://www.w3.org/1999/xlink" x="0px" y="0px"
	 viewBox="0 0 167 78.4" style="enable-background:new 0 0 167 78.4;" xml:space="preserve">
<style type="text/css">
	.st0_{fill:#FEFE01;}
	.st1_{fill:#FFFFFF;}
</style>
<g>
	<g>
		<g>
			<path class="st0_" d="M167,51v3h-6.9v13.8h-3V54h-6.9v-3H167z"/>
		</g>
		<g>
			<path class="st1_" d="M31.7,73c0.5,0,0.9,0.1,1.2,0.4c0.3,0.2,0.4,0.6,0.4,1.1c0,0.6-0.3,1.1-0.9,1.2c0.4,0.1,0.6,0.2,0.9,0.4
				c0.2,0.2,0.3,0.5,0.3,0.9c0,0.2,0,0.4-0.1,0.6c-0.1,0.2-0.2,0.3-0.3,0.5c-0.1,0.1-0.3,0.2-0.5,0.3c-0.2,0.1-0.4,0.1-0.7,0.1h-2.2
				V73H31.7z M31.7,75.6c1,0,1.4-0.4,1.4-1.2c0-0.4-0.1-0.7-0.4-0.9c-0.2-0.2-0.6-0.3-1.1-0.3h-1.7v2.4H31.7z M31.9,78.2
				c0.2,0,0.4,0,0.6-0.1c0.2-0.1,0.3-0.1,0.5-0.3c0.1-0.1,0.2-0.2,0.3-0.4c0.1-0.2,0.1-0.3,0.1-0.5c0-0.2,0-0.4-0.1-0.5
				c-0.1-0.2-0.2-0.3-0.4-0.4c-0.2-0.1-0.3-0.2-0.6-0.2c-0.2,0-0.4-0.1-0.7-0.1h-1.7v2.4H31.9z"/>
			<path class="st1_" d="M35.6,73l1.9,3.3l1.9-3.3h0.2l-2.1,3.5v1.8h-0.2v-1.8L35.4,73H35.6z"/>
			<path class="st1_" d="M45.1,78.3V73h1.8c0.4,0,0.7,0.1,1.1,0.2s0.6,0.3,0.9,0.6c0.2,0.2,0.4,0.5,0.6,0.8c0.1,0.3,0.2,0.7,0.2,1.1
				c0,0.4-0.1,0.7-0.2,1c-0.1,0.3-0.3,0.6-0.6,0.8c-0.2,0.2-0.5,0.4-0.9,0.6s-0.7,0.2-1.1,0.2H45.1z M45.3,78.2h1.6
				c0.4,0,0.7-0.1,1-0.2c0.3-0.1,0.6-0.3,0.8-0.5c0.2-0.2,0.4-0.5,0.5-0.8c0.1-0.3,0.2-0.6,0.2-1c0-0.4-0.1-0.7-0.2-1
				c-0.1-0.3-0.3-0.6-0.5-0.8c-0.2-0.2-0.5-0.4-0.8-0.5c-0.3-0.1-0.6-0.2-1-0.2h-1.6V78.2z"/>
			<path class="st1_" d="M52.1,73h0.2v5.3h-0.2V73z"/>
			<path class="st1_" d="M55.1,73h3.4v0.2h-3.2v2.4H58v0.2h-2.7v2.4h3.2v0.2h-3.4V73z"/>
			<path class="st1_" d="M60.9,78.2h3.5v0.2h-3.7v-0.2l3.5-5h-3.5V73h3.7v0.2L60.9,78.2z"/>
			<path class="st1_" d="M69.7,73l1.9,3.3l1.9-3.3h0.2l-2.1,3.5v1.8h-0.2v-1.8L69.5,73H69.7z"/>
			<path class="st1_" d="M80.7,73h0.2l2.1,5.3h-0.2l-0.6-1.4h-3l-0.6,1.4h-0.2L80.7,73z M82.2,76.7l-1.4-3.5l-1.4,3.5H82.2z"/>
			<path class="st1_" d="M84.9,74.4c0-0.5,0.1-0.8,0.4-1.1c0.3-0.3,0.7-0.4,1.2-0.4c0.5,0,0.9,0.1,1.2,0.4c0.3,0.3,0.5,0.6,0.5,1.1
				h-0.2c0-0.4-0.2-0.7-0.5-0.9c-0.3-0.2-0.6-0.3-1.1-0.3c-0.5,0-0.8,0.1-1.1,0.3c-0.3,0.2-0.4,0.6-0.4,1c0,0.2,0,0.4,0.1,0.5
				c0.1,0.1,0.2,0.2,0.4,0.3c0.1,0.1,0.3,0.1,0.5,0.2c0.2,0,0.4,0.1,0.6,0.1c0.2,0,0.4,0.1,0.7,0.1c0.2,0.1,0.4,0.1,0.6,0.2
				c0.2,0.1,0.3,0.2,0.4,0.4c0.1,0.2,0.2,0.3,0.2,0.6c0,1-0.6,1.5-1.8,1.5c-1.2,0-1.8-0.5-1.9-1.5H85c0,0.4,0.2,0.8,0.4,1
				c0.3,0.2,0.7,0.3,1.3,0.3c1.1,0,1.6-0.4,1.6-1.3c0-0.2,0-0.4-0.1-0.5c-0.1-0.1-0.2-0.2-0.4-0.3c-0.2-0.1-0.3-0.1-0.5-0.2
				s-0.4-0.1-0.6-0.1c-0.2,0-0.4-0.1-0.6-0.1c-0.2-0.1-0.4-0.1-0.5-0.2c-0.2-0.1-0.3-0.2-0.4-0.4C85,74.9,84.9,74.7,84.9,74.4z"/>
			<path class="st1_" d="M90.7,75.7c0-0.4,0.1-0.7,0.2-1.1c0.1-0.3,0.3-0.6,0.6-0.9c0.2-0.2,0.5-0.4,0.9-0.6c0.3-0.1,0.7-0.2,1.1-0.2
				c0.4,0,0.7,0.1,1.1,0.2c0.3,0.1,0.6,0.3,0.9,0.6c0.2,0.2,0.4,0.5,0.6,0.9c0.1,0.3,0.2,0.7,0.2,1.1c0,0.4-0.1,0.7-0.2,1.1
				c-0.1,0.3-0.3,0.6-0.6,0.9c-0.2,0.2-0.5,0.4-0.9,0.6c-0.3,0.1-0.7,0.2-1.1,0.2c-0.4,0-0.7-0.1-1.1-0.2c-0.3-0.1-0.6-0.3-0.9-0.6
				c-0.2-0.2-0.4-0.5-0.6-0.9C90.8,76.4,90.7,76,90.7,75.7z M90.9,75.7c0,0.4,0.1,0.7,0.2,1s0.3,0.6,0.5,0.8
				c0.2,0.2,0.5,0.4,0.8,0.5c0.3,0.1,0.6,0.2,1,0.2c0.4,0,0.7-0.1,1-0.2c0.3-0.1,0.6-0.3,0.8-0.5s0.4-0.5,0.5-0.8
				c0.1-0.3,0.2-0.6,0.2-1c0-0.4-0.1-0.7-0.2-1c-0.1-0.3-0.3-0.6-0.5-0.8c-0.2-0.2-0.5-0.4-0.8-0.5c-0.3-0.1-0.6-0.2-1-0.2
				c-0.3,0-0.7,0.1-1,0.2c-0.3,0.1-0.6,0.3-0.8,0.6s-0.4,0.5-0.5,0.8C90.9,75,90.9,75.3,90.9,75.7z"/>
			<path class="st1_" d="M98.3,75.7c0-0.4,0.1-0.7,0.2-1.1c0.1-0.3,0.3-0.6,0.6-0.9c0.2-0.2,0.5-0.4,0.9-0.6c0.3-0.1,0.7-0.2,1.1-0.2
				c0.3,0,0.6,0,0.8,0.1c0.3,0.1,0.5,0.2,0.7,0.4c0.2,0.2,0.4,0.3,0.6,0.6c0.2,0.2,0.3,0.4,0.4,0.7h-0.2c-0.1-0.2-0.2-0.4-0.4-0.6
				c-0.2-0.2-0.3-0.4-0.5-0.5c-0.2-0.1-0.4-0.2-0.7-0.3c-0.2-0.1-0.5-0.1-0.8-0.1c-0.3,0-0.7,0.1-1,0.2c-0.3,0.1-0.6,0.3-0.8,0.6
				c-0.2,0.2-0.4,0.5-0.5,0.8c-0.1,0.3-0.2,0.6-0.2,1c0,0.4,0.1,0.7,0.2,1c0.1,0.3,0.3,0.6,0.5,0.8c0.2,0.2,0.5,0.4,0.8,0.5
				c0.3,0.1,0.6,0.2,1,0.2c0.3,0,0.5,0,0.8-0.1c0.2-0.1,0.5-0.2,0.7-0.3c0.2-0.1,0.4-0.3,0.5-0.5c0.2-0.2,0.3-0.4,0.4-0.6h0.2
				c-0.1,0.3-0.2,0.5-0.4,0.7c-0.2,0.2-0.4,0.4-0.6,0.6c-0.2,0.2-0.5,0.3-0.7,0.4c-0.3,0.1-0.5,0.1-0.8,0.1c-0.4,0-0.7-0.1-1.1-0.2
				c-0.3-0.1-0.6-0.3-0.9-0.6c-0.2-0.2-0.4-0.5-0.6-0.9C98.3,76.4,98.3,76,98.3,75.7z"/>
			<path class="st1_" d="M105.9,73h0.2v5.3h-0.2V73z"/>
			<path class="st1_" d="M110.5,73h0.2l2.1,5.3h-0.2l-0.6-1.4h-3l-0.6,1.4h-0.2L110.5,73z M112,76.7l-1.4-3.5l-1.4,3.5H112z"/>
			<path class="st1_" d="M115.1,78.3V73h1.8c0.4,0,0.7,0.1,1.1,0.2s0.6,0.3,0.9,0.6c0.2,0.2,0.4,0.5,0.6,0.8c0.1,0.3,0.2,0.7,0.2,1.1
				c0,0.4-0.1,0.7-0.2,1c-0.1,0.3-0.3,0.6-0.6,0.8c-0.2,0.2-0.5,0.4-0.9,0.6s-0.7,0.2-1.1,0.2H115.1z M115.2,78.2h1.6
				c0.4,0,0.7-0.1,1-0.2c0.3-0.1,0.6-0.3,0.8-0.5c0.2-0.2,0.4-0.5,0.5-0.8c0.1-0.3,0.2-0.6,0.2-1c0-0.4-0.1-0.7-0.2-1
				c-0.1-0.3-0.3-0.6-0.5-0.8c-0.2-0.2-0.5-0.4-0.8-0.5c-0.3-0.1-0.6-0.2-1-0.2h-1.6V78.2z"/>
			<path class="st1_" d="M121.7,75.7c0-0.4,0.1-0.7,0.2-1.1c0.1-0.3,0.3-0.6,0.6-0.9c0.2-0.2,0.5-0.4,0.9-0.6
				c0.3-0.1,0.7-0.2,1.1-0.2c0.4,0,0.7,0.1,1.1,0.2c0.3,0.1,0.6,0.3,0.9,0.6c0.2,0.2,0.4,0.5,0.6,0.9c0.1,0.3,0.2,0.7,0.2,1.1
				c0,0.4-0.1,0.7-0.2,1.1c-0.1,0.3-0.3,0.6-0.6,0.9c-0.2,0.2-0.5,0.4-0.9,0.6c-0.3,0.1-0.7,0.2-1.1,0.2c-0.4,0-0.7-0.1-1.1-0.2
				c-0.3-0.1-0.6-0.3-0.9-0.6c-0.2-0.2-0.4-0.5-0.6-0.9C121.7,76.4,121.7,76,121.7,75.7z M121.9,75.7c0,0.4,0.1,0.7,0.2,1
				c0.1,0.3,0.3,0.6,0.5,0.8c0.2,0.2,0.5,0.4,0.8,0.5c0.3,0.1,0.6,0.2,1,0.2c0.4,0,0.7-0.1,1-0.2c0.3-0.1,0.6-0.3,0.8-0.5
				s0.4-0.5,0.5-0.8c0.1-0.3,0.2-0.6,0.2-1c0-0.4-0.1-0.7-0.2-1c-0.1-0.3-0.3-0.6-0.5-0.8c-0.2-0.2-0.5-0.4-0.8-0.5
				c-0.3-0.1-0.6-0.2-1-0.2c-0.3,0-0.7,0.1-1,0.2c-0.3,0.1-0.6,0.3-0.8,0.6s-0.4,0.5-0.5,0.8C121.9,75,121.9,75.3,121.9,75.7z"/>
			<path class="st1_" d="M129.4,74.4c0-0.5,0.1-0.8,0.4-1.1c0.3-0.3,0.7-0.4,1.2-0.4c0.5,0,0.9,0.1,1.2,0.4c0.3,0.3,0.5,0.6,0.5,1.1
				h-0.2c0-0.4-0.2-0.7-0.5-0.9c-0.3-0.2-0.6-0.3-1.1-0.3c-0.5,0-0.8,0.1-1.1,0.3c-0.3,0.2-0.4,0.6-0.4,1c0,0.2,0,0.4,0.1,0.5
				c0.1,0.1,0.2,0.2,0.4,0.3c0.1,0.1,0.3,0.1,0.5,0.2c0.2,0,0.4,0.1,0.6,0.1c0.2,0,0.4,0.1,0.7,0.1c0.2,0.1,0.4,0.1,0.6,0.2
				c0.2,0.1,0.3,0.2,0.4,0.4c0.1,0.2,0.2,0.3,0.2,0.6c0,1-0.6,1.5-1.8,1.5c-1.2,0-1.8-0.5-1.9-1.5h0.2c0,0.4,0.2,0.8,0.4,1
				c0.3,0.2,0.7,0.3,1.3,0.3c1.1,0,1.6-0.4,1.6-1.3c0-0.2,0-0.4-0.1-0.5c-0.1-0.1-0.2-0.2-0.4-0.3c-0.2-0.1-0.3-0.1-0.5-0.2
				c-0.2,0-0.4-0.1-0.6-0.1c-0.2,0-0.4-0.1-0.6-0.1c-0.2-0.1-0.4-0.1-0.5-0.2c-0.2-0.1-0.3-0.2-0.4-0.4
				C129.5,74.9,129.4,74.7,129.4,74.4z"/>
		</g>
		<g>
			<path class="st1_" d="M67,58.9c0-3.9,2.6-7.2,6.2-7.8c4.3-0.7,8.3,2.4,8.8,6.6c0.2,2.1-0.1,4.1-1.4,5.8c-0.2,0.3-0.2,0.5,0.1,0.8
				c0.5,0.5,0.9,1,1.4,1.4c0.3,0.3,0.3,0.5-0.1,0.7c-0.1,0.1-0.3,0.2-0.4,0.3c-0.2,0.3-0.4,0.3-0.7,0c-0.4-0.5-0.9-0.9-1.3-1.4
				c-0.2-0.2-0.4-0.3-0.7-0.1c-2.4,1.8-5.1,2.1-7.7,0.7C68.4,64.5,67,62.1,67,58.9z M68.5,59.1c0,0.7,0.1,1.5,0.4,2.3
				c1.3,3.4,5.2,5,8.3,3.2c1.1-0.6,1.1-0.6,0.2-1.5c-0.7-0.7-0.7-0.7,0.1-1.4c0.3-0.3,0.5-0.3,0.8,0.1c0.2,0.2,0.4,0.4,0.5,0.6
				c0.3,0.4,0.5,0.3,0.7-0.1c0.8-1.5,1.1-3,0.8-4.7c-0.5-3.1-3.4-5.5-6.3-5.2C70.9,52.8,68.5,55.5,68.5,59.1z"/>
			<path class="st1_" d="M50.9,54.2c0,1.9,0,3.8,0,5.7c0,2,0,4.1,0,6.1c0,0.5,0,0.9-0.8,0.9c-0.7,0-0.8-0.2-0.8-0.9
				c0-4.7,0-9.5,0-14.2c0-0.3-0.2-0.7,0.2-0.8c0.4-0.1,0.9-0.2,1.2,0.3c1,1.3,2,2.7,3.1,4c2,2.6,4,5.2,6,7.8
				c0.1,0.2,0.2,0.3,0.4,0.5c0.2-0.2,0.2-0.5,0.2-0.7c0-3.7,0-7.5,0-11.2c0-0.7,0.3-0.7,0.8-0.7c0.5,0,0.8,0.1,0.8,0.7
				c0,4.8,0,9.6-0.1,14.4c0,0.3,0.2,0.7-0.2,0.7c-0.4,0.1-0.9,0.2-1.2-0.3c-1.1-1.5-2.3-3-3.5-4.6c-1.9-2.5-3.8-5-5.8-7.5
				C51.2,54.4,51.2,54.2,50.9,54.2z"/>
			<path class="st1_" d="M14.7,58.9c0-2.4,0-4.9,0-7.3c0-0.5,0.1-0.6,0.7-0.6c2.3,0,4.7,0,7,0c1.2,0,2.3,0.4,3.3,1.1
				c2.3,1.8,2.1,5-0.4,6.6c-0.3,0.2-0.6,0.3-0.9,0.5c-0.3,0.1-0.3,0.2-0.1,0.4c1.6,2,2.4,4.4,3.2,6.7c0.1,0.4,0,0.5-0.4,0.5
				c0,0,0,0-0.1,0c-1,0-1,0-1.3-0.9c-0.4-1.1-0.8-2.3-1.3-3.4c-0.2-0.5-0.5-1-0.8-1.4c-0.7-1-1.6-1.8-3.1-1.6c-1.2,0.1-2.5,0-3.8,0
				c-0.4,0-0.5,0.1-0.5,0.6c0,2,0,4,0,6.1c0,0.6-0.3,0.6-0.7,0.6c-0.4,0-0.8,0.1-0.8-0.6C14.7,63.8,14.7,61.4,14.7,58.9
				C14.7,58.9,14.7,58.9,14.7,58.9z M19.8,52.5c-1.1,0-2,0-2.9,0c-0.5,0-0.7,0.1-0.7,0.6c0,1.5,0,3,0,4.6c0,0.4,0.1,0.6,0.6,0.6
				c1.8,0,3.6,0,5.4,0c1,0,1.8-0.3,2.6-0.9c1.2-1,1.3-2.4,0.3-3.6c-0.6-0.6-1.3-1-2.1-1.2C21.9,52.4,20.8,52.5,19.8,52.5z"/>
			<path class="st1_" d="M86.5,56.7c0-1.7,0-3.4,0-5.1c0-0.4,0.1-0.7,0.6-0.6c0.2,0,0.3,0,0.5,0c0.4,0,0.5,0.1,0.5,0.5
				c0,3.2,0,6.4,0,9.7c0,2.1,1.1,3.6,3.2,4c1.3,0.3,2.5,0.2,3.7-0.4c1.4-0.7,2.2-1.9,2.2-3.5c0-3.2,0-6.4,0-9.6
				c0-0.2-0.2-0.6,0.2-0.6c0.4-0.1,0.9-0.1,1.3,0c0.2,0.1,0.1,0.3,0.1,0.4c0,3.2-0.2,6.3,0,9.5c0.2,3.9-3.3,6.2-6.8,5.9
				c-1.4-0.1-2.6-0.6-3.7-1.6c-1.1-1-1.7-2.2-1.7-3.7C86.5,59.9,86.5,58.3,86.5,56.7z"/>
			<path class="st1_" d="M118.2,51c2,0.1,4.1,1,5.7,3.1c0.3,0.4,0.3,0.6-0.2,0.9c-0.6,0.3-0.9,0.2-1.3-0.3c-2.4-3-7.9-3.3-10.1,1.4
				c-1.5,3.2-0.1,7.3,2.9,8.8c2.4,1.2,5.7,0.4,7.4-1.8c0.1-0.2,0.2-0.5,0.5-0.4c0.4,0.1,0.8,0.3,1.1,0.6c0.2,0.2-0.1,0.4-0.3,0.6
				c-2.4,3.3-7.4,4-10.7,1.5c-4.2-3.2-4.1-10.1,0.6-13.2C114.9,51.3,116.2,51,118.2,51z"/>
			<path class="st1_" d="M45.7,66.9c-0.3,0-0.7,0-1,0c-0.4,0.1-0.6-0.1-0.8-0.5c-1.8-3.8-3.6-7.6-5.4-11.4c-0.2-0.4-0.4-0.8-0.7-1.4
				c-0.9,2-1.8,3.8-2.7,5.6c-1.1,2.4-2.2,4.7-3.3,7.1c-0.2,0.5-1.4,0.8-1.8,0.5c-0.2-0.2,0-0.4,0.1-0.5c0.6-1.4,1.3-2.8,1.9-4.1
				c1.7-3.6,3.4-7.1,5-10.7c0.2-0.3,0.3-0.5,0.8-0.5c0.4,0,0.6,0.2,0.7,0.5c2.3,5,4.7,9.9,7,14.9C45.7,66.5,45.8,66.7,45.7,66.9z"/>
			<path class="st1_" d="M149.6,66.8c-1.6,0.1-1.6,0.1-2.3-1.3c-1.8-3.8-3.6-7.7-5.4-11.5c-0.1-0.1-0.1-0.2-0.2-0.4
				c-0.6,1.3-1.1,2.4-1.7,3.6c-1.5,3.1-2.9,6.2-4.4,9.3c-0.1,0.3-0.3,0.4-0.6,0.4c-0.2,0-0.5,0-0.7,0c-0.5,0-0.6-0.1-0.3-0.5
				c1.3-2.8,2.7-5.6,4-8.4c1-2.2,2-4.3,3-6.5c0.2-0.4,0.4-0.5,0.8-0.5c0.4,0,0.5,0.2,0.7,0.5c2.3,4.9,4.6,9.9,7,14.8
				C149.4,66.5,149.5,66.6,149.6,66.8z"/>
			<path class="st1_" d="M0,58.9c0-2.4,0-4.8,0-7.3C0,51.2,0.1,51,0.7,51c3.2,0,6.3,0,9.5,0c0.6,0,0.6,0.2,0.6,0.7
				c0,0.4,0.1,0.8-0.6,0.8c-2.6,0-5.3,0-7.9,0c-0.6,0-0.7,0.2-0.7,0.7c0,1.5,0,3,0,4.4c0,0.5,0.2,0.6,0.7,0.6c1.8,0,3.6,0,5.4,0
				c0.7,0,0.6,0.4,0.6,0.8c0,0.4,0,0.7-0.6,0.7c-1.8,0-3.5,0-5.3,0c-0.6,0-0.7,0.2-0.7,0.8c0,2,0,3.9,0,5.9c0,0.6-0.3,0.6-0.7,0.6
				C0.4,66.8,0,67,0,66.3C0,63.8,0,61.4,0,58.9z"/>
			<path class="st1_" d="M104.2,59c0-2.4,0-4.8,0-7.3c0-0.7,0.4-0.6,0.8-0.7c0.5,0,0.7,0.1,0.7,0.7c0,4.8,0,9.7,0,14.5
				c0,0.5-0.2,0.7-0.7,0.7c-0.5,0-0.9,0.1-0.9-0.7C104.3,63.8,104.2,61.4,104.2,59z"/>
			<path class="st1_" d="M130.3,59c0,2.4,0,4.8,0,7.2c0,0.7-0.3,0.7-0.8,0.7c-0.5,0-0.8,0-0.8-0.7c0-4.8,0-9.7,0-14.5
				c0-0.7,0.4-0.6,0.8-0.7c0.5,0,0.7,0.1,0.7,0.7C130.3,54.1,130.3,56.6,130.3,59z"/>
		</g>
	</g>
	<path class="st0_" d="M85.7,16.2c1.9,0.7,3.7,1.4,5.5,2c0.5,0.2,1,0.4,1.5,0.6c0.4,0.2,0.5,0.1,0.5-0.3c0-0.8,0-1.6,0-2.4
		c0-4.6,0-9.1,0-13.7c0-0.4-0.1-0.5-0.6-0.5c-7.7,0-15.4,0-23.1,0c-0.5,0-0.6,0.1-0.6,0.5c0,7.8,0,15.6,0,23.4
		c0,0.4,0.1,0.5,0.6,0.5c2.1,0,4.2,0,6.3,0c0.4,0,0.5,0.1,0.5,0.5c0,5.2,0,10.4,0,15.5c0,0.4-0.1,0.5-0.6,0.5c-2.9,0-5.9,0-8.8,0
		c-0.5,0-0.5-0.1-0.5-0.5c0-4.5,0-9,0-13.5c0-0.4-0.1-0.5-0.7-0.5c-4.5,0-9.1,0-13.6,0c-0.6,0-0.7,0.1-0.7,0.6c0,4.5,0,9,0,13.4
		c0,0.2,0,0.3-0.1,0.4c-0.2,0.2-0.4,0.1-0.6,0.1c-1.3-0.1-1.4,0.1-1.6-0.1c-0.1-0.1-0.1-0.2-0.1-1.3c0-0.5,0-0.8,0-1.1
		c0.1-1.5,0-12.5,0-13.6c0-0.4,0.1-0.5,0.6-0.5c5.3,0,10.7,0,16,0c0.8,0,0.7,0.1,0.7-0.6c0-8.4,0-16.8,0-25.2c0-0.6,0-0.6,0.7-0.6
		c9.2,0,18.4,0,27.7,0c0.5,0,0.7,0.1,0.7,0.6c0,6.3,0,12.6,0,18.8c0,0.4,0.1,0.5,0.6,0.7c1.4,0.5,2.8,1,4.3,1.6
		c0.6,0.2,0.6,0.2,0.6-0.3c0-2.1,0-4.3,0-6.4c0-0.3,0.1-0.4,0.4-0.5c7.4-2.8,14.7-5.6,22.1-8.3c0.1,0,0.2-0.1,0.3-0.1
		c0.1,0.2,0.1,0.4,0.1,0.5c0,14.8-0.1,32.1,0,33.8c0,0.4,0,0.8,0,1.3c0,0,0,0.3,0,0.7c0,0.3,0,0.4,0,0.4c-0.2,0.4-0.9,0.1-2,0.2
		c-0.1,0-0.3,0-0.4-0.1c-0.1-0.1-0.1-0.2-0.1-0.3c0-0.6,0-1.1,0-1.7c0-10.3,0-20.7,0-31c0-0.1,0-0.2,0-0.4c0-0.3-0.1-0.3-0.4-0.2
		c-0.7,0.3-1.4,0.5-2.1,0.8c-5,1.9-10,3.8-14.9,5.6c-0.5,0.2-0.6,0.4-0.6,0.8c0,1.9,0,3.9,0,5.9c0,0.4,0.1,0.5,0.5,0.7
		c2.2,0.8,4.3,1.6,6.4,2.4c0.4,0.1,0.5,0.3,0.5,0.7c0,5.4,0,10.9,0,16.3c0,0.4-0.1,0.5-0.6,0.5c-2.9,0-5.7,0-8.6,0
		c-0.6,0-0.7-0.2-0.7-0.6c0-5.9,0-11.8,0-17.7c0-0.4-0.2-0.6-0.6-0.8c-1.4-0.5-2.8-1-4.3-1.6c-0.6-0.2-0.6-0.2-0.6,0.3
		c0,6.6,0,13.2,0,19.7c0,0.7,0.1,0.6-0.7,0.6c-2.9,0-5.7,0-8.6,0c-0.4,0-0.6,0-0.6-0.4c0-8.6,0-17.3,0-25.9
		C85.7,16.4,85.7,16.4,85.7,16.2z M88.1,30.1c0,3.4,0,6.9,0,10.3c0,0.4,0.1,0.5,0.6,0.5c1.3,0,2.6,0,3.9,0c0.4,0,0.6-0.1,0.6-0.5
		c0-6.3,0-12.6,0-18.9c0-0.3-0.1-0.4-0.5-0.6c-1.4-0.5-2.7-1-4.1-1.5c-0.6-0.2-0.6-0.2-0.6,0.3C88.1,23.2,88.1,26.6,88.1,30.1z
		 M103.4,25C103.4,25,103.4,25,103.4,25c0,5.3,0,10.4,0,15.6c0,0.3,0.1,0.3,0.4,0.3c1.4,0,2.8,0,4.2,0c0.4,0,0.4-0.1,0.4-0.4
		c0-4.5,0-8.9,0-13.4c0-0.3-0.1-0.4-0.4-0.5c-1.4-0.5-2.8-1-4.3-1.6C103.6,25,103.5,24.9,103.4,25z M68.9,34.5c0,2,0,3.9,0,5.9
		c0,0.3,0.1,0.4,0.5,0.4c1.4,0,2.7,0,4.1,0c0.4,0,0.5-0.1,0.5-0.4c0-3.9,0-7.8,0-11.7c0-0.3-0.1-0.4-0.5-0.4c-1.4,0-2.7,0-4.1,0
		c-0.4,0-0.5,0.1-0.5,0.4C68.9,30.6,68.9,32.6,68.9,34.5z"/>
</g>
</svg>
