<?xml version="1.0" encoding="utf-8"?>
<!-- Generator: Adobe Illustrator 25.4.3, SVG Export Plug-In . SVG Version: 6.00 Build 0)  -->
<svg version="1.1" id="Capa_1" xmlns="http://www.w3.org/2000/svg" xmlns:xlink="http://www.w3.org/1999/xlink" x="0px" y="0px"
	 viewBox="0 0 54 54" style="enable-background:new 0 0 54 54;" xml:space="preserve">
<style type="text/css">
	.st0{fill:#FFFF00;}
</style>
<g>
	<circle class="st0" cx="27" cy="27" r="26.5"/>
	<g id="DSHKVv.tif">
		<g>
			<path d="M18.9,40.6c-0.2-0.1-0.4-0.1-0.5-0.2c-0.8-0.4-1.3-1-1.3-1.9c0-0.1,0-0.1,0-0.2c0-7.6,0-15.1,0-22.7
				c0-1.1,0.6-1.9,1.6-2.2c0.2-0.1,0.4-0.1,0.7-0.1c4,0,7.9,0,11.9,0c0.5,0,1,0.2,1.3,0.5c1.4,1.4,2.7,2.7,4.1,4.1
				c0.4,0.4,0.5,0.8,0.5,1.3c0,0.6,0,1.2,0,1.8c0,0.3-0.2,0.5-0.4,0.5s-0.4-0.2-0.4-0.5c0-0.5,0-1,0-1.6c0-0.5,0-0.4-0.4-0.4
				c-0.7,0-1.5,0-2.2,0c-1.1,0-2-0.6-2.2-1.7c-0.1-0.2-0.1-0.5-0.1-0.7c0-0.8,0-1.7,0-2.5c-0.1,0-0.2,0-0.3,0c-3.9,0-7.9,0-11.8,0
				c-0.9,0-1.5,0.6-1.5,1.5c0,7.5,0,15.1,0,22.6c0,0.9,0.6,1.5,1.5,1.5c5.2,0,10.3,0,15.5,0c0.9,0,1.5-0.6,1.5-1.5
				c0-2.9,0-5.9,0-8.8c0-0.1,0-0.2,0-0.3c0-0.2,0.1-0.3,0.4-0.4c0.2,0,0.4,0.1,0.4,0.3c0,0.1,0,0.2,0,0.3c0,2.9,0,5.8,0,8.7
				c0,1.3-0.6,2-1.8,2.4l0,0C29.8,40.6,24.3,40.6,18.9,40.6z M32.2,14.9c0,0.7,0,1.5,0,2.2s0.6,1.2,1.3,1.3c0.7,0,1.4,0,2.1,0l0,0
				C34.5,17.2,33.3,16,32.2,14.9z"/>
			<path d="M41,21.1c-0.1,0.2-0.3,0.4-0.4,0.7c-0.2,0.2-0.3,0.4-0.3,0.8c0,0.2-0.2,0.5-0.3,0.7c0.1,0.1,0.2,0.2,0.4,0.3
				c0.5,0.4,0.6,0.9,0.2,1.4c-0.5,0.8-1.1,1.5-1.6,2.2c-0.2,0.3-0.4,0.3-0.6,0.2c-0.2-0.1-0.2-0.4,0-0.7c0.5-0.7,1-1.4,1.5-2.1
				c0.2-0.2,0.2-0.4-0.1-0.5c-0.1-0.1-0.2-0.1-0.3-0.2c-0.1,0.1-0.1,0.2-0.2,0.3c-2.3,3.3-4.7,6.6-7,9.9c-0.8,1.1-1.8,2-2.9,2.9
				c-0.3,0.2-0.7,0.2-1,0s-0.4-0.6-0.3-1c0.5-1.4,1.1-2.7,1.9-3.9c2.5-3.5,5.1-7.1,7.6-10.6c0.2-0.3,0.4-0.5,0.7-0.5
				c0.1,0,0.1-0.1,0.2-0.2c0.2-0.2,0.3-0.4,0.5-0.7c0.3-0.4,0.7-0.5,1.1-0.2c0.4,0.2,0.8,0.4,0.9,0.9C41,20.9,41,21,41,21.1z
				 M33.2,31.3c0.1-0.1,0.1-0.2,0.2-0.3c0.9-1.3,1.8-2.6,2.7-3.8c1.1-1.5,2.1-3,3.2-4.5c0.1-0.2,0.1-0.3-0.1-0.5
				c-0.2-0.1-0.4-0.3-0.6-0.4c-0.3-0.2-0.3-0.2-0.5,0.1c-2,2.8-4,5.6-6,8.4c0,0.1-0.1,0.1-0.1,0.2C32.5,30.8,32.8,31.1,33.2,31.3z
				 M31.6,31.2c-1.2,1.6-2.3,3.1-2.8,5.1c1.7-1.1,2.8-2.7,3.9-4.3C32.4,31.7,32,31.4,31.6,31.2z M39.7,21.6c0.2-0.2,0.3-0.4,0.5-0.6
				c-0.2-0.1-0.4-0.3-0.6-0.4c-0.2,0.2-0.3,0.4-0.5,0.6C39.4,21.3,39.5,21.4,39.7,21.6z"/>
			<path d="M23.1,36.8c0.4-0.2,0.7-0.4,1.1-0.5c0.5-0.2,0.9-0.1,1.4,0.1c0.2,0.1,0.3,0.2,0.5,0.3c0.5,0.4,1.1,0.5,1.7,0.6
				c0.3,0,0.5,0.2,0.5,0.4c0,0.3-0.2,0.4-0.5,0.4c-0.8,0-1.5-0.2-2.1-0.7s-1.2-0.4-1.8,0c-0.3,0.2-0.6,0.4-0.9,0.6
				c-0.1,0.1-0.3,0.2-0.4,0.2c-0.4,0.1-0.7-0.1-0.7-0.5c0-0.2,0.1-0.4,0.2-0.6c0.2-0.4,0.4-0.8,0.5-1.3c0-0.1,0.1-0.2,0.1-0.4
				c-0.2,0.1-0.4,0.1-0.6,0.3c-0.5,0.5-1.1,1-1.6,1.5c-0.2,0.3-0.4,0.6-0.7,0.9c-0.2,0.2-0.4,0.2-0.6,0.1c-0.2-0.1-0.2-0.4-0.1-0.6
				c0.6-0.9,1.3-1.7,2.2-2.4c0.3-0.3,0.7-0.5,1.2-0.5c0.6,0,1,0.4,0.8,1C23.4,36,23.2,36.4,23.1,36.8z"/>
			<path d="M21.9,16c0.6,0,1.2,0,1.7,0c0.1,0,0.2,0,0.3,0c0.1,0.1,0.3,0.2,0.3,0.4c0,0.1-0.2,0.3-0.3,0.4c-0.1,0-0.2,0-0.3,0
				c-1.2,0-2.4,0-3.7,0c-0.1,0-0.1,0-0.2,0c-0.2,0-0.3-0.2-0.3-0.4c0-0.2,0.1-0.3,0.3-0.4c0.1,0,0.2,0,0.3,0
				C20.7,16,21.3,16,21.9,16z"/>
			<path d="M21.8,18.4c0.6,0,1.2,0,1.9,0c0.3,0,0.5,0.1,0.5,0.4c0,0.2-0.2,0.4-0.5,0.4c-1.2,0-2.5,0-3.7,0c-0.3,0-0.5-0.2-0.5-0.4
				c0-0.2,0.2-0.4,0.5-0.4C20.6,18.4,21.2,18.4,21.8,18.4z"/>
		</g>
	</g>
</g>
</svg>
