<?xml version="1.0" encoding="utf-8"?>
<!-- Generator: Adobe Illustrator 25.4.3, SVG Export Plug-In . SVG Version: 6.00 Build 0)  -->
<svg version="1.1" id="Capa_1" xmlns="http://www.w3.org/2000/svg" xmlns:xlink="http://www.w3.org/1999/xlink" x="0px" y="0px"
	 viewBox="0 0 54 54" style="enable-background:new 0 0 54 54;" xml:space="preserve">
<style type="text/css">
	.st0{fill:#FFFF00;}
</style>
<g>
	<circle class="st0" cx="27" cy="27" r="26.5"/>
	<g id="yDcesn.tif">
		<g>
			<g>
				<g>
					<path d="M32,14c0.1,0.1,0.2,0.2,0.3,0.3c1.6,1.6,3.2,3.2,4.7,4.7c0.2,0.2,0.3,0.4,0.3,0.7c0,2.4,0,4.8,0,7.2c0,0.1,0,0.2,0,0.3
						l0,0c0-0.1,0.1-0.1,0.1-0.2c0.6-1.4,1.2-2.9,1.8-4.3c0.3-0.7,0.8-0.9,1.5-0.6c0.5,0.2,1,0.4,1.5,0.6c0.7,0.3,0.9,0.8,0.6,1.5
						c-0.7,1.7-3.5,8.6-4.2,10.3c0,0.1-0.1,0.2-0.1,0.2c-0.1,0.2-0.3,0.2-0.4,0.1c-0.1-0.1-0.2-0.2-0.2-0.4c0-0.1,0-0.2,0.1-0.3
						c0.4-0.9,2.9-7.1,3.2-7.9c-0.7-0.3-1.4-0.6-2.1-0.9c-1.1,2.7-2.2,5.4-3.3,8.1c0.7,0.3,1.4,0.6,2.1,0.9c0-0.1,0.1-0.2,0.1-0.3
						c0.5-1.2,0.9-2.3,1.4-3.5c0-0.1,0.1-0.2,0.1-0.3c0.1-0.1,0.3-0.1,0.4-0.1c0.2,0,0.3,0.2,0.3,0.4c0,0.1,0,0.2-0.1,0.2
						c-0.5,1.3-1.1,2.7-1.6,4c-0.1,0.2-0.3,0.5-0.5,0.6c-0.5,0.4-0.7,0.8-0.6,1.5c0.1,0.9,0,1.7,0,2.6c0,0.5-0.1,0.6-0.6,0.6
						c-6.4,0-12.8,0-19.2,0c-0.5,0-0.6-0.1-0.6-0.6c0-6.8,0-15.6,0-22.4c0-0.4,0.1-0.6,0.4-0.6s0.4,0.2,0.4,0.6c0,6.6,0,15.2,0,21.8
						c0,0.1,0,0.2,0,0.3c6.3,0,12.5,0,18.8,0c0-0.8,0-1.7,0-2.6c-0.3,0.2-0.5,0.5-0.8,0.7c-0.1,0.1-0.3,0.3-0.5,0.2
						s-0.2-0.3-0.2-0.5c-0.1-1.1-0.1-2.3-0.2-3.4c0-0.2,0-0.4,0.1-0.5c0.5-1.2,1-2.5,1.5-3.7c0-0.1,0.1-0.2,0.1-0.4c0-3,0-6,0-9
						c0-0.1,0-0.1,0-0.2c-0.1,0-0.2,0-0.3,0c-1.4,0-2.8,0-4.2,0c-0.5,0-0.6-0.1-0.6-0.6c0-1.4,0-2.8,0-4.2c0-0.1,0-0.2,0-0.3
						c-4.6,0-9.1,0-13.7,0c0,0.1,0,0.2,0,0.3c0,0.7,0,1.4,0,2.2c0,0.3-0.1,0.5-0.4,0.5s-0.4,0-0.4-0.3c0-0.9,0-1.9,0-2.8
						c0-0.2,0.1-0.4,0.3-0.5C22.2,14,27.1,14,32,14z M35.9,19.1c-1.2-1.2-2.4-2.4-3.6-3.6c0,1.2,0,2.4,0,3.6
						C33.5,19.1,34.8,19.1,35.9,19.1z M39.4,24.6c0.7,0.3,1.4,0.6,2.1,0.9c0.2-0.6,0.5-1.2,0.7-1.7c0.1-0.2,0-0.3-0.2-0.3
						c-0.5-0.2-1.1-0.4-1.6-0.7c-0.2-0.1-0.3,0-0.4,0.2C39.8,23.5,39.6,24,39.4,24.6z M35.7,34.2c0,0.7,0.1,1.4,0.1,2.2
						c0.6-0.5,1.1-1,1.6-1.5C36.8,34.7,36.3,34.4,35.7,34.2z"/>
					<path d="M19.6,29.9c0-0.5,0-0.9,0-1.4c0-0.4,0.1-0.5,0.5-0.5c0.8,0,1.7,0,2.5,0c0.3,0,0.4-0.1,0.6-0.3c0-0.1,0.1-0.1,0.2-0.2
						c0.2-0.2,0.4-0.2,0.6-0.1s0.2,0.4,0,0.5c-0.1,0.2-0.3,0.3-0.4,0.5c-0.1,0.1-0.1,0.3-0.1,0.4c0,0.8,0,1.5,0,2.3
						c0,0.5-0.1,0.6-0.6,0.6c-0.9,0-1.8,0-2.7,0c-0.5,0-0.6-0.1-0.6-0.6C19.6,30.8,19.6,30.3,19.6,29.9z M20.4,28.8
						c0,0.8,0,1.5,0,2.2c0.8,0,1.5,0,2.2,0c0-0.4,0-0.8,0-1.3l0,0c-0.1,0.2-0.3,0.4-0.4,0.5c-0.2,0.3-0.4,0.3-0.7,0
						c-0.2-0.2-0.4-0.4-0.7-0.6c-0.2-0.2-0.2-0.4,0-0.6s0.4-0.2,0.6,0c0.1,0.1,0.2,0.3,0.4,0.4c0.2-0.3,0.4-0.5,0.6-0.8
						C21.7,28.8,21,28.8,20.4,28.8z"/>
					<path d="M21.5,26.7c-0.5,0-0.9,0-1.4,0c-0.4,0-0.5-0.1-0.5-0.5c0-0.9,0-1.9,0-2.8c0-0.4,0.1-0.5,0.5-0.5c0.9,0,1.7,0,2.6,0
						c0.2,0,0.3,0,0.4-0.2c0.1-0.1,0.1-0.2,0.2-0.3c0.2-0.2,0.4-0.2,0.5-0.1c0.2,0.1,0.2,0.3,0.1,0.5s-0.3,0.3-0.4,0.5
						c-0.1,0.1-0.2,0.3-0.2,0.5c0,0.8,0,1.5,0,2.3c0,0.5-0.1,0.6-0.6,0.6C22.4,26.7,22,26.7,21.5,26.7z M20.4,23.7
						c0,0.7,0,1.4,0,2.1c0,0.2,0.1,0.2,0.2,0.2c0.5,0,1.1,0,1.6,0c0.1,0,0.3,0,0.4,0c0-0.5,0-0.9,0-1.3c-0.2,0.2-0.3,0.4-0.5,0.6
						s-0.4,0.2-0.6,0s-0.5-0.4-0.7-0.7c-0.2-0.2-0.2-0.4,0-0.6s0.4-0.2,0.6,0c0.1,0.1,0.2,0.3,0.4,0.4c0.2-0.3,0.4-0.5,0.6-0.8
						C21.7,23.7,21,23.7,20.4,23.7z"/>
					<path d="M23.4,35c0,0.5,0,0.9,0,1.4c0,0.4-0.1,0.5-0.5,0.5c-0.9,0-1.9,0-2.8,0c-0.4,0-0.5-0.1-0.5-0.5c0-0.9,0-1.8,0-2.8
						c0-0.4,0.1-0.5,0.5-0.5c0.9,0,1.8,0,2.8,0c0.4,0,0.5,0.1,0.5,0.5C23.4,34.1,23.4,34.5,23.4,35z M22.6,33.8c-0.7,0-1.4,0-2,0
						c-0.2,0-0.2,0.1-0.2,0.2c0,0.6,0,1.2,0,1.9c0,0.1,0,0.1,0,0.2c0.8,0,1.5,0,2.2,0C22.6,35.3,22.6,34.6,22.6,33.8z"/>
					<path d="M29.9,34.4c-1.3,0-2.6,0-3.9,0c-0.1,0-0.2,0-0.3,0c-0.2,0-0.3-0.2-0.3-0.3c0-0.2,0.1-0.3,0.3-0.4c0.1,0,0.2,0,0.3,0
						c2.6,0,5.3,0,7.9,0c0.1,0,0.2,0,0.3,0c0.2,0,0.3,0.2,0.3,0.4s-0.1,0.3-0.3,0.4c-0.1,0-0.2,0-0.3,0
						C32.5,34.4,31.2,34.4,29.9,34.4z"/>
					<path d="M29.9,29.3c-1.3,0-2.6,0-3.9,0c-0.1,0-0.2,0-0.3,0c-0.2,0-0.3-0.1-0.3-0.3c0-0.2,0.1-0.3,0.3-0.4c0.1,0,0.2,0,0.3,0
						c2.6,0,5.3,0,7.9,0c0.1,0,0.1,0,0.2,0c0.3,0,0.4,0.2,0.4,0.4c0,0.2-0.2,0.4-0.4,0.4c-0.6,0-1.2,0-1.8,0
						C31.4,29.3,30.6,29.3,29.9,29.3z"/>
					<path d="M29.8,24.3c-1.3,0-2.6,0-3.9,0c-0.4,0-0.6-0.1-0.6-0.4s0.2-0.4,0.6-0.4c2.6,0,5.3,0,7.9,0h0.1c0.3,0,0.5,0.1,0.5,0.4
						c0,0.2-0.2,0.4-0.5,0.4c-1.2,0-2.4,0-3.6,0C30.1,24.3,30,24.3,29.8,24.3z"/>
					<path d="M29.3,35.5c1.1,0,2.2,0,3.3,0c0.1,0,0.2,0,0.3,0c0.1,0.1,0.2,0.2,0.3,0.3c0.1,0.2-0.1,0.3-0.2,0.4c-0.1,0-0.2,0-0.3,0
						c-2.2,0-4.4,0-6.7,0c-0.1,0-0.1,0-0.2,0c-0.2,0-0.4-0.2-0.4-0.4s0.2-0.4,0.4-0.4c0.3,0,0.6,0,0.9,0
						C27.5,35.5,28.4,35.5,29.3,35.5z"/>
					<path d="M29.1,25.4c1.1,0,2.1,0,3.2,0c0.1,0,0.3,0,0.4,0.1c0.2,0.2,0.1,0.5-0.2,0.6c-0.1,0-0.2,0-0.3,0c-2.1,0-4.2,0-6.3,0
						c-0.1,0-0.1,0-0.2,0c-0.2,0-0.4-0.2-0.4-0.4c0-0.2,0.2-0.4,0.4-0.4c0.8,0,1.5,0,2.3,0C28.4,25.4,28.7,25.4,29.1,25.4z"/>
					<path d="M27.5,19c-0.7,0-1.5,0-2.2,0c-0.1,0-0.2,0-0.3,0c-0.2,0-0.3-0.2-0.3-0.3c0-0.1,0.1-0.3,0.2-0.4s0.2,0,0.3,0
						c1.5,0,3,0,4.5,0c0.1,0,0.1,0,0.2,0c0.2,0,0.3,0.2,0.3,0.4c0,0.2-0.1,0.4-0.4,0.4c-0.2,0-0.5,0-0.7,0C28.6,19,28,19,27.5,19z"
						/>
					<path d="M27,30.4c0.4,0,0.8,0,1.2,0c0.3,0,0.4,0.2,0.4,0.4c0,0.2-0.2,0.4-0.4,0.4c-0.8,0-1.6,0-2.4,0c-0.3,0-0.4-0.2-0.4-0.4
						c0-0.2,0.2-0.4,0.5-0.4S26.6,30.4,27,30.4z"/>
				</g>
			</g>
		</g>
	</g>
</g>
</svg>
