<?xml version="1.0" encoding="utf-8"?>
<!-- Generator: Adobe Illustrator 26.3.1, SVG Export Plug-In . SVG Version: 6.00 Build 0)  -->
<svg version="1.1" id="Capa_1" xmlns="http://www.w3.org/2000/svg" xmlns:xlink="http://www.w3.org/1999/xlink" x="0px" y="0px"
	 viewBox="0 0 253.8 248.5" style="enable-background:new 0 0 253.8 248.5;" xml:space="preserve">
<style type="text/css">
	.st0{fill:#EFEFEF;}
	.st1{fill:#159FCA;}
	.st2{fill:#F5F0EC;}
	.st3{fill:#AEEDF0;}
	.st4{fill:#D6C3B6;}
	.st5{fill:#2A2B2B;}
	.st6{fill:#ED2D07;}
	.st7{fill:#FC6C61;}
	.st8{fill:#FDC807;}
	.st9{fill:#FDC957;}
	.st10{fill:#333333;}
	.st11{fill:#F57B0F;}
	.st12{fill:#F0B747;}
	.st13{fill:#686868;}
	.st14{fill:#FFFFFF;}
</style>
<g>
	<rect y="0" transform="matrix(-1 -1.224647e-16 1.224647e-16 -1 253.75 248.5026)" class="st0" width="253.8" height="248.5"/>
	<g>
		<circle class="st1" cx="126.9" cy="124.3" r="85.1"/>
		<g>
			<g>
				<path class="st2" d="M156.9,88.3v76.4c0,4.9-4,8.9-8.9,8.9h-3.9c-4.9,0-8.9-4-8.9-8.9v-16H90.2V88.3H156.9z"/>
				<path class="st3" d="M90.2,173.6L90.2,173.6h54c0,0,0,0,0,0H90.2z"/>
				<path class="st4" d="M135.3,164.7v-16l-66.8,0v16c0,4.9,4,8.9,8.9,8.9h66.7C139.2,173.6,135.3,169.6,135.3,164.7z"/>
				<rect x="103.7" y="97.7" class="st4" width="39.8" height="4.2"/>
				<rect x="103.7" y="110.2" class="st4" width="39.8" height="4.2"/>
				<rect x="103.7" y="122.7" class="st4" width="39.8" height="4.2"/>
				<rect x="103.7" y="135.2" class="st4" width="39.8" height="4.2"/>
				<rect x="90.2" y="74.8" class="st5" width="66.8" height="7.4"/>
				<rect x="90.2" y="82.2" class="st6" width="66.8" height="6.1"/>
			</g>
			<g>
				<path class="st7" d="M176.5,78.5c0.7-1.5,2.6-2.2,4.2-1.4l2.7,1.3c1.6,0.8,2.3,2.6,1.6,4.2L180,93.4c-0.7,1.5-2.6,2.2-4.2,1.4
					l-2.7-1.3c-1.6-0.8-2.3-2.6-1.6-4.2L176.5,78.5z"/>
				<g>
					<polygon class="st8" points="149.5,147 173.6,95.8 177.9,97.8 153.1,150.4 152.5,148.5 150.3,149 					"/>
					<polygon class="st9" points="146.1,154.1 149.5,147 150.3,149 152.5,148.5 153.1,150.4 147.5,154.7 					"/>
					<polygon class="st10" points="144.8,156.9 147.5,154.7 144.7,153.4 					"/>
					<polygon class="st11" points="144.5,146.4 169.3,93.8 173.6,95.8 149.5,147 147.4,147.7 146.6,145.7 					"/>
					<polygon class="st12" points="144.5,146.4 146.6,145.7 147.4,147.7 149.5,147 146.1,154.1 144.7,153.4 					"/>
				</g>
				
					<rect x="170.8" y="86.5" transform="matrix(0.4265 -0.9045 0.9045 0.4265 18.2231 211.3134)" class="st13" width="10" height="9.5"/>
			</g>
		</g>
	</g>
	<g>
		<polyline class="st14" points="0,20.4 0,0 19.3,0 		"/>
		<polyline class="st14" points="0,13.4 0,0 12.7,0 		"/>
	</g>
	<g>
		<polyline points="0,10.6 0,0 10,0 		"/>
		<polyline points="0,6.9 0,0 6.6,0 		"/>
	</g>
</g>
</svg>
