<?xml version="1.0" encoding="utf-8"?>
<!-- Generator: Adobe Illustrator 26.0.3, SVG Export Plug-In . SVG Version: 6.00 Build 0)  -->
<svg version="1.1" id="Capa_1" xmlns="http://www.w3.org/2000/svg" xmlns:xlink="http://www.w3.org/1999/xlink" x="0px" y="0px"
	 viewBox="0 0 93.16 45.03" style="enable-background:new 0 0 93.16 45.03;" xml:space="preserve">
<path d="M91.08,23.21c-0.57,0.82-1.03,1.74-1.73,2.44c-5.72,5.74-11.48,11.43-17.24,17.14c-1.53,1.52-3.53,1.66-4.98,0.37
	c-1.54-1.38-1.58-3.62-0.04-5.15c3.75-3.74,7.51-7.47,11.26-11.2c0.22-0.22,0.43-0.45,0.78-0.82c-0.5,0-0.84,0-1.17,0
	c-23.98,0-47.97,0-71.95,0c-1.97,0-3.28-0.84-3.78-2.43c-0.67-2.13,0.81-4.33,3.04-4.5c0.35-0.03,0.69-0.01,1.04-0.01
	c23.87,0,47.74,0,71.6,0c0.34,0,0.68,0,1.19,0c-0.31-0.34-0.51-0.57-0.72-0.78c-3.59-3.57-7.09-7.24-10.81-10.67
	c-2.2-2.02-2.28-5.33,1.07-6.59c0.52,0,1.04,0,1.56,0C71.07,1.63,72,2.17,72.75,2.9c5.56,5.47,11.1,10.96,16.61,16.49
	c0.69,0.69,1.16,1.62,1.73,2.43C91.08,22.28,91.08,22.75,91.08,23.21z"/>
</svg>
