<?xml version="1.0" encoding="utf-8"?>
<!-- Generator: Adobe Illustrator 25.4.3, SVG Export Plug-In . SVG Version: 6.00 Build 0)  -->
<svg version="1.1" id="Layer_1" xmlns="http://www.w3.org/2000/svg" xmlns:xlink="http://www.w3.org/1999/xlink" x="0px" y="0px"
	 viewBox="0 0 43 43" style="enable-background:new 0 0 43 43;" xml:space="preserve">
<style type="text/css">
	.st0{fill:#FFFF00;}
	.st1{fill:#004D37;}
</style>
<circle class="st0" cx="21.5" cy="21.5" r="18.5"/>
<path class="st1" d="M21.5,43C9.6,43,0,33.4,0,21.5S9.6,0,21.5,0S43,9.6,43,21.5S33.4,43,21.5,43z M21.5,2C10.7,2,2,10.7,2,21.5
	S10.7,41,21.5,41S41,32.3,41,21.5S32.3,2,21.5,2z"/>
<path class="st1" d="M16.8,31.1c-0.3,0-0.7-0.1-0.9-0.4L9.6,24l1.8-1.7l5.4,5.7l14.7-15.7l1.8,1.7L17.8,30.7
	C17.5,30.9,17.2,31.1,16.8,31.1L16.8,31.1z"/>
</svg>
