<?xml version="1.0" encoding="utf-8"?>
<!-- Generator: Adobe Illustrator 25.4.3, SVG Export Plug-In . SVG Version: 6.00 Build 0)  -->
<svg version="1.1" id="Layer_1" xmlns="http://www.w3.org/2000/svg" xmlns:xlink="http://www.w3.org/1999/xlink" x="0px" y="0px"
	 viewBox="0 0 38 44" style="enable-background:new 0 0 38 44;" xml:space="preserve">
<style type="text/css">
	.st0{fill:#FFFF00;}
	.st1{fill:#FFFFFF;}
</style>
<circle class="st0" cx="19" cy="22" r="18.5"/>
<circle class="st1" cx="10" cy="21" r="2.5"/>
<path d="M28,36c0.6,0,1-0.4,1-1V6h6c1.7,0,3-1.3,3-3V1c0-0.6-0.4-1-1-1H1C0.4,0,0,0.4,0,1v2c0,1.7,1.3,3,3,3v32c-1.7,0-3,1.3-3,3v2
	c0,0.6,0.4,1,1,1h36c0.6,0,1-0.4,1-1v-2c0-1.7-1.3-3-3-3V9c0-0.6-0.4-1-1-1s-1,0.4-1,1v30c0,0.6,0.4,1,1,1h1c0.6,0,1,0.4,1,1v1H2v-1
	c0-0.6,0.4-1,1-1h27c0.6,0,1-0.4,1-1s-0.4-1-1-1h-7V6h4v29C27,35.6,27.4,36,28,36z M2,3V2h34v1c0,0.6-0.4,1-1,1H8C7.4,4,7,4.4,7,5
	s0.4,1,1,1h1v8H5V5c0-0.6-0.4-1-1-1H3C2.4,4,2,3.6,2,3z M5,28V16h10v12H5z M15,14h-4V6h4V14z M21,38H5v-8h4v5c0,0.6,0.4,1,1,1
	s1-0.4,1-1v-5h4v5c0,0.6,0.4,1,1,1s1-0.4,1-1V6h4V38z"/>
<path d="M10,18c-1.7,0-3,1.3-3,3c0,1.3,0.8,2.4,2,2.8c0,0.1,0,0.1,0,0.2v1c0,0.6,0.4,1,1,1s1-0.4,1-1v-1c0-0.1,0-0.1,0-0.2
	c1.6-0.5,2.4-2.3,1.8-3.8C12.4,18.8,11.3,18,10,18z M10,22c-0.6,0-1-0.4-1-1s0.4-1,1-1s1,0.4,1,1S10.6,22,10,22z"/>
</svg>
