<svg xmlns="http://www.w3.org/2000/svg" xmlns:xlink="http://www.w3.org/1999/xlink" width="150" zoomAndPan="magnify" viewBox="0 0 112.5 112.499997" height="150" preserveAspectRatio="xMidYMid meet" version="1.0"><defs><clipPath id="176dbdfecc"><path d="M 0 0 L 112.003906 0 L 112.003906 112.003906 L 0 112.003906 Z M 0 0 " clip-rule="nonzero"/></clipPath><clipPath id="cd93ab7dc0"><path d="M 11.25 65 L 95 65 L 95 98.988281 L 11.25 98.988281 Z M 11.25 65 " clip-rule="nonzero"/></clipPath><clipPath id="6d32b4aa87"><path d="M 35 17.238281 L 101.25 17.238281 L 101.25 68 L 35 68 Z M 35 17.238281 " clip-rule="nonzero"/></clipPath><clipPath id="fa34ec5561"><path d="M 33.03125 17.238281 L 101.28125 17.238281 L 101.28125 58.488281 L 33.03125 58.488281 Z M 33.03125 17.238281 " clip-rule="nonzero"/></clipPath><clipPath id="f33f778431"><path d="M 53.617188 0 L 81.367188 0 L 81.367188 68.214844 L 53.617188 68.214844 Z M 53.617188 0 " clip-rule="nonzero"/></clipPath><clipPath id="e2b8052131"><path d="M 45 25.015625 L 88 25.015625 L 88 59.515625 L 45 59.515625 Z M 45 25.015625 " clip-rule="nonzero"/></clipPath></defs><g clip-path="url(#176dbdfecc)"><path fill="#ffffff" d="M 0 0 L 112.5 0 L 112.5 120 L 0 120 Z M 0 0 " fill-opacity="1" fill-rule="nonzero"/><path fill="#ffffff" d="M 0 0 L 112.5 0 L 112.5 112.5 L 0 112.5 Z M 0 0 " fill-opacity="1" fill-rule="nonzero"/><path fill="#ffff00" d="M 0 0 L 112.5 0 L 112.5 112.5 L 0 112.5 Z M 0 0 " fill-opacity="1" fill-rule="nonzero"/></g><g clip-path="url(#cd93ab7dc0)"><path fill="#000000" d="M 91.195312 68.613281 C 89.4375 67.699219 87.328125 67.839844 85.640625 69.039062 L 73.828125 78.058594 C 72.632812 76.648438 70.101562 76.015625 67.359375 75.378906 C 63.703125 74.535156 58.710938 73.40625 53.085938 70.234375 C 46.617188 66.640625 41.34375 66.851562 37.6875 68.050781 C 36.984375 66.289062 35.367188 65.089844 33.398438 65.089844 L 19.6875 65.089844 C 18.914062 65.089844 18.28125 65.726562 18.28125 66.5 C 18.28125 67.277344 18.914062 67.910156 19.6875 67.910156 L 26.71875 67.910156 L 26.71875 93.28125 L 12.65625 93.28125 C 11.882812 93.28125 11.25 93.914062 11.25 94.691406 C 11.25 95.464844 11.882812 96.097656 12.65625 96.097656 L 33.398438 96.097656 C 35.4375 96.097656 37.195312 94.691406 37.757812 92.859375 L 42.609375 91.308594 C 43.242188 91.097656 43.945312 91.167969 44.578125 91.449219 L 59.554688 98.355469 C 60.46875 98.777344 61.453125 98.988281 62.4375 98.988281 C 63.773438 98.988281 65.109375 98.636719 66.234375 97.863281 C 66.234375 97.863281 66.304688 97.789062 66.304688 97.789062 L 91.757812 78.339844 C 93.375 77.210938 94.359375 75.378906 94.21875 73.335938 C 94.078125 71.292969 93.023438 69.53125 91.195312 68.613281 Z M 35.15625 91.449219 C 35.15625 92.503906 34.382812 93.351562 33.398438 93.351562 L 29.53125 93.351562 L 29.53125 67.980469 L 33.398438 67.980469 C 34.382812 67.980469 35.15625 68.824219 35.15625 69.882812 Z M 90.140625 76.015625 C 90.140625 76.015625 90.070312 76.085938 90.070312 76.085938 L 64.6875 95.535156 C 63.492188 96.3125 62.015625 96.382812 60.75 95.816406 L 45.773438 88.910156 C 44.507812 88.347656 43.101562 88.207031 41.765625 88.699219 L 37.96875 89.828125 L 37.96875 70.941406 C 41.0625 69.742188 45.632812 69.390625 51.679688 72.773438 C 57.65625 76.085938 62.859375 77.28125 66.726562 78.199219 C 71.015625 79.1875 71.859375 79.609375 71.71875 80.453125 C 71.507812 81.652344 70.734375 82.640625 69.46875 83.34375 C 66.09375 85.105469 60.1875 84.1875 53.71875 80.949219 C 53.015625 80.59375 52.171875 80.878906 51.820312 81.582031 C 51.46875 82.285156 51.75 83.132812 52.453125 83.484375 C 57.164062 85.808594 61.523438 87.078125 65.25 87.078125 C 67.359375 87.078125 69.1875 86.65625 70.734375 85.878906 C 72.773438 84.824219 74.039062 83.203125 74.460938 81.230469 L 87.398438 71.363281 C 88.171875 70.800781 89.15625 70.730469 90 71.222656 C 90.84375 71.644531 91.40625 72.5625 91.476562 73.617188 C 91.476562 74.464844 90.984375 75.449219 90.140625 76.015625 Z M 90.140625 76.015625 " fill-opacity="1" fill-rule="nonzero"/></g><g clip-path="url(#6d32b4aa87)"><path fill="#000000" d="M 99.84375 44.019531 L 97.804688 44.019531 L 91.6875 26.046875 C 92.8125 25.132812 93.585938 23.722656 93.585938 22.171875 C 93.585938 19.421875 91.40625 17.238281 88.664062 17.238281 C 86.414062 17.238281 84.585938 18.71875 83.953125 20.761719 L 72.914062 20.761719 C 72.28125 18.71875 70.453125 17.238281 68.203125 17.238281 C 65.953125 17.238281 64.125 18.71875 63.492188 20.761719 L 52.523438 20.761719 C 51.890625 18.71875 50.0625 17.238281 47.8125 17.238281 C 45.070312 17.238281 42.890625 19.421875 42.890625 22.171875 C 42.890625 23.722656 43.59375 25.132812 44.789062 26.046875 L 38.601562 44.019531 L 36.5625 44.019531 C 35.789062 44.019531 35.15625 44.652344 35.15625 45.429688 C 35.15625 52.40625 40.851562 58.113281 47.8125 58.113281 C 54.773438 58.113281 60.46875 52.40625 60.46875 45.429688 C 60.46875 44.652344 59.835938 44.019531 59.0625 44.019531 L 57.023438 44.019531 L 50.90625 26.046875 C 51.679688 25.414062 52.3125 24.566406 52.59375 23.582031 L 63.5625 23.582031 C 64.054688 25.203125 65.320312 26.402344 66.867188 26.894531 L 66.867188 53.886719 L 61.945312 53.886719 C 60.398438 53.886719 59.132812 55.152344 59.132812 56.703125 L 59.132812 59.523438 L 58.429688 59.523438 C 56.882812 59.523438 55.617188 60.792969 55.617188 62.34375 L 55.617188 66.570312 C 55.617188 67.347656 56.25 67.980469 57.023438 67.980469 C 57.796875 67.980469 58.429688 67.347656 58.429688 66.570312 L 58.429688 62.34375 L 78.117188 62.34375 L 78.117188 66.570312 C 78.117188 67.347656 78.75 67.980469 79.523438 67.980469 C 80.296875 67.980469 80.929688 67.347656 80.929688 66.570312 L 80.929688 62.34375 C 80.929688 60.792969 79.664062 59.523438 78.117188 59.523438 L 77.414062 59.523438 L 77.414062 56.703125 C 77.414062 55.152344 76.148438 53.886719 74.601562 53.886719 L 69.679688 53.886719 L 69.679688 26.894531 C 71.296875 26.402344 72.492188 25.132812 72.984375 23.582031 L 83.953125 23.582031 C 84.234375 24.566406 84.867188 25.414062 85.640625 26.046875 L 79.382812 44.019531 L 77.34375 44.019531 C 76.570312 44.019531 75.9375 44.652344 75.9375 45.429688 C 75.9375 52.40625 81.632812 58.113281 88.59375 58.113281 C 95.554688 58.113281 101.25 52.40625 101.25 45.429688 C 101.25 44.652344 100.617188 44.019531 99.84375 44.019531 Z M 47.8125 20.058594 C 49.007812 20.058594 49.921875 20.972656 49.921875 22.171875 C 49.921875 23.371094 49.007812 24.285156 47.8125 24.285156 C 46.617188 24.285156 45.703125 23.371094 45.703125 22.171875 C 45.703125 20.972656 46.617188 20.058594 47.8125 20.058594 Z M 57.585938 46.839844 C 56.882812 51.628906 52.804688 55.296875 47.8125 55.296875 C 42.820312 55.296875 38.742188 51.628906 38.039062 46.839844 Z M 54 44.019531 L 41.625 44.019531 L 47.390625 27.105469 C 47.53125 27.105469 47.671875 27.105469 47.8125 27.105469 C 47.953125 27.105469 48.09375 27.105469 48.234375 27.105469 Z M 74.53125 56.703125 L 74.53125 59.523438 L 61.875 59.523438 L 61.875 56.703125 Z M 68.203125 24.285156 C 67.007812 24.285156 66.09375 23.371094 66.09375 22.171875 C 66.09375 20.972656 67.007812 20.058594 68.203125 20.058594 C 69.398438 20.058594 70.3125 20.972656 70.3125 22.171875 C 70.3125 23.371094 69.398438 24.285156 68.203125 24.285156 Z M 88.59375 20.058594 C 89.789062 20.058594 90.703125 20.972656 90.703125 22.171875 C 90.703125 23.371094 89.789062 24.285156 88.59375 24.285156 C 87.398438 24.285156 86.484375 23.371094 86.484375 22.171875 C 86.484375 20.972656 87.398438 20.058594 88.59375 20.058594 Z M 88.171875 27.105469 C 88.3125 27.105469 88.453125 27.105469 88.59375 27.105469 C 88.734375 27.105469 88.875 27.105469 89.015625 27.105469 L 94.78125 44.019531 L 82.335938 44.019531 Z M 88.59375 55.296875 C 83.671875 55.296875 79.523438 51.628906 78.820312 46.839844 L 98.296875 46.839844 C 97.664062 51.628906 93.515625 55.296875 88.59375 55.296875 Z M 88.59375 55.296875 " fill-opacity="1" fill-rule="nonzero"/></g><g clip-path="url(#fa34ec5561)"><path fill="#ffff00" d="M 33.03125 17.238281 L 101.28125 17.238281 L 101.28125 58.488281 L 33.03125 58.488281 L 33.03125 17.238281 " fill-opacity="1" fill-rule="nonzero"/></g><g clip-path="url(#f33f778431)"><path fill="#ffff00" d="M 53.617188 68.214844 L 53.617188 -0.0351562 L 81.367188 -0.0351562 L 81.367188 68.214844 L 53.617188 68.214844 " fill-opacity="1" fill-rule="nonzero"/></g><g clip-path="url(#e2b8052131)"><path fill="#000000" d="M 84.273438 25.574219 C 84.199219 25.394531 84.085938 25.253906 83.925781 25.144531 C 83.765625 25.039062 83.589844 24.984375 83.394531 24.984375 L 49.675781 24.984375 C 49.484375 24.984375 49.308594 25.039062 49.148438 25.144531 C 48.988281 25.253906 48.871094 25.394531 48.800781 25.574219 L 45.472656 33.855469 C 45.191406 34.457031 45.066406 35.089844 45.101562 35.753906 C 45.140625 36.417969 45.332031 37.035156 45.679688 37.605469 C 45.945312 37.976562 46.277344 38.277344 46.679688 38.5 L 46.679688 58.515625 C 46.679688 58.773438 46.773438 58.992188 46.957031 59.171875 C 47.140625 59.355469 47.363281 59.445312 47.625 59.445312 L 85.671875 59.445312 C 85.933594 59.445312 86.15625 59.355469 86.339844 59.171875 C 86.523438 58.992188 86.613281 58.773438 86.613281 58.515625 L 86.613281 38.402344 C 86.613281 38.386719 86.605469 38.375 86.605469 38.359375 C 86.914062 38.15625 87.179688 37.902344 87.390625 37.605469 C 87.742188 37.035156 87.933594 36.417969 87.96875 35.753906 C 88.007812 35.089844 87.882812 34.457031 87.597656 33.855469 Z M 82.757812 26.84375 L 85.847656 34.539062 C 86.191406 35.214844 86.183594 35.886719 85.832031 36.558594 C 85.53125 36.945312 85.132812 37.125 84.640625 37.089844 C 84.203125 37.042969 83.789062 36.933594 83.386719 36.765625 C 82.984375 36.59375 82.617188 36.367188 82.285156 36.089844 C 81.953125 35.8125 81.667969 35.488281 81.433594 35.125 C 81.199219 34.765625 81.023438 34.375 80.90625 33.960938 L 79 26.84375 Z M 77.050781 26.84375 L 79.082031 34.4375 C 79.320312 35.160156 79.222656 35.835938 78.792969 36.464844 C 78.4375 36.90625 77.972656 37.117188 77.398438 37.089844 C 76.996094 37.054688 76.613281 36.957031 76.25 36.792969 C 75.882812 36.628906 75.554688 36.410156 75.265625 36.132812 C 74.976562 35.859375 74.738281 35.546875 74.554688 35.195312 C 74.371094 34.839844 74.253906 34.46875 74.199219 34.074219 L 73.230469 26.84375 Z M 71.753906 36.382812 C 71.332031 36.863281 70.796875 37.097656 70.15625 37.089844 C 69.789062 37.070312 69.433594 36.980469 69.101562 36.820312 C 68.765625 36.664062 68.472656 36.449219 68.222656 36.179688 C 67.972656 35.910156 67.785156 35.601562 67.65625 35.261719 C 67.527344 34.917969 67.46875 34.5625 67.480469 34.199219 L 67.480469 26.84375 L 71.332031 26.84375 L 72.332031 34.320312 C 72.453125 35.09375 72.261719 35.78125 71.753906 36.382812 Z M 65.59375 34.199219 C 65.605469 34.5625 65.546875 34.917969 65.417969 35.261719 C 65.289062 35.601562 65.101562 35.910156 64.851562 36.179688 C 64.601562 36.449219 64.308594 36.664062 63.972656 36.820312 C 63.636719 36.980469 63.285156 37.070312 62.917969 37.089844 C 62.273438 37.097656 61.742188 36.863281 61.320312 36.382812 C 60.8125 35.78125 60.621094 35.09375 60.742188 34.320312 L 61.742188 26.84375 L 65.59375 26.84375 Z M 58.875 34.074219 C 58.820312 34.46875 58.699219 34.839844 58.519531 35.195312 C 58.335938 35.546875 58.097656 35.859375 57.808594 36.132812 C 57.515625 36.40625 57.191406 36.625 56.824219 36.789062 C 56.457031 36.953125 56.074219 37.054688 55.675781 37.089844 C 55.101562 37.117188 54.636719 36.90625 54.28125 36.464844 C 53.847656 35.835938 53.753906 35.160156 53.988281 34.433594 L 56.023438 26.84375 L 59.84375 26.84375 Z M 47.226562 34.539062 L 50.316406 26.84375 L 54.074219 26.84375 L 52.167969 33.960938 C 52.050781 34.375 51.875 34.765625 51.640625 35.125 C 51.402344 35.488281 51.121094 35.8125 50.789062 36.089844 C 50.453125 36.367188 50.085938 36.59375 49.6875 36.765625 C 49.285156 36.933594 48.867188 37.042969 48.433594 37.089844 C 47.941406 37.125 47.542969 36.945312 47.238281 36.558594 C 46.886719 35.886719 46.882812 35.214844 47.226562 34.539062 Z M 69.664062 57.585938 L 69.664062 47.875 L 75.203125 47.875 L 75.203125 57.585938 Z M 77.085938 57.585938 L 77.085938 46.941406 C 77.085938 46.6875 76.992188 46.46875 76.808594 46.285156 C 76.625 46.105469 76.402344 46.011719 76.144531 46.011719 L 68.71875 46.011719 C 68.460938 46.011719 68.238281 46.105469 68.054688 46.285156 C 67.871094 46.46875 67.777344 46.6875 67.777344 46.941406 L 67.777344 57.585938 L 53.328125 57.585938 L 53.328125 42.582031 L 79.96875 42.582031 L 79.96875 57.585938 Z M 84.730469 57.585938 L 81.851562 57.585938 L 81.851562 41.652344 C 81.851562 41.394531 81.761719 41.175781 81.574219 40.996094 C 81.390625 40.8125 81.171875 40.722656 80.910156 40.722656 L 52.386719 40.722656 C 52.125 40.722656 51.902344 40.8125 51.71875 40.996094 C 51.535156 41.175781 51.445312 41.394531 51.445312 41.652344 L 51.445312 57.585938 L 48.566406 57.585938 L 48.566406 38.9375 C 49.3125 38.886719 50.019531 38.699219 50.691406 38.375 C 51.363281 38.050781 51.953125 37.617188 52.453125 37.070312 C 52.550781 37.253906 52.660156 37.429688 52.789062 37.597656 C 53.132812 38.035156 53.558594 38.375 54.070312 38.613281 C 54.578125 38.851562 55.113281 38.964844 55.675781 38.949219 C 56.425781 38.929688 57.136719 38.75 57.804688 38.417969 C 58.476562 38.082031 59.042969 37.625 59.507812 37.046875 C 59.625 37.246094 59.753906 37.433594 59.902344 37.609375 C 60.28125 38.039062 60.734375 38.371094 61.261719 38.605469 C 61.789062 38.839844 62.339844 38.957031 62.917969 38.949219 C 63.640625 38.9375 64.324219 38.757812 64.960938 38.417969 C 65.601562 38.078125 66.125 37.613281 66.535156 37.023438 C 66.949219 37.613281 67.472656 38.078125 68.109375 38.417969 C 68.75 38.757812 69.433594 38.9375 70.15625 38.949219 C 70.734375 38.957031 71.285156 38.839844 71.8125 38.605469 C 72.339844 38.371094 72.789062 38.039062 73.167969 37.609375 C 73.316406 37.433594 73.449219 37.246094 73.566406 37.046875 C 74.03125 37.625 74.597656 38.085938 75.269531 38.417969 C 75.9375 38.75 76.648438 38.929688 77.398438 38.949219 C 77.960938 38.964844 78.496094 38.851562 79.003906 38.613281 C 79.511719 38.375 79.941406 38.035156 80.285156 37.597656 C 80.414062 37.429688 80.523438 37.253906 80.621094 37.070312 C 81.136719 37.636719 81.742188 38.082031 82.4375 38.40625 C 83.132812 38.734375 83.867188 38.914062 84.640625 38.949219 C 84.671875 38.949219 84.699219 38.941406 84.730469 38.941406 Z M 84.730469 57.585938 " fill-opacity="1" fill-rule="nonzero"/></g><path fill="#000000" d="M 73.300781 51.121094 C 73.039062 51.121094 72.816406 51.210938 72.632812 51.394531 C 72.449219 51.574219 72.359375 51.792969 72.359375 52.050781 L 72.359375 53.308594 C 72.359375 53.566406 72.449219 53.785156 72.632812 53.964844 C 72.816406 54.148438 73.039062 54.238281 73.300781 54.238281 C 73.558594 54.238281 73.78125 54.148438 73.964844 53.964844 C 74.148438 53.785156 74.242188 53.566406 74.242188 53.308594 L 74.242188 52.050781 C 74.242188 51.792969 74.148438 51.574219 73.964844 51.394531 C 73.78125 51.210938 73.558594 51.121094 73.300781 51.121094 Z M 73.300781 51.121094 " fill-opacity="1" fill-rule="nonzero"/></svg>