<?xml version="1.0" encoding="utf-8"?>
<!-- Generator: Adobe Illustrator 26.3.1, SVG Export Plug-In . SVG Version: 6.00 Build 0)  -->
<svg version="1.1" id="Capa_1" xmlns="http://www.w3.org/2000/svg" xmlns:xlink="http://www.w3.org/1999/xlink" x="0px" y="0px"
	 viewBox="0 0 66.7 66.7" style="enable-background:new 0 0 66.7 66.7;" xml:space="preserve">
<g id="Eo3cG0.tif">
	<g>
		<path d="M9,65.3C9,44,9,22.7,9,1.3c10.9,0,21.8,0,32.7,0c0.1,0.2,0.3,0.4,0.4,0.5c5,5,10.1,10.1,15.1,15.1
			c0.3,0.3,0.5,0.6,0.5,1.1c0,15.5,0,31.1,0,46.6c0,0.2,0,0.4,0,0.7C41.4,65.3,25.2,65.3,9,65.3z M53.9,20.1c-5,0-10,0-15,0
			c0-5,0-10,0-14.9c-8.8,0-17.5,0-26.2,0c0,18.8,0,37.6,0,56.4c13.7,0,27.4,0,41.2,0C53.9,47.7,53.9,33.9,53.9,20.1z M42.7,16.3
			c2.8,0,5.6,0,8.3,0c-2.8-2.8-5.5-5.5-8.3-8.3C42.7,10.7,42.7,13.5,42.7,16.3z"/>
	</g>
</g>
</svg>
