<?xml version="1.0" encoding="utf-8"?>
<!-- Generator: Adobe Illustrator 25.4.3, SVG Export Plug-In . SVG Version: 6.00 Build 0)  -->
<svg version="1.1" id="Layer_1" xmlns="http://www.w3.org/2000/svg" xmlns:xlink="http://www.w3.org/1999/xlink" x="0px" y="0px"
	 viewBox="0 0 38 44" style="enable-background:new 0 0 38 44;" xml:space="preserve">
<style type="text/css">
	.st0{fill:#FFFF00;}
</style>
<circle class="st0" cx="19" cy="22" r="18.5"/>
<path d="M33,36H20V25h1v2c0,0.6,0.4,1,1,1s1-0.4,1-1v-6c0-0.6-0.4-1-1-1s-1,0.4-1,1v2h-4v-2c0-0.6-0.4-1-1-1s-1,0.4-1,1v6
	c0,0.6,0.4,1,1,1s1-0.4,1-1v-2h1v11h-8V19c0-5,4-9,9-9s9,4,9,9v14c0,0.6,0.4,1,1,1s1-0.4,1-1V19c0-6.1-4.9-11-11-11S8,12.9,8,19v18
	l0,0c0,0.6,0.4,1,1,1h24c0.6,0,1,0.4,1,1v3H4v-3c0-0.6,0.4-1,1-1s1-0.4,1-1s-0.4-1-1-1c-1.7,0-3,1.3-3,3v4c0,0.6,0.4,1,1,1h32
	c0.6,0,1-0.4,1-1v-4C36,37.3,34.7,36,33,36z"/>
<path d="M12,19c0,0.6,0.4,1,1,1s1-0.4,1-1c0-2.8,2.2-5,5-5c0.6,0,1-0.4,1-1s-0.4-1-1-1C15.1,12,12,15.1,12,19z"/>
<path d="M19,6c0.6,0,1-0.4,1-1V1c0-0.6-0.4-1-1-1s-1,0.4-1,1v4C18,5.6,18.4,6,19,6z"/>
<path d="M37,18h-4c-0.6,0-1,0.4-1,1s0.4,1,1,1h4c0.6,0,1-0.4,1-1S37.6,18,37,18z"/>
<path d="M6,19c0-0.6-0.4-1-1-1H1c-0.6,0-1,0.4-1,1s0.4,1,1,1h4C5.6,20,6,19.6,6,19z"/>
<path d="M8.4,9.8c0.4,0.4,1,0.4,1.4,0l0,0c0.4-0.4,0.4-1,0-1.4l0,0L7,5.6c-0.4-0.4-1-0.4-1.4,0s-0.4,1,0,1.4L8.4,9.8z"/>
<path d="M28.9,10.1c0.3,0,0.5-0.1,0.7-0.3L32.4,7c0.4-0.4,0.4-1,0-1.4s-1-0.4-1.4,0l-2.8,2.8c-0.4,0.4-0.4,1,0,1.4l0,0
	C28.4,10,28.6,10.1,28.9,10.1z"/>
</svg>
