<?xml version="1.0" encoding="utf-8"?>
<!-- Generator: Adobe Illustrator 25.4.3, SVG Export Plug-In . SVG Version: 6.00 Build 0)  -->
<svg version="1.1" id="Layer_1" xmlns="http://www.w3.org/2000/svg" xmlns:xlink="http://www.w3.org/1999/xlink" x="0px" y="0px"
	 viewBox="0 0 76 76" style="enable-background:new 0 0 76 76;" xml:space="preserve">
<style type="text/css">
	.st0{fill:#F5F5F5;}
	.st1{stroke:#000000;stroke-width:0.5;stroke-miterlimit:10;}
</style>
<g>
	<rect x="0" class="st0" width="76" height="76"/>
	<g id="B2nw3z.tif">
		<g>
			<path class="st1" d="M23,27.2c0.1-0.2,0.1-0.4,0.2-0.6c0.5-1.6,2-2.7,3.7-2.8c0.8,0,1.6,0,2.5,0c0-0.2,0-0.4,0-0.6
				c0-0.6,0.3-0.9,0.9-0.9c0.7,0,1.4,0,2,0c0.2,0,0.3-0.1,0.4-0.3c0.5-1.7,2-2.9,3.8-2.9c1.8,0,3.3,1.1,3.8,2.9
				c0.1,0.3,0.2,0.3,0.4,0.3c0.7,0,1.3,0,2,0c0.7,0,0.9,0.3,0.9,1c0,0.2,0,0.4,0,0.6c0.8,0,1.6,0,2.4,0c1.5,0,2.6,0.7,3.4,2
				c0.4,0.6,0.5,1.3,0.5,2.1c0,3.1,0,6.1,0,9.2c0,0.1,0,0.3-0.1,0.4c-0.1,0.3-0.4,0.5-0.7,0.5c-0.3,0-0.7-0.2-0.8-0.5
				c0-0.2-0.1-0.4-0.1-0.5c0-3,0-6,0-8.9c0-1.5-1-2.7-2.7-2.6c-0.7,0-1.4,0-2.1,0c0,0.2,0,0.5,0,0.7c0,1.5-1,2.5-2.5,2.5
				c-3.1,0-6.1,0-9.2,0c-1.5,0-2.5-1-2.5-2.5c0-0.2,0-0.4,0-0.6c-1,0-2-0.1-2.9,0c-1,0.1-1.7,1-1.8,2.1c0,0.1,0,0.2,0,0.3
				c0,6.8,0,13.6,0,20.3c0,1.2,0.7,2.1,1.7,2.4c0.3,0.1,0.6,0.1,0.9,0.1c3.5,0,7,0,10.4,0c0.1,0,0.2,0,0.4,0c0.4,0,0.7,0.3,0.8,0.8
				c0,0.4-0.3,0.8-0.7,0.8c-0.1,0-0.2,0-0.3,0c-3.5,0-7.1,0-10.6,0c-2.3,0-3.9-1.7-4.1-3.3c0,0,0-0.1-0.1-0.1
				C23,41.6,23,34.4,23,27.2z M41.9,23.8C41.9,23.8,41.9,23.8,41.9,23.8c-0.7,0-1.4,0-2,0c-0.9,0-1.1-0.2-1.2-1.1
				c-0.1-1.3-1.3-2.3-2.6-2.1c-1.2,0.2-2,1-2.1,2.3c-0.1,0.6-0.3,0.8-0.9,0.8c-0.2,0-0.3,0-0.5,0c-0.6,0-1.2,0-1.8,0
				c0,0.7,0,1.4,0,2.1c0,0.8,0.2,1.1,1.1,1.1c3,0,5.9,0,8.9,0c0.1,0,0.3,0,0.4,0c0.4-0.1,0.6-0.3,0.6-0.7
				C42,25.5,41.9,24.6,41.9,23.8z"/>
			<path class="st1" d="M41.6,57c-0.6-0.3-0.7-0.5-0.5-1.2c0.3-1.8,0.7-3.5,1.1-5.3c0-0.2,0.2-0.4,0.3-0.6
				c4.1-4.1,8.1-8.1,12.2-12.2c1-1,2.4-1,3.4,0c0.7,0.7,1.4,1.4,2.1,2.1c1.1,1.1,1.1,2.5,0,3.5c-2.8,2.8-5.7,5.7-8.5,8.5
				c-1.2,1.2-2.3,2.3-3.5,3.5c-0.2,0.2-0.5,0.3-0.7,0.4c-1.7,0.4-3.4,0.7-5.1,1c-0.1,0-0.1,0-0.2,0.1C41.9,57,41.7,57,41.6,57z
				 M42.8,55.2c0.2,0,0.3,0,0.4,0c1.2-0.2,2.3-0.5,3.5-0.7c0.2,0,0.4-0.1,0.5-0.2c3.9-3.9,7.9-7.9,11.8-11.8c0.5-0.5,0.5-0.9,0-1.4
				c-0.6-0.6-1.3-1.3-1.9-1.9c-0.6-0.6-1-0.6-1.6,0c-3.7,3.7-7.3,7.4-11,11c-0.6,0.6-1,1.2-1.1,2.1C43.3,53.1,43,54.1,42.8,55.2z"/>
			<path class="st1" d="M36.4,33.3c-2.6,0-5.1,0-7.7,0c-0.2,0-0.3,0-0.5-0.1c-0.3-0.1-0.5-0.5-0.5-0.8c0.1-0.4,0.3-0.6,0.7-0.7
				c0.1,0,0.3,0,0.4,0c5.1,0,10.1,0,15.2,0c0.7,0,1.1,0.3,1.1,0.8c0,0.5-0.4,0.8-1.1,0.8C41.5,33.3,38.9,33.3,36.4,33.3z"/>
			<path class="st1" d="M36.4,36.4c2.6,0,5.2,0,7.8,0c0.6,0,1,0.4,0.9,0.9C45,37.7,44.8,38,44.4,38c-0.1,0-0.2,0-0.4,0
				c-5.1,0-10.1,0-15.2,0c0,0,0,0-0.1,0c-0.6,0-1-0.3-1-0.8c0-0.5,0.4-0.8,1-0.8C31.3,36.4,33.9,36.4,36.4,36.4z"/>
			<path class="st1" d="M36.4,41.2c2.5,0,5,0,7.6,0c0.1,0,0.3,0,0.4,0c0.4,0,0.7,0.4,0.7,0.8c0,0.4-0.3,0.7-0.7,0.8
				c-0.1,0-0.2,0-0.3,0c-5.2,0-10.3,0-15.5,0c-0.1,0-0.3,0-0.4-0.1c-0.3-0.1-0.6-0.5-0.5-0.8c0-0.4,0.3-0.7,0.7-0.7
				c0.1,0,0.3,0,0.4,0C31.4,41.2,33.9,41.2,36.4,41.2z"/>
		</g>
	</g>
</g>
</svg>
