<?xml version="1.0" encoding="utf-8"?>
<!-- Generator: Adobe Illustrator 26.0.3, SVG Export Plug-In . SVG Version: 6.00 Build 0)  -->
<svg version="1.1" id="Capa_1" xmlns="http://www.w3.org/2000/svg" xmlns:xlink="http://www.w3.org/1999/xlink" x="0px" y="0px"
	 viewBox="0 0 127.14 122.19" style="enable-background:new 0 0 127.14 122.19;" xml:space="preserve">
<style type="text/css">
	.st0{fill:#FFFF00;}
</style>
<g id="yL5PrB.tif_00000145764361980844480620000006484486311521803922_">
	<g>
		<path d="M123.57,63.99c-3,3.11-5.88,6.36-9.05,9.28c-2.57,2.36-3.61,4.81-2.64,8.3c0.83,2.99,1.37,6.11,1.56,9.2
			c0.31,4.87-1.85,7.59-6.53,8.88c-1.05,0.29-2.16,0.77-3.19,0.66c-8.65-0.9-12.76,3.68-15.64,11.33c-2.82,7.49-7.54,8.6-14.62,4.9
			c-0.14-0.07-0.3-0.11-0.42-0.21c-6.26-5.29-12.12-4.86-18.92-0.2c-6.98,4.79-11.65,2.87-15.37-4.75
			c-0.48-0.98-1.04-1.95-1.31-2.99c-1.49-5.76-5.34-8.03-11.06-7.87c-1.69,0.05-3.41-0.32-5.08-0.7c-6.02-1.35-8.09-4.13-7.48-10.36
			c0.27-2.78,0.85-5.55,1.56-8.26c0.8-3.08,0.07-5.46-2.32-7.53c-2.35-2.05-4.72-4.12-6.78-6.45c-3.61-4.06-3.61-8.08,0.01-12.15
			c2.07-2.32,4.44-4.39,6.79-6.44c2.38-2.08,3.1-4.46,2.31-7.54c-0.73-2.86-1.34-5.79-1.6-8.73c-0.5-5.68,1.6-9.51,7.07-9.58
			c10.33-0.13,16.09-4.67,19.45-14.27c1.75-5.02,6.96-6.63,11.29-3.53c8.39,6.01,15.78,5.76,24.1-0.07
			c4.18-2.93,8.42-1.09,11.2,3.24c0.92,1.43,1.82,2.98,2.28,4.6c1.82,6.49,5.92,9.48,12.69,9.11c1.82-0.1,3.73,0.41,5.51,0.93
			c4.08,1.19,6.4,3.97,6.09,8.29c-0.23,3.25-0.74,6.53-1.59,9.67c-0.94,3.5,0.09,5.94,2.65,8.3c3.18,2.92,6.05,6.17,9.05,9.28
			C123.57,60.24,123.57,62.11,123.57,63.99z"/>
		<path class="st0" d="M41.39,63.61c2.18-2.28,4.37-4.56,6.64-6.93c3.09,3.11,5.95,6,8.91,8.97c7.62-7.64,15.01-15.05,22.29-22.35
			c2.29,2.32,4.49,4.54,6.52,6.6c-9.45,9.44-19.17,19.14-29.05,29c-0.14-0.14-0.6-0.55-1.03-0.98c-4.31-4.3-8.62-8.61-12.94-12.9
			c-0.4-0.4-0.89-0.7-1.34-1.05C41.39,63.84,41.39,63.73,41.39,63.61z"/>
	</g>
</g>
</svg>
