<?xml version="1.0" encoding="utf-8"?>
<!-- Generator: Adobe Illustrator 25.4.3, SVG Export Plug-In . SVG Version: 6.00 Build 0)  -->
<svg version="1.1" id="Layer_1" xmlns="http://www.w3.org/2000/svg" xmlns:xlink="http://www.w3.org/1999/xlink" x="0px" y="0px"
	 viewBox="0 0 76 76" style="enable-background:new 0 0 76 76;" xml:space="preserve">
<style type="text/css">
	.st0{fill:#F5F5F5;}
</style>
<g>
	<rect class="st0" width="76" height="76"/>
	<g id="sMSrza.tif_00000006668508383905953920000009512765583393218450_">
		<g>
			<g>
				<path d="M39.4,21c1.4,0.3,2.8,0.5,4.1,1c7.5,2.5,12.2,9.9,11.4,17.8c-0.7,7.7-6.9,14-14.6,15c-9.3,1.3-17.8-5.2-19.1-14.6
					c-1.3-9.1,5.2-17.7,14.3-19.1c0.4-0.1,0.8-0.1,1.2-0.2C37.6,21,38.5,21,39.4,21z M38,51.8c7.6,0,13.7-6.2,13.8-13.7
					c0-7.6-6.2-13.8-13.8-13.8c-7.7,0-13.8,6.2-13.8,13.9C24.2,45.6,30.5,51.8,38,51.8z"/>
				<path d="M42.9,33.2c0.1,0.8-0.1,1.6-0.8,1.8c-0.5,0.2-1.1,0.2-1.6,0c-0.4-0.2-0.7-0.8-0.7-1.2c0-0.8-0.3-1.4-1-1.7
					c-0.8-0.4-1.5-0.1-2.2,0.3c-0.7,0.5-1,1.2-0.9,2c0.1,0.7,0.7,1.1,1.3,1.3c0.4,0.1,0.8,0.2,1.2,0.2c3.7,0.5,6.1,3.8,5.2,7.2
					c-0.5,1.8-1.7,2.9-3.4,3.5c-0.4,0.2-0.6,0.4-0.9,0.8c-0.3,0.4-0.8,0.8-1.4,1c-0.6,0.2-1.2-0.3-1.5-0.8c-0.2-0.3-0.5-0.7-0.9-0.9
					c-2-1-3.4-3.3-3.2-5.5c0.1-0.9,0.6-1.5,1.5-1.5c0.9,0,1.5,0.5,1.7,1.4c0,0.2,0,0.5,0.1,0.7c0.2,1,0.5,1.9,1.6,2.2
					c1,0.3,2,0,2.9-0.7c0.8-0.7,0.8-1.9,0.2-2.7c-0.6-0.7-1.3-1.1-2.2-1.2c-0.7-0.1-1.5-0.3-2.1-0.5c-1.9-0.8-3.1-2.1-3.1-4.3
					c0-2.2,0.9-3.9,2.8-4.9c0.5-0.3,0.8-0.5,1-1.1c0.2-0.4,0.8-0.8,1.3-1c0.7-0.2,1.2,0.3,1.5,0.8c0.2,0.3,0.5,0.7,0.9,0.9
					C41.7,30.1,42.9,31.2,42.9,33.2z"/>
			</g>
		</g>
	</g>
</g>
</svg>
