<?xml version="1.0" encoding="utf-8"?>
<!-- Generator: Adobe Illustrator 26.0.3, SVG Export Plug-In . SVG Version: 6.00 Build 0)  -->
<svg version="1.1" id="Capa_1" xmlns="http://www.w3.org/2000/svg" xmlns:xlink="http://www.w3.org/1999/xlink" x="0px" y="0px"
	 viewBox="0 0 16 7.73" style="enable-background:new 0 0 16 7.73;" xml:space="preserve">
<style type="text/css">
	.st0{fill:#FFFF00;}
</style>
<path class="st0" d="M14.32,3.97c-0.08,0.12-0.15,0.25-0.25,0.35c-0.81,0.82-1.63,1.62-2.45,2.44c-0.22,0.22-0.5,0.24-0.71,0.05
	c-0.22-0.2-0.22-0.51-0.01-0.73c0.53-0.53,1.07-1.06,1.6-1.59c0.03-0.03,0.06-0.06,0.11-0.12c-0.07,0-0.12,0-0.17,0
	c-3.41,0-6.82,0-10.22,0c-0.28,0-0.47-0.12-0.54-0.34C1.6,3.71,1.82,3.4,2.13,3.38c0.05,0,0.1,0,0.15,0c3.39,0,6.78,0,10.18,0
	c0.05,0,0.1,0,0.17,0c-0.04-0.05-0.07-0.08-0.1-0.11c-0.51-0.51-1.01-1.03-1.54-1.52c-0.31-0.29-0.32-0.76,0.15-0.94
	c0.07,0,0.15,0,0.22,0c0.12,0.09,0.25,0.16,0.36,0.27c0.79,0.78,1.58,1.56,2.36,2.34c0.1,0.1,0.16,0.23,0.25,0.35
	C14.32,3.83,14.32,3.9,14.32,3.97z"/>
</svg>
