<?xml version="1.0" encoding="utf-8"?>
<!-- Generator: Adobe Illustrator 25.4.3, SVG Export Plug-In . SVG Version: 6.00 Build 0)  -->
<svg version="1.1" id="Capa_1" xmlns="http://www.w3.org/2000/svg" xmlns:xlink="http://www.w3.org/1999/xlink" x="0px" y="0px"
	 viewBox="0 0 54 54" style="enable-background:new 0 0 54 54;" xml:space="preserve">
<style type="text/css">
	.st0{fill:#FFFF00;}
</style>
<g>
	<circle class="st0" cx="27" cy="27" r="26.5"/>
	<g>
		<g>
			<path d="M25.6,33.1v-1.4h-0.2c-1.2-0.1-2.2-0.7-3.1-1.3l0.7-1.1c0.1,0.1,0.2,0.1,0.3,0.2c0.6,0.4,1.2,0.8,2.1,0.9h0.2v-0.3
				c0-0.1,0-0.1,0-0.2v-1.3c0-1,0-2,0-3c0-0.3-0.1-0.5-0.4-0.6c-0.8-0.4-1.4-0.8-1.8-1.3c-0.8-1-0.7-2.7,0.3-3.8
				c0.4-0.5,1-0.8,1.6-1c0.2-0.1,0.4-0.2,0.3-0.5c0-0.3,0-0.6,0-0.8v-0.1h1.3v1.3h0.2c0.9,0.1,1.6,0.5,2.5,1.3l-0.9,1L28.6,21
				c-0.4-0.3-0.8-0.7-1.4-0.8L27,20.1v0.3c0,0.1,0,0.1,0,0.2v1c0,0.8,0,1.5,0,2.3c0,0.3,0.1,0.4,0.4,0.5c0.9,0.3,1.5,0.7,2,1.2
				c1.1,1.2,1.1,3,0,4.4c-0.6,0.7-1.2,1.2-2.1,1.4c-0.3,0.1-0.4,0.3-0.4,0.5c0,0.3,0,0.6,0,0.9V33L25.6,33.1L25.6,33.1z M26.9,30.2
				l0.2-0.1c0.8-0.2,1.6-1.3,1.6-2.3S28,26,27.1,25.7l-0.2-0.1C26.9,25.8,26.9,30.2,26.9,30.2z M25.3,20.4c-0.7,0.3-1.1,1-1.1,1.9
				c0,0.6,0.5,1.1,1.1,1.4l0.3,0.1v-3.5L25.3,20.4z"/>
			<path d="M35.9,42c-0.4,0-0.8-0.1-1.1-0.1c-0.6-1.8-1.2-3.5-1.8-5.3l-0.4-1.1c0-0.1,0-0.1-0.1-0.2l-0.2-0.5L32,35.1
				c-0.1,0-0.1,0-0.2,0.1c-1.7,1-3.7,1.5-5.6,1.5c-2.6,0-5-0.9-7.1-2.6c-2.4-1.9-3.7-4.4-4-7.3c-0.5-4.7,1.2-8.4,5.2-11.1
				c1.4-0.9,3.1-1.5,5-1.7c0.1,0,0.2,0,0.2,0l0,0H27l0,0c0.1,0,0.1,0,0.2,0c0.2,0,0.3,0,0.5,0.1l0,0c0.4,0,0.7,0.1,1.1,0.2
				c3.5,0.8,6.3,3.2,7.7,6.4c1.4,3.3,1.3,6.9-0.5,10.1c0,0.1-0.1,0.1-0.1,0.2l-0.2,0.5l0.4,0.2h0.1l1.3,0.4c1.8,0.6,3.5,1.2,5.3,1.8
				c0,0.2,0,0.5,0.1,0.7c0,0.1,0,0.2,0,0.3V35l-0.7,0.4c-0.5,0.2-0.9,0.5-1.4,0.7l-0.2,0.1c-0.7,0.3-1.4,0.7-2,1
				c-0.2,0.1-0.4,0.3-0.5,0.5C37.4,39.1,36.7,40.6,35.9,42z M35.4,41.1l0.9-1.8c0.4-0.8,0.8-1.6,1.2-2.4c0.1-0.2,0.2-0.2,0.3-0.3
				c0.7-0.4,1.4-0.7,2.2-1.1l2-1l-9.8-3.3L35.4,41.1z M26.3,14.9c-0.6,0-1.2,0.1-1.8,0.2C18.8,16,15,21.4,16,27
				c0.9,5.1,5.3,8.7,10.8,8.8c1.5,0,3.3-0.6,4.9-1.5c0.3-0.2,0.4-0.5,0.3-0.8c-0.1-0.4-0.3-0.9-0.4-1.3c-0.1-0.4-0.3-0.8-0.4-1.1
				c0.3-0.3,0.5-0.5,0.7-0.7c0.4,0.1,0.8,0.3,1.2,0.4h0.1c0.4,0.1,0.8,0.3,1.1,0.4c0.1,0,0.2,0.1,0.3,0.1c0.2,0,0.4-0.1,0.6-0.4
				c1.4-2.3,1.8-4.9,1.3-7.5C35.4,18.3,31.3,14.9,26.3,14.9z"/>
		</g>
	</g>
</g>
</svg>
