<?xml version="1.0" encoding="utf-8"?>
<!-- Generator: Adobe Illustrator 25.4.3, SVG Export Plug-In . SVG Version: 6.00 Build 0)  -->
<svg version="1.1" id="Capa_1" xmlns="http://www.w3.org/2000/svg" xmlns:xlink="http://www.w3.org/1999/xlink" x="0px" y="0px"
	 viewBox="0 0 54 54" style="enable-background:new 0 0 54 54;" xml:space="preserve">
<style type="text/css">
	.st0{fill:#FFFF00;}
</style>
<g>
	<circle class="st0" cx="27" cy="27" r="26.5"/>
	<g id="khBcXO.tif">
		<g>
			<g>
				<path d="M33.2,14.5c0.1,0.1,0.2,0.3,0.3,0.4c0.5,1.2,1,2.4,1.3,3.6c0.2,0.8,0.3,1.6-0.4,2.2c-0.1,0-0.1,0.1-0.1,0.2
					c0,1.9,0,3.8,0,5.7c0,0,0,0,0,0.1c0.1,0,0.2,0,0.2,0c0.2,0,0.4,0.1,0.4,0.4c0,0.4,0,0.8,0,1.2c0,0.3-0.1,0.4-0.4,0.4
					c-0.1,0-0.1,0-0.2,0c-4.8,0-9.7,0-14.5,0c-0.5,0-0.6-0.1-0.6-0.6c0-0.3,0-0.5,0-0.8c0-0.5,0.1-0.6,0.6-0.6c0-0.1,0-0.2,0-0.3
					c0-1.8,0-3.6,0-5.5c0-0.2,0-0.3-0.2-0.4c-0.3-0.3-0.4-0.6-0.5-1c0-0.6,0-1.1,0.3-1.7c0.4-1,0.8-2.1,1.2-3.1
					c0.1-0.2,0.2-0.3,0.3-0.4C24.9,14.5,29.1,14.5,33.2,14.5z M25.4,26.9c0-1,0-2,0-2.9c0-0.3,0.1-0.5,0.5-0.5c0.8,0,1.5,0,2.3,0
					c0.4,0,0.5,0.1,0.5,0.5c0,0.9,0,1.7,0,2.6c0,0.1,0,0.2,0,0.3c1.6,0,3.2,0,4.8,0c0-1.9,0-3.8,0-5.6c-0.4-0.2-0.8-0.3-1.2-0.5
					c-0.2,0.2-0.6,0.4-1,0.4s-0.8-0.2-1.1-0.5c-0.3,0.3-0.7,0.5-1.1,0.5S28.3,21,28,20.7c-0.3,0.3-0.7,0.5-1.1,0.5s-0.8-0.2-1.1-0.5
					c-0.3,0.3-0.7,0.5-1.1,0.5s-0.8-0.2-1-0.5c-0.8,0.6-1.4,0.6-2.1,0.1c-0.4,0.2-0.8,0.3-1.2,0.5c0,1.8,0,3.7,0,5.6
					C22.1,26.9,23.7,26.9,25.4,26.9z M33.9,18.5c0-0.1,0-0.1,0-0.1c-0.4-1-0.7-2-1.1-2.9c-0.1-0.2-0.2-0.2-0.3-0.2
					c-3.7,0-7.4,0-11.1,0c-0.2,0-0.2,0-0.3,0.2c-0.3,0.9-0.7,1.9-1,2.8c0,0.1,0,0.1-0.1,0.2C24.7,18.5,29.3,18.5,33.9,18.5z
					 M34.1,27.6c-4.8,0-9.5,0-14.2,0c0,0.2,0,0.3,0,0.5c4.7,0,9.5,0,14.2,0C34.1,28,34.1,27.8,34.1,27.6z M26.1,24.2
					c0,0.9,0,1.8,0,2.7c0.6,0,1.2,0,1.7,0c0-0.9,0-1.8,0-2.7C27.3,24.2,26.7,24.2,26.1,24.2z M19.9,19.2c0,0.4-0.1,0.8,0.4,1
					c0.3,0.1,0.5,0.1,0.8-0.1c0.3-0.3,0.3-0.6,0.3-1C20.8,19.2,20.4,19.2,19.9,19.2z M28.4,19.3c0,0.4-0.1,0.8,0.4,1
					c0.3,0.1,0.5,0.1,0.8-0.1c0.3-0.3,0.3-0.6,0.3-1C29.4,19.3,28.9,19.3,28.4,19.3z M24.2,19.2c0,0.4-0.1,0.8,0.4,1
					c0.3,0.1,0.5,0.1,0.7,0c0.4-0.3,0.3-0.6,0.3-1C25.1,19.2,24.6,19.2,24.2,19.2z M34.1,19.3c-0.5,0-0.9,0-1.4,0
					c0,0.4-0.1,0.8,0.3,1c0.2,0.2,0.5,0.2,0.8,0C34.2,20,34.1,19.6,34.1,19.3z M26.3,19.2c0,0.4-0.1,0.8,0.3,1
					c0.2,0.2,0.6,0.1,0.8,0c0.4-0.3,0.3-0.6,0.3-1C27.2,19.2,26.8,19.2,26.3,19.2z M30.6,19.3c0,0.4-0.1,0.8,0.3,1
					c0.3,0.2,0.5,0.1,0.8,0c0.4-0.3,0.3-0.6,0.3-1C31.5,19.3,31.1,19.3,30.6,19.3z M23.4,19.3c-0.5,0-0.9,0-1.4,0
					c0,0.4-0.1,0.7,0.3,1c0.2,0.2,0.5,0.2,0.8,0C23.5,20,23.4,19.7,23.4,19.3z"/>
				<path d="M39.5,35.2c-0.1,0.1-0.3,0.2-0.4,0.3c0,0,0,0-0.1,0c0,0.1,0,0.2,0,0.3c0,1.1,0,2.2,0,3.3c0,0.4-0.1,0.5-0.5,0.5
					c-1.7,0-3.4,0-5,0c-0.4,0-0.5-0.1-0.5-0.5c0-1.2,0-2.4,0-3.6c-0.1,0-0.1,0-0.2-0.1c-0.3-0.1-0.4-0.3-0.3-0.5
					c0.3-0.7,0.5-1.5,0.8-2.2c0-0.1,0.2-0.2,0.4-0.2c1.5,0,3.1,0,4.6,0c0.2,0,0.3,0.1,0.4,0.3c0.2,0.6,0.5,1.2,0.7,1.9
					c0,0.1,0.1,0.2,0.1,0.2C39.5,35,39.5,35.1,39.5,35.2z M34.6,38.8c0-0.7,0-1.4,0-2.1c0-0.3,0.1-0.4,0.4-0.4c0.6,0,1.2,0,1.8,0
					c0.3,0,0.4,0.1,0.4,0.4c0,0.5,0,1,0,1.5c0,0.2,0,0.4,0,0.6c0.3,0,0.6,0,1,0c0-1.1,0-2.2,0-3.4c-1.5,0-3,0-4.6,0
					c0,1.1,0,2.2,0,3.4C34,38.8,34.3,38.8,34.6,38.8z M38.6,34.7c-0.2-0.4-0.3-0.8-0.5-1.2c-0.1-0.2-0.1-0.2-0.3-0.2
					c-1.1,0-2.2,0-3.3,0c-0.7,0-0.7,0-0.9,0.6c-0.1,0.3-0.2,0.5-0.3,0.8C35.1,34.7,36.8,34.7,38.6,34.7z M36.5,38.8
					c0-0.6,0-1.2,0-1.8c-0.4,0-0.8,0-1.1,0c0,0.6,0,1.2,0,1.8C35.8,38.8,36.1,38.8,36.5,38.8z"/>
				<path d="M30,35.5c0,0.7,0,1.5,0,2.2c0,0.5,0,1,0,1.5c0,0.3-0.1,0.4-0.5,0.4c-0.2,0-0.5,0-0.7,0c-1.5,0-2.9,0-4.4,0
					c-0.4,0-0.5-0.1-0.5-0.5c0-1.1,0-2.2,0-3.3c0-0.1,0-0.2,0-0.3c-0.1,0-0.1,0-0.2,0c-0.3-0.1-0.4-0.3-0.3-0.5
					c0.3-0.7,0.5-1.5,0.8-2.2c0-0.1,0.2-0.2,0.4-0.3c1.5,0,3.1,0,4.6,0c0.1,0,0.3,0.1,0.4,0.3c0.3,0.7,0.6,1.4,0.8,2.1
					C30.6,35.2,30.5,35.3,30,35.5z M25.7,38.8c0-0.7,0-1.4,0-2.1c0-0.3,0.1-0.5,0.4-0.5c0.6,0,1.2,0,1.7,0c0.3,0,0.4,0.1,0.5,0.4
					c0,0.6,0,1.2,0,1.8c0,0.1,0,0.2,0,0.2c0.3,0,0.6,0,1,0c0-1.1,0-2.2,0-3.4c-1.5,0-3,0-4.5,0c0,1.1,0,2.2,0,3.4
					C25,38.8,25.4,38.8,25.7,38.8z M24.4,34.7c1.8,0,3.5,0,5.2,0c-0.2-0.5-0.3-0.9-0.5-1.3c0-0.1-0.1-0.1-0.2-0.1
					c-1.3,0-2.6,0-3.8,0c-0.1,0-0.2,0-0.2,0.1C24.7,33.7,24.5,34.2,24.4,34.7z M27.6,37c-0.4,0-0.8,0-1.1,0c0,0.6,0,1.2,0,1.8
					c0.4,0,0.8,0,1.1,0C27.6,38.2,27.6,37.6,27.6,37z"/>
				<path d="M15,35.4c-0.5-0.1-0.6-0.3-0.4-0.7c0.2-0.6,0.5-1.2,0.7-1.9c0.1-0.3,0.2-0.4,0.5-0.4c1.5,0,2.9,0,4.4,0
					c0.3,0,0.4,0.1,0.5,0.4c0.2,0.6,0.5,1.3,0.7,1.9c0.2,0.5,0.1,0.6-0.4,0.7c0,0.1,0,0.2,0,0.3c0,1.1,0,2.2,0,3.3
					c0,0.5-0.1,0.6-0.6,0.6c-1.6,0-3.3,0-4.9,0c-0.5,0-0.6-0.1-0.6-0.6c0-1.1,0-2.1,0-3.2C15,35.6,15,35.5,15,35.4z M15.7,38.8
					c0.3,0,0.6,0,1,0c0-0.7,0-1.4,0-2.1c0-0.3,0.1-0.5,0.5-0.5c0.6,0,1.1,0,1.7,0c0.3,0,0.5,0.1,0.5,0.5c0,0.5,0,1,0,1.5
					c0,0.2,0,0.3,0,0.5c0.3,0,0.6,0,1,0c0-1.1,0-2.2,0-3.4c-1.5,0-3,0-4.6,0C15.7,36.6,15.7,37.7,15.7,38.8z M20.7,34.7
					c-0.2-0.5-0.3-0.9-0.5-1.4c0,0-0.1-0.1-0.2-0.1c-1.3,0-2.6,0-3.8,0c-0.1,0-0.2,0-0.2,0.1c-0.2,0.5-0.4,0.9-0.5,1.4
					C17.2,34.7,18.9,34.7,20.7,34.7z M18.6,38.8c0-0.6,0-1.2,0-1.8c-0.4,0-0.8,0-1.1,0c0,0.6,0,1.2,0,1.8
					C17.8,38.8,18.2,38.8,18.6,38.8z"/>
				<path d="M18.4,23c0,0.1,0,0.2,0,0.3c0,2.7,0,5.3,0,8c0,0.1,0,0.2,0,0.3c0,0.2-0.2,0.3-0.4,0.3c-0.2,0-0.3-0.1-0.4-0.3
					c0-0.1,0-0.1,0-0.2c0-2.9,0-5.7,0-8.6c0-0.4,0.1-0.5,0.5-0.5c0.2,0,0.4,0,0.7,0c0.2,0,0.4,0.1,0.4,0.4c0,0.2-0.1,0.4-0.4,0.4
					C18.7,23,18.6,23,18.4,23z"/>
				<path d="M35.6,23c-0.2,0-0.3,0-0.4,0c-0.2,0-0.4-0.2-0.4-0.4c0-0.2,0.1-0.4,0.4-0.4c0.3,0,0.5,0,0.8,0c0.2,0,0.4,0.1,0.4,0.4
					c0,0.1,0,0.1,0,0.2c0,2.8,0,5.6,0,8.5c0,0.1,0,0.1,0,0.2c0,0.2-0.1,0.4-0.4,0.4c-0.2,0-0.4-0.1-0.4-0.4c0-0.1,0-0.2,0-0.2
					c0-2.6,0-5.3,0-7.9C35.6,23.3,35.6,23.2,35.6,23z"/>
				<path d="M27.4,30.7c0,0.3,0,0.6,0,0.8c0,0.3-0.2,0.4-0.4,0.4c-0.2,0-0.4-0.2-0.4-0.4c0-0.6,0-1.1,0-1.7c0-0.2,0.1-0.4,0.4-0.4
					c0.2,0,0.4,0.1,0.4,0.4C27.4,30.1,27.4,30.4,27.4,30.7z"/>
				<path d="M22.9,26.1c-0.4,0-0.8,0-1.2,0c-0.3,0-0.5-0.1-0.5-0.4c0-0.6,0-1.2,0-1.8c0-0.3,0.1-0.4,0.4-0.4c0.8,0,1.6,0,2.4,0
					c0.3,0,0.4,0.1,0.4,0.4c0,0.6,0,1.2,0,1.8c0,0.3-0.1,0.4-0.4,0.4C23.7,26.1,23.3,26.1,22.9,26.1z M22.1,24.2c0,0.4,0,0.8,0,1.1
					c0.6,0,1.2,0,1.8,0c0-0.4,0-0.8,0-1.1C23.2,24.2,22.6,24.2,22.1,24.2z"/>
				<path d="M31.1,26.1c-0.4,0-0.8,0-1.2,0c-0.3,0-0.5-0.1-0.5-0.5c0-0.6,0-1.2,0-1.7c0-0.3,0.1-0.4,0.4-0.4c0.8,0,1.6,0,2.4,0
					c0.3,0,0.4,0.1,0.4,0.4c0,0.6,0,1.2,0,1.8c0,0.3-0.1,0.4-0.4,0.4C31.9,26.1,31.5,26.1,31.1,26.1z M31.9,24.2c-0.6,0-1.2,0-1.8,0
					c0,0.4,0,0.7,0,1.1c0.6,0,1.2,0,1.8,0C31.9,25,31.9,24.6,31.9,24.2z"/>
				<path d="M27,22.7c-0.9,0-1.7,0-2.6,0c-0.1,0-0.1,0-0.2,0c-0.2,0-0.3-0.1-0.3-0.4c0-0.2,0.1-0.3,0.3-0.4c0.1,0,0.3,0,0.4,0
					c1.7,0,3.3,0,5,0c0.1,0,0.2,0,0.2,0c0.2,0,0.3,0.1,0.3,0.4c0,0.2-0.1,0.4-0.4,0.4c-0.2,0-0.4,0-0.6,0
					C28.5,22.7,27.7,22.7,27,22.7z"/>
				<path d="M24,16.5c-0.2,0-0.4,0-0.6,0c-0.3,0-0.4-0.2-0.4-0.4c0-0.2,0.2-0.4,0.4-0.4c0.4,0,0.8,0,1.2,0c0.3,0,0.4,0.2,0.4,0.4
					c0,0.2-0.2,0.4-0.4,0.4C24.4,16.5,24.2,16.5,24,16.5z"/>
			</g>
		</g>
	</g>
</g>
</svg>
