<?xml version="1.0" encoding="utf-8"?>
<!-- Generator: Adobe Illustrator 25.4.3, SVG Export Plug-In . SVG Version: 6.00 Build 0)  -->
<svg version="1.1" id="Layer_1" xmlns="http://www.w3.org/2000/svg" xmlns:xlink="http://www.w3.org/1999/xlink" x="0px" y="0px"
	 viewBox="0 0 407 465" style="enable-background:new 0 0 407 465;" xml:space="preserve">
<style type="text/css">
	.st0{fill:#FFFFFF;}
</style>
<g id="Eb60AO.tif">
	<g>
		<path class="st0" d="M355.9,323.9c7.3,12.6,14.4,24.8,21.5,37c7,12.1,14,24.1,21.1,36.2c2.1,3.5,3.4,7,0.6,10.7
			c-2.8,3.8-6.5,3.7-10.7,2.6c-19.2-5.3-38.5-10.4-57.7-15.5c-1.3-0.3-2.5-0.6-4.3-0.9c-3.4,12.5-6.8,24.8-10.1,37.1
			c-2.1,7.9-4.2,15.7-6.2,23.6c-1.1,4.4-2.5,8.6-7.7,9.2c-5,0.6-7.3-3-9.4-6.7c-12.3-21.5-24.7-42.9-37.1-64.3
			c-0.9-1.5-2.5-3.1-4.1-3.7c-8-3.2-16.1-6-24.2-9.1c-3.3-1.2-6.4-2.7-9.6-4.3c-9.6-4.7-19.1-4.5-28.8,0
			c-8.3,3.9-16.4,8.5-25.2,10.6c-8.8,2.1-13.2,7.1-17.2,14.4c-10.4,18.9-21.5,37.5-32.2,56.2c-2.1,3.7-4.3,7.5-9.3,7
			c-5.1-0.5-6.7-4.5-7.9-9c-4.8-18.5-9.9-36.9-14.8-55.3c-0.5-1.7-1-3.4-1.7-5.7c-8.8,2.4-17.4,4.6-26,6.9
			c-12.2,3.3-24.4,6.4-36.6,9.8c-3.9,1.1-7.3,0.7-9.9-2.6c-2.5-3.3-1.8-6.7,0.2-10.2C21.8,374.8,35,351.9,48.2,329
			c0.9-1.6,1.8-3.2,2.8-4.9c-0.6-0.5-0.9-1.1-1.5-1.4c-11-6.2-15.8-16-15.6-28.2c0.2-9.6,1.2-19.2,2.4-28.8c1.5-11-1-20.3-8.8-28.4
			c-6.6-6.8-13-13.8-18.6-21.4c-10.8-14.5-10.8-27.5,0.1-42.1c5.4-7.3,11.7-14.1,18.1-20.6c8.2-8.4,10.9-18.1,9.2-29.7
			c-1.3-9.2-2.3-18.5-2.4-27.8c-0.2-15.6,6.9-26,21.6-31.1c9-3.1,18.6-5.1,28-6.7c12.3-2.1,20.9-8.2,26.6-19.4
			c4-7.8,8.4-15.5,13.5-22.7c10.1-14.4,22.6-18.5,39.2-12.7c8.9,3.1,17.5,7.2,26.1,11.2c9.9,4.6,19.4,4.5,29.3,0.1
			c10.4-4.6,21-9.2,31.9-12.6c11.6-3.6,21.7,0.4,29.6,9.4c3.9,4.5,7.1,9.6,10.4,14.6c1.8,2.8,3.6,5.7,4.8,8.7
			c6.3,15,17.6,22.4,33.6,24.4c8.6,1.1,17.2,3.6,25.4,6.7c12.2,4.5,19.1,14.1,19.1,27.1c0.1,11.6-1.2,23.2-2.3,34.8
			c-0.8,9,1.3,16.7,7.5,23.4c6,6.5,12.1,12.9,17.6,19.7c13.9,17.3,13.8,31.8,0,49.1c-3.7,4.7-7.6,9.4-12,13.3
			c-12.2,10.7-15.3,23.8-12.3,39.2c1.3,6.5,1.5,13.2,1.8,19.8C373.9,305.9,369.2,316.9,355.9,323.9z M52.2,128.3
			c1.5,14.6-4.6,26.2-14.2,36.4c-5.2,5.6-10.6,11.1-15.3,17.1c-8.3,10.3-8.2,16.9,0.1,27.2c5.3,6.6,11.2,12.7,17,19
			c9.6,10.4,13.7,22.5,12.3,36.6c-1.1,10.2-1.9,20.5-2.4,30.8c-0.4,7.8,3.6,13.1,11,15.3c6.2,1.9,12.4,3.9,18.8,4.6
			c22.4,2.6,38.5,13.4,47.6,34.2c2.1,4.7,4.9,9,7.8,13.3c7.4,11.2,13.2,13.1,25.8,8.1c6.6-2.6,13.1-5.6,19.5-8.8
			c15.3-7.5,30.6-7.8,46-0.3c7.4,3.6,15,7.1,22.8,9.9c9.9,3.6,15.5,1.8,21.5-6.9c4.4-6.4,8.4-13.2,11.9-20.1
			c8.4-16.9,22.1-25.8,40.5-28.6c8.2-1.3,16.2-3.5,24.1-5.8c6.8-2,10.4-7.2,10.2-14.3c-0.3-8-0.6-16-1.8-23.8
			c-2.8-18.5,0.8-34.7,14.8-47.8c3.3-3.1,6.2-6.5,9.2-9.8c2.1-2.4,4.2-4.8,6-7.3c6.4-8.9,6.4-14.9,0.1-23.7
			c-2.2-3.1-4.8-5.9-7.4-8.8c-4.1-4.6-8.3-9.1-12.4-13.7c-8.9-9.8-12.3-21.4-11-34.5c0.9-8.6,2-17.2,2.4-25.8
			c0.8-14.5-2.6-19-16.7-22.7c-6.9-1.8-13.9-3.1-21-4.4c-16.1-2.8-28.2-11-35.9-25.7c-2.7-5.2-5.5-10.2-8.6-15.2
			c-2.3-3.7-4.7-7.2-7.5-10.5c-3.8-4.6-8.9-6.6-14.7-4.6c-6,2-12.2,3.8-17.5,6.9c-21.6,12.4-42.7,12.3-64.2-0.2
			c-5.4-3.1-11.6-4.8-17.6-6.8c-5.7-1.9-10.6,0.1-14.3,4.5c-3.2,3.8-5.9,8-8.5,12.2c-3.2,5.2-6.1,10.7-9.1,16
			c-6.8,12.2-17.1,19.6-30.8,22.4c-8.6,1.8-17.3,3.3-25.8,5.6c-12.8,3.4-16.1,8-15.5,21.1C50.1,109.1,51.3,118.7,52.2,128.3z
			 M134.9,389c-4.2-5.3-7.9-9.6-11.1-14.2c-3.2-4.6-6.1-9.5-9-14.3c-2.6-4.3-4.9-8.6-7.4-13c-4.3-7.8-10.9-12.4-19.5-14.2
			c-5.4-1.1-10.8-1.8-16-3.4c-4.5-1.4-6.4,0.2-8.5,4c-9.6,17.1-19.5,34-29.3,50.9c-0.9,1.5-1.7,3.1-2.9,5.4c2.5-0.6,4.2-0.9,6-1.3
			c14.7-3.9,29.5-7.9,44.2-11.8c8.3-2.2,11.2-0.5,13.4,7.7c4.4,16.4,8.8,32.8,13.6,50.5C118,418.4,127.1,402.5,134.9,389z
			 M375.6,390.6c-1.2-2.3-1.8-3.4-2.5-4.6c-10.2-17.7-20.5-35.4-30.6-53.1c-1.5-2.6-2.8-4-6.1-3c-3.9,1.2-8.1,1.7-12.2,2.3
			c-12.4,1.8-21.7,7.7-27.2,19.3c-1.9,4-4.4,7.8-6.5,11.8c-5,9.1-10.7,17.7-20.2,23.3c9.3,16,18.4,31.8,28.1,48.6
			c0.8-2.9,1.3-4.5,1.7-6c4-15.1,8-30.2,12.1-45.2c1.9-7,5.2-8.8,12.2-7c1.1,0.3,2.2,0.6,3.4,0.9
			C343.4,381.9,358.9,386.1,375.6,390.6z"/>
		<path class="st0" d="M203.1,319.6c-68.7-0.4-124.4-56.3-124.1-124.6c0.2-69,56.6-124.7,125.6-124.2
			c68.2,0.5,123.8,56.9,123.4,124.9C327.5,264.3,271.5,319.9,203.1,319.6z M203.3,303.5c60,0.1,108.7-48.5,108.7-108.3
			c0-59.6-48.6-108.3-108.1-108.5C144,86.5,95.1,135,94.9,194.8C94.7,254.6,143.4,303.4,203.3,303.5z"/>
		<path class="st0" d="M186.2,226.9c1.5-1.4,2.8-2.6,4.1-3.9c24.7-24.7,49.4-49.4,74-74.1c1.3-1.3,2.5-2.7,4.1-3.6
			c3.4-2.1,6.8-1.8,9.6,1c3,2.9,3.3,6.5,1.1,10c-0.8,1.4-2.1,2.6-3.3,3.7c-27.2,27.3-54.5,54.6-81.7,81.9c-6.2,6.2-9.6,6.2-15.9-0.1
			c-15.8-15.7-31.5-31.5-47.2-47.3c-0.8-0.8-1.7-1.6-2.4-2.5c-2.9-3.4-2.9-7.9-0.1-10.9c3-3.3,7.6-3.6,11.2-0.3
			c4.7,4.3,9,8.8,13.5,13.3c9.8,9.7,19.5,19.5,29.3,29.3C183.6,224.5,184.9,225.6,186.2,226.9z"/>
	</g>
</g>
</svg>
