<?xml version="1.0" encoding="utf-8"?>
<!-- Generator: Adobe Illustrator 25.4.3, SVG Export Plug-In . SVG Version: 6.00 Build 0)  -->
<svg version="1.1" id="Layer_1" xmlns="http://www.w3.org/2000/svg" xmlns:xlink="http://www.w3.org/1999/xlink" x="0px" y="0px"
	 viewBox="0 0 58.2 58.2" style="enable-background:new 0 0 58.2 58.2;" xml:space="preserve">
<style type="text/css">
	.st0{fill:#FFFF00;}
</style>
<g>
	<circle class="st0" cx="29.1" cy="29.1" r="29.1"/>
	<g>
		<g>
			<path d="M35.9,26.3c0-0.7-0.1-1.2-0.3-1.7c-0.2-0.5-0.4-0.9-0.8-1.2c-0.3-0.3-0.8-0.6-1.2-0.8c-0.4-0.2-0.9-0.3-1.7-0.3
				c-0.7,0-1,0-2.8,0c-1.9,0-2.1,0-2.8,0c-0.7,0-1.2,0.2-1.7,0.3c-0.5,0.2-0.9,0.4-1.2,0.8c-0.3,0.3-0.6,0.8-0.8,1.2
				c-0.2,0.4-0.3,0.9-0.3,1.7c0,0.7,0,1,0,2.8c0,1.9,0,2.1,0,2.8c0,0.7,0.2,1.2,0.3,1.7c0.2,0.5,0.4,0.9,0.8,1.2
				c0.3,0.3,0.8,0.6,1.2,0.8c0.4,0.2,0.9,0.3,1.7,0.3c0.7,0,1,0,2.8,0c1.9,0,2.1,0,2.8,0c0.7,0,1.2-0.1,1.7-0.3c0.9-0.4,1.7-1.1,2-2
				c0.2-0.4,0.3-0.9,0.3-1.7c0-0.7,0-1,0-2.8C36,27.2,36,27,35.9,26.3z M34.7,31.9c0,0.7-0.1,1-0.2,1.3c-0.2,0.6-0.7,1.1-1.3,1.3
				c-0.2,0.1-0.6,0.2-1.3,0.2c-0.7,0-0.9,0-2.8,0s-2,0-2.8,0c-0.7,0-1-0.1-1.3-0.2c-0.3-0.1-0.6-0.3-0.8-0.5
				c-0.2-0.2-0.4-0.5-0.5-0.8c-0.1-0.2-0.2-0.6-0.2-1.3c0-0.7,0-0.9,0-2.8s0-2,0-2.8c0-0.7,0.1-1,0.2-1.3c0.1-0.3,0.3-0.6,0.5-0.8
				c0.2-0.2,0.5-0.4,0.8-0.5c0.2-0.1,0.6-0.2,1.3-0.2c0.7,0,0.9,0,2.8,0c1.8,0,2,0,2.8,0c0.7,0,1,0.1,1.3,0.2
				c0.3,0.1,0.6,0.3,0.8,0.5c0.2,0.2,0.4,0.5,0.5,0.8c0.1,0.2,0.2,0.6,0.2,1.3c0,0.7,0,0.9,0,2.8S34.7,31.2,34.7,31.9z"/>
			<path d="M29.1,25.6c-1.9,0-3.5,1.6-3.5,3.5s1.6,3.5,3.5,3.5c1.9,0,3.5-1.6,3.5-3.5S31,25.6,29.1,25.6z M29.1,31.4
				c-1.3,0-2.3-1-2.3-2.3c0-1.3,1-2.3,2.3-2.3c1.3,0,2.3,1,2.3,2.3C31.4,30.4,30.4,31.4,29.1,31.4z"/>
			<path d="M33.6,25.4c0,0.5-0.4,0.8-0.8,0.8c-0.5,0-0.8-0.4-0.8-0.8c0-0.5,0.4-0.8,0.8-0.8C33.2,24.6,33.6,25,33.6,25.4z"/>
		</g>
	</g>
</g>
</svg>
