<?xml version="1.0" encoding="utf-8"?>
<!-- Generator: Adobe Illustrator 26.0.3, SVG Export Plug-In . SVG Version: 6.00 Build 0)  -->
<svg version="1.1" id="Capa_1" xmlns="http://www.w3.org/2000/svg" xmlns:xlink="http://www.w3.org/1999/xlink" x="0px" y="0px"
	 viewBox="0 0 93.16 45.03" style="enable-background:new 0 0 93.16 45.03;" xml:space="preserve">
<path d="M2.08,23.21c0.57,0.82,1.03,1.74,1.73,2.44c5.72,5.74,11.48,11.43,17.24,17.14c1.53,1.52,3.53,1.66,4.98,0.37
	c1.54-1.38,1.58-3.62,0.04-5.15c-3.75-3.74-7.51-7.47-11.26-11.2c-0.22-0.22-0.43-0.45-0.78-0.82c0.5,0,0.84,0,1.17,0
	c23.98,0,47.97,0,71.95,0c1.97,0,3.28-0.84,3.78-2.43c0.67-2.13-0.81-4.33-3.04-4.5c-0.35-0.03-0.69-0.01-1.04-0.01
	c-23.87,0-47.74,0-71.6,0c-0.34,0-0.68,0-1.19,0c0.31-0.34,0.51-0.57,0.72-0.78c3.59-3.57,7.09-7.24,10.81-10.67
	c2.2-2.02,2.28-5.33-1.07-6.59c-0.52,0-1.04,0-1.56,0c-0.85,0.63-1.78,1.16-2.53,1.89C14.85,8.37,9.31,13.86,3.81,19.39
	C3.11,20.08,2.65,21,2.08,21.82C2.08,22.28,2.08,22.75,2.08,23.21z"/>
</svg>
