<?xml version="1.0" encoding="utf-8"?>
<!-- Generator: Adobe Illustrator 25.4.3, SVG Export Plug-In . SVG Version: 6.00 Build 0)  -->
<svg version="1.1" id="Layer_1" xmlns="http://www.w3.org/2000/svg" xmlns:xlink="http://www.w3.org/1999/xlink" x="0px" y="0px"
	 viewBox="0 0 58.2 58.2" style="enable-background:new 0 0 58.2 58.2;" xml:space="preserve">
<style type="text/css">
	.st0{fill:#FFFF00;}
</style>
<g>
	<circle class="st0" cx="29.1" cy="29.1" r="29.1"/>
	<g>
		<g>
			<path d="M36.8,36.8c-1.1,0-2.1,0-3.1,0c0-1.6,0-3.2,0-4.8c0-0.5,0-1.1-0.1-1.6c-0.1-0.7-0.6-1.2-1.3-1.2c-0.9-0.1-1.6,0.2-1.8,1
				c-0.2,0.6-0.3,1.2-0.3,1.8c0,1.6,0,3.3,0,4.9c-1.1,0-2.1,0-3.1,0c0-3.4,0-6.8,0-10.2c1,0,1.9,0,3,0c0,0.4,0,0.7,0.1,1
				c0.7-0.4,1.3-1,2.1-1.2c2.1-0.5,4.6,0,4.8,3.4C36.9,32.1,36.8,34.4,36.8,36.8z"/>
			<path d="M24.8,36.8c-1.1,0-2.1,0-3.1,0c0-3.4,0-6.8,0-10.2c1,0,2,0,3.1,0C24.8,30,24.8,33.3,24.8,36.8z"/>
			<path d="M23.3,25.1c-1,0-1.9-0.8-1.9-1.9c0-1,0.8-1.8,1.8-1.8c1,0,1.8,0.8,1.9,1.8C25.1,24.2,24.3,25.1,23.3,25.1z"/>
		</g>
	</g>
</g>
</svg>
