<?xml version="1.0" encoding="utf-8"?>
<!-- Generator: Adobe Illustrator 25.4.3, SVG Export Plug-In . SVG Version: 6.00 Build 0)  -->
<svg version="1.1" id="Layer_1" xmlns="http://www.w3.org/2000/svg" xmlns:xlink="http://www.w3.org/1999/xlink" x="0px" y="0px"
	 viewBox="0 0 50 50" style="enable-background:new 0 0 50 50;" xml:space="preserve">
<style type="text/css">
	.st0{fill:#FFFF00;}
</style>
<g>
	<circle cx="25" cy="25" r="23.5"/>
	<path class="st0" d="M12.3,26.2c1.3-1.3,2.5-2.6,3.8-4c1.8,1.8,3.4,3.5,5.2,5.2c4.4-4.4,8.7-8.7,12.9-12.9c1.3,1.3,2.6,2.6,3.8,3.8
		C32.5,23.7,26.9,29.3,21.2,35c-0.1-0.1-0.3-0.3-0.6-0.6c-2.5-2.5-5-5-7.5-7.5c-0.2-0.2-0.5-0.4-0.8-0.6
		C12.3,26.3,12.3,26.2,12.3,26.2z"/>
</g>
</svg>
