<?xml version="1.0" encoding="utf-8"?>
<!-- Generator: Adobe Illustrator 25.4.3, SVG Export Plug-In . SVG Version: 6.00 Build 0)  -->
<svg version="1.1" id="Layer_1" xmlns="http://www.w3.org/2000/svg" xmlns:xlink="http://www.w3.org/1999/xlink" x="0px" y="0px"
	 viewBox="0 0 65.4 67.2" style="enable-background:new 0 0 65.4 67.2;" xml:space="preserve">
<style type="text/css">
	.st0{fill:#FFFF00;}
	.st1{fill:none;stroke:#E7E800;stroke-miterlimit:10;}
</style>
<g>
	<g>
		<path class="st0" d="M63.6,21.6c1.2,3.1-2.2,7.2-2,10.4c0.2,3.3,4,7,3.2,10.1c-0.8,3.1-6,4.5-7.8,7.2c-1.7,2.7-0.8,8-3.3,10.1
			c-2.5,2-7.4,0-10.5,1.3s-5.4,6-8.6,6.2c-3.3,0.2-6.1-4.3-9.2-5.2c-3.1-0.8-7.8,1.7-10.6-0.1c-2.7-1.7-2.4-7.1-4.5-9.6
			c-2-2.5-7.3-3.1-8.5-6.3s2.2-7.2,2-10.4c-0.2-3.3-4-7-3.2-10.1c0.8-3.1,6-4.5,7.8-7.2c1.7-2.7,0.8-8,3.3-10.1
			c2.5-2,7.4,0,10.5-1.3c3.1-1.2,5.4-6,8.6-6.2c3.3-0.2,6.1,4.3,9.2,5.2c3.1,0.8,7.8-1.7,10.6,0.1c2.7,1.7,2.4,7.1,4.5,9.6
			C57.1,17.8,62.4,18.5,63.6,21.6z"/>
		<path class="st1" d="M63.6,21.6c1.2,3.1-2.2,7.2-2,10.4c0.2,3.3,4,7,3.2,10.1c-0.8,3.1-6,4.5-7.8,7.2c-1.7,2.7-0.8,8-3.3,10.1
			c-2.5,2-7.4,0-10.5,1.3s-5.4,6-8.6,6.2c-3.3,0.2-6.1-4.3-9.2-5.2c-3.1-0.8-7.8,1.7-10.6-0.1c-2.7-1.7-2.4-7.1-4.5-9.6
			c-2-2.5-7.3-3.1-8.5-6.3s2.2-7.2,2-10.4c-0.2-3.3-4-7-3.2-10.1c0.8-3.1,6-4.5,7.8-7.2c1.7-2.7,0.8-8,3.3-10.1
			c2.5-2,7.4,0,10.5-1.3c3.1-1.2,5.4-6,8.6-6.2c3.3-0.2,6.1,4.3,9.2,5.2c3.1,0.8,7.8-1.7,10.6,0.1c2.7,1.7,2.4,7.1,4.5,9.6
			C57.1,17.8,62.4,18.5,63.6,21.6z"/>
	</g>
	<g>
		<path d="M10.2,39.8l5.1-2l1,2.6l-5.1,2L10.2,39.8z"/>
		<path d="M16.9,30.9c2.2-0.8,2.3-2.1,2.2-3.5l1.9-0.7l7,17.9l-2.8,1.1l-5.3-13.7l-2.2,0.8L16.9,30.9z"/>
		<path d="M31.6,36.5l0.6,1.7c0.5,1.3,1.2,1.5,2.1,1.2s1.3-1,0.8-2.3l-1.5-3.9c-0.5-1.3-1.2-1.5-2.1-1.2c-0.9,0.3-1.3,1.1-0.8,2.3
			l0.2,0.5l-2.7,1l-3.5-10.6l7.4-2.9l1,2.6l-4.9,1.9l1.4,4.4l0.1,0c0.2-1,0.8-1.8,1.9-2.2c2.1-0.8,3.7,0.2,4.7,2.9l1.6,4
			c1.1,2.9,0.3,5.1-2.4,6.1c-2.8,1.1-4.8,0-5.9-2.9L29,37.6L31.6,36.5z"/>
		<path d="M35.4,24.3c-0.7-1.8-0.2-3.2,1.6-3.9c1.8-0.7,3.1,0,3.8,1.8l2.3,5.9c0.7,1.8,0.2,3.2-1.6,3.9c-1.8,0.7-3.1,0-3.8-1.8
			L35.4,24.3z M39.5,29.6c0.3,0.8,0.8,1,1.4,0.8c0.6-0.2,0.8-0.7,0.5-1.5L39,22.7c-0.3-0.8-0.8-1-1.4-0.8c-0.6,0.2-0.8,0.7-0.5,1.5
			L39.5,29.6z M44.1,17.7l1.7-0.6l-0.1,20.6L44,38.4L44.1,17.7z M46.8,27.3c-0.7-1.8-0.2-3.2,1.6-3.9c1.8-0.7,3.1,0,3.8,1.8l2.3,5.9
			c0.7,1.8,0.2,3.2-1.6,3.9c-1.8,0.7-3.1,0-3.8-1.8L46.8,27.3z M51,32.7c0.3,0.8,0.8,1,1.4,0.8c0.6-0.2,0.8-0.7,0.5-1.5l-2.4-6.1
			c-0.3-0.8-0.8-1-1.4-0.8c-0.6,0.2-0.8,0.7-0.5,1.5L51,32.7z"/>
	</g>
</g>
</svg>
