<svg id="Capa_1" data-name="Capa 1" xmlns="http://www.w3.org/2000/svg" viewBox="0 0 81 81"><defs><style>.cls-1{fill:#ff0;}</style></defs><path class="cls-1" d="M67.69,29.24a20.11,20.11,0,0,0-1.27-6.63,14,14,0,0,0-8-8,20.17,20.17,0,0,0-6.63-1.27c-2.93-.14-3.86-.17-11.28-.17s-8.35,0-11.26.16a20.12,20.12,0,0,0-6.64,1.27,13.24,13.24,0,0,0-4.84,3.16,13.38,13.38,0,0,0-3.15,4.84,19.61,19.61,0,0,0-1.27,6.63c-.14,2.93-.18,3.85-.18,11.28s0,8.35.16,11.26a19.78,19.78,0,0,0,1.28,6.63,14,14,0,0,0,8,8,20.17,20.17,0,0,0,6.63,1.27c2.92.13,3.85.16,11.27.16s8.35,0,11.27-.16A20.11,20.11,0,0,0,58.4,66.4a14,14,0,0,0,8-8,20.11,20.11,0,0,0,1.27-6.63c.12-2.91.16-3.84.16-11.26S67.81,32.16,67.69,29.24ZM62.76,51.56a14.61,14.61,0,0,1-.94,5.07,9,9,0,0,1-5.19,5.19,15.17,15.17,0,0,1-5.07.94c-2.88.13-3.75.16-11,.16s-8.17,0-11-.16a15.11,15.11,0,0,1-5.07-.94,8.33,8.33,0,0,1-3.14-2,8.49,8.49,0,0,1-2-3.14,14.92,14.92,0,0,1-.94-5.07c-.13-2.88-.16-3.75-.16-11s0-8.17.16-11a14.93,14.93,0,0,1,.94-5.08,8.39,8.39,0,0,1,2.05-3.14,8.61,8.61,0,0,1,3.14-2,15.17,15.17,0,0,1,5.07-.94c2.88-.12,3.75-.16,11-.16s8.17,0,11,.16a15.25,15.25,0,0,1,5.08.94,9,9,0,0,1,5.17,5.18,14.74,14.74,0,0,1,.94,5.08c.13,2.88.16,3.74.16,11S62.89,48.67,62.76,51.56Z"/><path class="cls-1" d="M40.51,26.46a14,14,0,1,0,14,14A14,14,0,0,0,40.51,26.46Zm0,23.15a9.11,9.11,0,1,1,9.11-9.1A9.1,9.1,0,0,1,40.51,49.61Z"/><path class="cls-1" d="M58.39,25.91a3.28,3.28,0,1,1-3.28-3.28A3.28,3.28,0,0,1,58.39,25.91Z"/></svg>