<svg id="Capa_1" data-name="Capa 1" xmlns="http://www.w3.org/2000/svg" viewBox="0 0 81 81"><defs><style>.cls-1{fill:#ff0;}</style></defs><path class="cls-1" d="M71,71.08H58.5c0-6.48,0-12.84,0-19.21a42.15,42.15,0,0,0-.54-6.55,5.31,5.31,0,0,0-5.26-4.84c-3.72-.28-6.31.87-7.3,3.88a24.32,24.32,0,0,0-1.11,7c-.14,6.48,0,13,0,19.64H31.67V30.47H43.51l.25,4C46.4,33,49,30.63,51.93,29.91c8.37-2.06,18.14.06,19,13.36C71.48,52.41,71,61.63,71,71.08Z"/><path class="cls-1" d="M23.33,71.14H10.94V30.49H23.33Z"/><path class="cls-1" d="M17.23,24.54a7.27,7.27,0,0,1-7.42-7.39A7.2,7.2,0,0,1,17,9.86a7.17,7.17,0,0,1,7.41,7.06A7.25,7.25,0,0,1,17.23,24.54Z"/></svg>