<?xml version="1.0" encoding="utf-8"?>
<!-- Generator: Adobe Illustrator 25.4.3, SVG Export Plug-In . SVG Version: 6.00 Build 0)  -->
<svg version="1.1" id="Layer_1" xmlns="http://www.w3.org/2000/svg" xmlns:xlink="http://www.w3.org/1999/xlink" x="0px" y="0px"
	 viewBox="0 0 59.1 59.1" style="enable-background:new 0 0 59.1 59.1;" xml:space="preserve">
<style type="text/css">
	.st0{fill:#FFFF00;}
</style>
<g>
	<polygon class="st0" points="0,59.1 0,0 59.1,0 	"/>
	<g>
		<path d="M21.1,18.6c0.4,0.3,0.8,0.6,1,1.1c0.3,0.5,0.4,1,0.4,1.7c0,1.3-0.6,2.4-1.9,3.2c-1.2,0.9-2.8,1.3-4.8,1.3
			c-1.4,0-2.6-0.3-3.6-0.9c-1-0.6-1.5-1.3-1.5-2.2c0-0.5,0.2-0.9,0.5-1.3c0.3-0.3,0.7-0.5,1.3-0.5c0.5,0,1,0.1,1.3,0.4
			c0.4,0.3,0.5,0.7,0.5,1.2c0,0.3-0.1,0.7-0.2,1.1c-0.1,0.4-0.2,0.7-0.3,0.9c0.2,0.1,0.4,0.1,0.6,0.2s0.5,0.1,0.9,0.1
			c0.4,0,0.8-0.1,1.2-0.2s0.7-0.3,1-0.6c0.3-0.3,0.5-0.7,0.7-1.1c0.2-0.4,0.2-1,0.2-1.7c0-0.4,0-0.8-0.1-1.1
			c-0.1-0.4-0.2-0.7-0.4-0.9c-0.2-0.3-0.5-0.5-0.8-0.6s-0.8-0.2-1.3-0.2h-1.3v-1.3h0.9c0.9,0,1.5-0.3,1.9-0.8s0.6-1.3,0.6-2.4
			c0-0.9-0.2-1.5-0.6-1.9c-0.4-0.4-0.9-0.6-1.6-0.6c-0.3,0-0.5,0-0.7,0c-0.2,0-0.4,0.1-0.6,0.2c0.1,0.2,0.2,0.6,0.3,1
			c0.1,0.4,0.2,0.8,0.2,1.1c0,0.5-0.2,0.9-0.5,1.2s-0.8,0.4-1.3,0.4c-0.5,0-0.9-0.2-1.2-0.5c-0.3-0.3-0.5-0.8-0.5-1.2
			c0-0.9,0.5-1.6,1.5-2.2c1-0.6,2.2-0.9,3.8-0.9c1,0,1.9,0.1,2.6,0.4s1.2,0.5,1.6,0.9c0.4,0.3,0.7,0.7,0.8,1.1
			c0.1,0.4,0.2,0.8,0.2,1.1c0,0.3-0.1,0.7-0.2,1c-0.1,0.4-0.3,0.7-0.6,1c-0.3,0.4-0.7,0.7-1.2,0.9s-1.1,0.5-1.7,0.6v0.2
			c0.5,0,0.9,0.1,1.5,0.2S20.7,18.3,21.1,18.6z"/>
	</g>
</g>
</svg>
