<?xml version="1.0" encoding="utf-8"?>
<!-- Generator: Adobe Illustrator 25.4.3, SVG Export Plug-In . SVG Version: 6.00 Build 0)  -->
<svg version="1.1" id="Layer_1" xmlns="http://www.w3.org/2000/svg" xmlns:xlink="http://www.w3.org/1999/xlink" x="0px" y="0px"
	 viewBox="0 0 59.1 59.1" style="enable-background:new 0 0 59.1 59.1;" xml:space="preserve">
<style type="text/css">
	.st0{fill:#FFFF00;}
</style>
<g>
	<polygon class="st0" points="0,59.1 0,0 59.1,0 	"/>
	<g>
		<path d="M22.7,22.1H11.4v-1.9c0.5-0.5,1-1,1.6-1.4c0.6-0.4,1.2-0.8,1.8-1.1c0.6-0.3,1.2-0.6,1.6-0.9s0.8-0.5,1-0.8
			c0.3-0.3,0.4-0.6,0.5-0.9c0.1-0.3,0.2-0.7,0.2-1.1c0-0.9-0.2-1.5-0.6-1.9c-0.4-0.4-1-0.6-1.7-0.6c-0.2,0-0.4,0-0.6,0
			s-0.4,0.1-0.6,0.2c0.1,0.3,0.2,0.6,0.3,1c0.1,0.3,0.1,0.7,0.1,1.1c0,0.5-0.2,0.9-0.5,1.2c-0.4,0.3-0.8,0.4-1.4,0.4
			c-0.5,0-0.9-0.2-1.2-0.5c-0.3-0.3-0.5-0.8-0.5-1.2c0-0.8,0.5-1.6,1.5-2.2c1-0.6,2.2-0.9,3.6-0.9c1.6,0,3,0.3,4,0.8
			c1,0.6,1.5,1.5,1.5,2.7c0,0.6-0.1,1.2-0.4,1.6c-0.3,0.4-0.7,0.7-1.2,1c-0.5,0.3-1,0.5-1.5,0.7c-0.6,0.2-1.2,0.3-1.8,0.5
			c-0.7,0.2-1.3,0.4-1.8,0.6c-0.5,0.2-1,0.4-1.4,0.7v0.1h8.7V22.1z"/>
	</g>
</g>
</svg>
