<?xml version="1.0" encoding="utf-8"?>
<!-- Generator: Adobe Illustrator 25.4.3, SVG Export Plug-In . SVG Version: 6.00 Build 0)  -->
<svg version="1.1" id="Capa_1" xmlns="http://www.w3.org/2000/svg" xmlns:xlink="http://www.w3.org/1999/xlink" x="0px" y="0px"
	 viewBox="0 0 90 90" style="enable-background:new 0 0 90 90;" xml:space="preserve">
<style type="text/css">
	.st0{fill:#FFFFFF;}
</style>
<circle class="st0" cx="45" cy="45" r="45"/>
<path d="M34.2,28.9c1.3,0,2.2,0.6,2.8,2.1c0.4,1,0.7,2,1.2,2.9c1.5,2.6,1.7,4.9-0.8,7.1c-0.4,0.4-0.4,1.7-0.1,2.3
	c2.4,4.1,5.8,7.2,10.1,9.2c0.6,0.3,1.2,0.4,1.7,0.4c0.9,0,1.7-0.5,2.4-1.5c1.3-1.7,1.8-2.5,2.7-2.5c0.7,0,1.5,0.4,3,1.1
	c0.8,0.4,1.5,0.7,2.3,1.1c3.4,1.6,4,4.8,1.1,7.4c-1.7,1.6-3.7,2.6-6,2.6c-0.6,0-1.2-0.1-1.8-0.2c-11.4-2.5-19-9.5-24-19.8
	c-0.6-1.3-0.7-2.7-1.1-4.1c0.3-4.2,2.4-7.3,5.4-8C33.5,28.9,33.8,28.9,34.2,28.9 M34.2,25.8c-0.5,0-1.1,0.1-1.7,0.2
	c-4.4,0.9-7.5,5.1-8,10.8l0,0.5l0.1,0.5c0.1,0.4,0.2,0.8,0.3,1.2c0.2,1.1,0.5,2.3,1.1,3.5c5.7,11.7,14.5,19,26.2,21.5
	c0.8,0.2,1.6,0.3,2.4,0.3c2.9,0,5.7-1.1,8.1-3.4c2.2-2,3.1-4.4,2.8-6.9c-0.4-2.4-2-4.5-4.7-5.7l-1-0.5l-1.2-0.6
	c-1.8-0.8-2.9-1.4-4.3-1.4c-2.5,0-3.9,1.8-5.3,3.8c0,0-0.1,0.1-0.1,0.1c0,0-0.1,0-0.1-0.1c-3.5-1.6-6.3-4-8.3-7.2
	c1.9-2.2,3.2-5.5,0.5-10.1c-0.3-0.4-0.5-1.1-0.7-1.7l-0.3-0.8C38.9,27.3,36.8,25.8,34.2,25.8L34.2,25.8z"/>
</svg>
