<?xml version="1.0" encoding="utf-8"?>
<!-- Generator: Adobe Illustrator 25.4.3, SVG Export Plug-In . SVG Version: 6.00 Build 0)  -->
<svg version="1.1" id="Capa_1" xmlns="http://www.w3.org/2000/svg" xmlns:xlink="http://www.w3.org/1999/xlink" x="0px" y="0px"
	 viewBox="0 0 386.9 118.2" style="enable-background:new 0 0 386.9 118.2;" xml:space="preserve">
<g>
	<g>
		<g>
			<path d="M138,62h-15c-2.6-4-4.7-7.1-6.5-9.5c-1.7-2.4-3.9-5.1-6.4-8.2h-1.5v11.9c0,0.7,0.1,1.2,0.4,1.7c0.2,0.5,0.7,0.8,1.4,1.2
				c0.3,0.1,0.9,0.3,1.6,0.5s1.4,0.3,1.9,0.3V62H93.1v-2.2c0.5-0.1,1.2-0.1,2.1-0.2c0.9-0.1,1.5-0.2,1.9-0.4
				c0.7-0.3,1.2-0.7,1.4-1.1c0.2-0.5,0.4-1,0.4-1.7V28.8c0-0.7-0.1-1.2-0.3-1.7c-0.2-0.4-0.7-0.8-1.5-1.2c-0.6-0.2-1.3-0.4-2.1-0.6
				c-0.8-0.2-1.4-0.3-1.9-0.4v-2.2H115c4.9,0,8.6,0.8,11.2,2.3c2.5,1.5,3.8,3.9,3.8,7c0,2.7-0.8,4.9-2.4,6.6s-4,3-7.2,3.9
				c1.2,1.6,2.7,3.5,4.4,5.6s3.4,4.3,5.2,6.5c0.6,0.7,1.3,1.6,2.3,2.6s1.9,1.7,2.6,1.9c0.4,0.1,1,0.2,1.6,0.3s1.1,0.1,1.4,0.2
				L138,62L138,62z M119.2,32.9c0-2.6-0.7-4.5-2.2-5.7s-3.5-1.8-6.2-1.8h-2.2v16.4h2.1c2.7,0,4.8-0.7,6.3-2.1
				C118.5,38.2,119.2,36,119.2,32.9z"/>
			<path d="M180.6,62h-21.3v-2.2c1-0.1,2.2-0.3,3.5-0.5c1.3-0.3,2-0.6,2-1.1c0-0.1,0-0.3,0-0.5s-0.1-0.4-0.2-0.7l-3.3-8.1h-13.5
				c-0.3,0.8-0.7,1.6-1,2.6c-0.4,1-0.7,1.9-1,2.7c-0.3,1-0.6,1.8-0.6,2.2c-0.1,0.5-0.1,0.8-0.1,1c0,0.6,0.4,1.1,1.3,1.5
				c0.9,0.4,2.4,0.7,4.4,0.9V62h-16v-2.2c0.6,0,1.3-0.1,2.1-0.3s1.4-0.4,1.8-0.6c0.8-0.4,1.4-1,1.9-1.6s1-1.4,1.3-2.3
				c2.1-5.2,4.3-10.3,6.4-15.5s4.5-10.9,7.1-17.1h5.5c3.6,8.9,6.4,15.9,8.5,21c2,5.1,3.8,9.4,5.2,12.8c0.2,0.6,0.5,1.1,0.9,1.5
				s0.9,0.9,1.6,1.3c0.5,0.3,1.1,0.5,1.8,0.7s1.3,0.2,1.8,0.3L180.6,62L180.6,62z M160,46.2L154.4,32l-5.6,14.1H160V46.2z"/>
			<path d="M217.5,48.8L216.2,62h-36.7v-1.7l25.3-34.9h-8.6c-1.7,0-3,0.1-3.8,0.2s-1.5,0.3-2.2,0.6c-0.8,0.3-1.7,1.1-2.6,2.3
				s-2.2,3.4-3.8,6.3h-2.2l1.2-11.9h34v1.7l-25.3,34.9h9.8c3.1,0,5.2-0.1,6.3-0.4c1.1-0.2,1.9-0.7,2.4-1.3c1-1.3,2-2.7,2.9-4.2
				s1.7-3.1,2.5-4.8H217.5z"/>
			<path d="M256,27.2c1.9,1.8,3.5,3.9,4.6,6.4s1.7,5.3,1.7,8.5c0,2.8-0.5,5.6-1.4,8.1s-2.3,4.8-4.1,6.6c-1.9,1.9-4.1,3.4-6.7,4.5
				c-2.6,1.1-5.6,1.6-9.1,1.6c-2.8,0-5.5-0.5-8.1-1.4c-2.5-0.9-4.8-2.3-6.7-4.1c-1.9-1.7-3.4-3.9-4.5-6.4s-1.7-5.3-1.7-8.4
				c0-3.2,0.5-6.1,1.6-8.7s2.6-4.8,4.5-6.7c1.9-1.8,4.1-3.2,6.7-4.2c2.6-1,5.4-1.5,8.3-1.5c2.9,0,5.7,0.5,8.2,1.4
				C251.9,24.2,254.1,25.5,256,27.2z M248.9,55.2c0.8-1.7,1.4-3.6,1.8-5.7c0.4-2.1,0.6-4.5,0.6-7.2c0-2.3-0.2-4.5-0.5-6.6
				s-0.9-4.1-1.6-5.7c-0.8-1.7-1.8-3-3.1-4s-2.9-1.5-4.9-1.5c-3.3,0-5.9,1.6-7.6,4.7c-1.7,3.2-2.6,7.6-2.6,13.4
				c0,2.4,0.2,4.8,0.6,6.9c0.4,2.2,1,4.1,1.8,5.7c0.8,1.6,1.9,2.9,3.1,3.8c1.3,0.9,2.8,1.4,4.7,1.4c1.8,0,3.4-0.5,4.7-1.4
				C247.1,58.1,248.1,56.8,248.9,55.2z"/>
			<path d="M311.1,25c-0.5,0.1-1.2,0.2-2.2,0.3c-1,0.1-1.8,0.5-2.6,1.1c-0.7,0.5-1.2,1.3-1.4,2.6c-0.3,1.2-0.4,3-0.4,5.3v28h-4.9
				L275.1,32v18.4c0,2.3,0.2,4,0.5,5.2s0.8,2.1,1.5,2.6c0.5,0.4,1.3,0.8,2.4,1.1s1.9,0.5,2.6,0.6V62h-16.8v-2.2
				c0.7-0.1,1.5-0.2,2.5-0.4c0.9-0.2,1.7-0.5,2.3-1c0.7-0.5,1.2-1.3,1.5-2.4s0.4-2.9,0.4-5.4V32.1c0-0.9-0.1-1.8-0.4-2.6
				c-0.3-0.8-0.7-1.5-1.3-2.1c-0.6-0.6-1.4-1.1-2.2-1.5c-0.8-0.4-1.8-0.6-2.9-0.8v-2.2h14.7l21.4,26.5V34.5c0-2.4-0.2-4.1-0.5-5.2
				s-0.8-2-1.5-2.5c-0.5-0.4-1.3-0.8-2.4-1.1c-1-0.3-1.9-0.5-2.5-0.6v-2.2h16.8V25H311.1z"/>
			<path d="M348.2,32.9h-2.1c-0.5-1.5-1.5-3-2.8-4.5s-2.6-2.4-3.9-2.7c-0.6-0.1-1.3-0.2-2.3-0.2s-1.8,0-2.4,0H329v15.1h4
				c1,0,1.9-0.1,2.8-0.4c0.8-0.2,1.6-0.7,2.3-1.4c0.4-0.4,0.9-1.2,1.3-2.2c0.4-1.1,0.7-2,0.8-2.8h2.1V50h-2.1
				c-0.1-0.8-0.4-1.7-0.8-2.9s-0.9-2-1.3-2.4c-0.6-0.7-1.3-1.1-2.1-1.4s-1.8-0.4-2.9-0.4h-4v11.3c0,1.2,0.1,2.1,0.3,2.8
				c0.2,0.7,0.5,1.2,1,1.6c0.5,0.3,1.1,0.6,1.9,0.7c0.8,0.1,1.9,0.2,3.3,0.2c0.6,0,1.4,0,2.3,0s1.7-0.1,2.4-0.2
				c0.8-0.1,1.5-0.2,2.2-0.4s1.2-0.5,1.5-0.8c0.9-0.9,1.9-2.3,3-4.1s1.8-3.2,2.2-4.1h2l-1,12.1h-36.7v-2.2c0.5,0,1.2-0.1,2.1-0.2
				c0.9-0.1,1.5-0.2,1.9-0.4c0.7-0.3,1.2-0.7,1.4-1.1s0.4-1,0.4-1.7V28.8c0-0.7-0.1-1.2-0.3-1.6c-0.2-0.4-0.7-0.8-1.5-1.2
				c-0.5-0.2-1.1-0.4-2-0.6s-1.5-0.3-2-0.4v-2.2h34.7V32.9z"/>
			<path d="M370.7,63.1c-2.4,0-4.6-0.3-6.7-0.9c-2.1-0.6-3.8-1.3-5.3-2.1l-1.9,1.9h-2.3l-0.4-14.1h2.4c0.5,1.3,1.2,2.8,2,4.3
				s1.8,2.8,2.9,4s2.4,2.2,3.8,3s3,1.2,4.9,1.2c2.5,0,4.4-0.6,5.7-1.8c1.3-1.2,2-2.8,2-4.6c0-1.5-0.6-2.8-1.7-3.8s-2.9-1.9-5.3-2.7
				c-1.5-0.5-3-1-4.3-1.4s-2.5-0.9-3.7-1.3c-2.6-1-4.6-2.5-5.9-4.5s-1.9-4.1-1.9-6.5c0-1.5,0.3-3,1-4.4s1.6-2.7,2.9-3.8
				c1.2-1,2.8-1.9,4.7-2.6c1.9-0.7,4-1,6.2-1s4.2,0.3,6.1,0.9s3.4,1.2,4.5,1.8l1.7-1.7h2.4l0.2,13.3h-2.4c-0.6-1.4-1.2-2.9-1.9-4.4
				c-0.7-1.5-1.5-2.8-2.4-3.7c-0.9-1.1-1.9-1.9-3.1-2.6c-1.2-0.6-2.6-1-4.1-1c-2,0-3.6,0.6-4.9,1.7s-1.9,2.5-1.9,4.2
				c0,1.6,0.5,2.8,1.6,3.8s2.8,1.9,5.1,2.6c1.4,0.5,2.7,0.9,4.2,1.4c1.4,0.5,2.7,0.9,3.8,1.3c2.7,1,4.7,2.5,6.1,4.3s2.1,4.1,2.1,6.7
				c0,1.7-0.4,3.3-1.2,4.9c-0.8,1.6-1.9,2.9-3.2,3.9c-1.5,1.2-3.2,2.1-5.1,2.7C375.5,62.8,373.2,63.1,370.7,63.1z"/>
		</g>
	</g>
	<g>
		<g>
			<path d="M86.3,9.7L26.7,118.2H14.5L69.6,22H32.1c-4.7,0-8.4,0-11.1,0.1s-5.1,0.6-7.4,1.6c-1.8,0.8-3.3,2.7-4.6,5.7
				c-1.2,3-2.3,6.6-3,10.9H0V0h86.3V9.7z"/>
		</g>
	</g>
	<g>
		<g>
			<path d="M103,78.9V81c0,2.6-1.2,4-3.8,4H98v6h-2.5V75h3.7C101.7,75,103,76.4,103,78.9z M98,77.3v5.4h1.2c0.8,0,1.2-0.4,1.2-1.5
				v-2.4c0-1.1-0.4-1.5-1.2-1.5H98z"/>
			<path d="M112.3,91.1h-2.6l-0.4-2.9h-3.1l-0.4,2.9h-2.3l2.6-16.1h3.7L112.3,91.1z M106.6,86h2.4l-1.2-8.1l0,0L106.6,86z"/>
			<path d="M118.8,91.1c-0.1-0.4-0.2-0.7-0.2-2v-2.5c0-1.5-0.5-2-1.7-2H116v6.6h-2.5V75h3.8c2.6,0,3.7,1.2,3.7,3.7V80
				c0,1.7-0.5,2.7-1.7,3.2l0,0c1.3,0.5,1.7,1.7,1.7,3.4v2.5c0,0.8,0,1.4,0.3,2H118.8z M116,77.3v4.9h1c0.9,0,1.5-0.4,1.5-1.7v-1.6
				c0-1.1-0.4-1.7-1.3-1.7L116,77.3L116,77.3z"/>
			<path d="M130.9,91.1h-2.6l-0.4-2.9h-3.1l-0.4,2.9h-2.3l2.6-16.1h3.7L130.9,91.1z M125.2,86h2.4l-1.2-8.1l0,0L125.2,86z"/>
			<path d="M138.2,82.1h3.3v2.3h-3.3V91h-2.5V75h6.7v2.3h-4.2V82.1z"/>
			<path d="M148.9,91.1c-0.1-0.4-0.2-0.7-0.2-2v-2.5c0-1.5-0.5-2-1.7-2h-0.9v6.6h-2.5V75h3.8c2.6,0,3.7,1.2,3.7,3.7V80
				c0,1.7-0.5,2.7-1.7,3.2l0,0c1.3,0.5,1.7,1.7,1.7,3.4v2.5c0,0.8,0,1.4,0.3,2H148.9z M146.1,77.3v4.9h1c0.9,0,1.5-0.4,1.5-1.7v-1.6
				c0-1.1-0.4-1.7-1.3-1.7L146.1,77.3L146.1,77.3z"/>
			<path d="M161,91.1h-2.6l-0.4-2.9h-3.1l-0.4,2.9h-2.3l2.6-16.1h3.7L161,91.1z M155.3,86h2.4l-1.2-8.1l0,0L155.3,86z"/>
			<path d="M164.5,79.4L164.5,79.4v11.7h-2.3V75h3.2l2.6,9.6l0,0V75h2.3v16.1h-2.6L164.5,79.4z"/>
			<path d="M171.8,78.8c0-2.6,1.4-4,3.8-4s3.8,1.5,3.8,4v8.4c0,0.9-0.2,1.7-0.5,2.3c0.1,0.3,0.3,0.3,0.7,0.3h0.2V92h-0.3
				c-1.1,0-1.8-0.4-2.2-1.1c-0.5,0.2-1.1,0.3-1.8,0.3c-2.5,0-3.8-1.5-3.8-4v-8.4H171.8z M174.4,87.4c0,1.1,0.5,1.6,1.3,1.6
				s1.3-0.4,1.3-1.6v-8.7c0-1.1-0.5-1.6-1.3-1.6s-1.3,0.4-1.3,1.6V87.4z"/>
			<path d="M183.6,75v12.4c0,1.2,0.5,1.6,1.3,1.6s1.3-0.4,1.3-1.6V75h2.4v12.3c0,2.6-1.3,4-3.8,4s-3.8-1.5-3.8-4V75H183.6z"/>
			<path d="M190.3,75h2.5v16.1h-2.5V75z"/>
			<path d="M202,85.1v2.1c0,2.6-1.3,4-3.8,4s-3.8-1.5-3.8-4v-8.4c0-2.6,1.3-4,3.8-4s3.8,1.5,3.8,4v1.6h-2.4v-1.7
				c0-1.1-0.5-1.6-1.3-1.6s-1.3,0.4-1.3,1.6v8.7c0,1.1,0.5,1.6,1.3,1.6s1.3-0.4,1.3-1.6v-2.3C199.6,85.1,202,85.1,202,85.1z"/>
			<path d="M203.5,75h2.5v16.1h-2.5V75z"/>
			<path d="M216.1,91.1h-2.6l-0.4-2.9H210l-0.4,2.9h-2.3l2.6-16.1h3.7L216.1,91.1z M210.3,86h2.4l-1.2-8.1l0,0L210.3,86z"/>
			<path d="M222.6,91.1c-0.1-0.4-0.2-0.7-0.2-2v-2.5c0-1.5-0.5-2-1.7-2h-0.9v6.6h-2.5V75h3.8c2.6,0,3.7,1.2,3.7,3.7V80
				c0,1.7-0.5,2.7-1.7,3.2l0,0c1.3,0.5,1.7,1.7,1.7,3.4v2.5c0,0.8,0,1.4,0.3,2H222.6z M219.8,77.3v4.9h1c0.9,0,1.5-0.4,1.5-1.7v-1.6
				c0-1.1-0.4-1.7-1.3-1.7L219.8,77.3L219.8,77.3z"/>
			<path d="M102.8,109.1v2.1c0,2.6-1.3,4-3.8,4s-3.8-1.5-3.8-4v-8.4c0-2.6,1.3-4,3.8-4s3.8,1.5,3.8,4v1.6h-2.4v-1.7
				c0-1.1-0.5-1.6-1.3-1.6s-1.3,0.4-1.3,1.6v8.7c0,1.1,0.5,1.6,1.3,1.6s1.3-0.4,1.3-1.6v-2.3C100.4,109.1,102.8,109.1,102.8,109.1z"
				/>
			<path d="M104.2,102.8c0-2.6,1.4-4,3.8-4s3.8,1.5,3.8,4v8.4c0,2.6-1.4,4-3.8,4s-3.8-1.5-3.8-4V102.8z M106.7,111.4
				c0,1.1,0.5,1.6,1.3,1.6s1.3-0.4,1.3-1.6v-8.7c0-1.1-0.5-1.6-1.3-1.6s-1.3,0.4-1.3,1.6V111.4z"/>
			<path d="M115.8,103.4L115.8,103.4v11.7h-2.3V99h3.2l2.6,9.6l0,0V99h2.3v16.1H119L115.8,103.4z"/>
			<path d="M129.2,103.4L129.2,103.4v11.7h-2.3V99h3.2l2.6,9.6l0,0V99h2.3v16.1h-2.6L129.2,103.4z"/>
			<path d="M136.5,102.8c0-2.6,1.4-4,3.8-4s3.8,1.5,3.8,4v8.4c0,2.6-1.4,4-3.8,4s-3.8-1.5-3.8-4V102.8z M139,111.4
				c0,1.1,0.5,1.6,1.3,1.6s1.3-0.4,1.3-1.6v-8.7c0-1.1-0.5-1.6-1.3-1.6s-1.3,0.4-1.3,1.6V111.4z"/>
			<path d="M149.2,98.8c2.5,0,3.7,1.5,3.7,4v0.5h-2.4v-0.7c0-1.1-0.5-1.6-1.3-1.6s-1.3,0.4-1.3,1.6s0.5,2,2.2,3.5
				c2.1,1.9,2.8,3.2,2.8,5c0,2.6-1.3,4-3.8,4s-3.8-1.5-3.8-4v-1h2.4v1.1c0,1.1,0.5,1.6,1.3,1.6s1.3-0.4,1.3-1.6s-0.5-2-2.2-3.5
				c-2.1-1.9-2.8-3.2-2.8-5C145.5,100.3,146.7,98.8,149.2,98.8z"/>
			<path d="M154.2,102.8c0-2.6,1.4-4,3.8-4s3.8,1.5,3.8,4v8.4c0,2.6-1.4,4-3.8,4s-3.8-1.5-3.8-4V102.8z M156.7,111.4
				c0,1.1,0.5,1.6,1.3,1.6s1.3-0.4,1.3-1.6v-8.7c0-1.1-0.5-1.6-1.3-1.6s-1.3,0.4-1.3,1.6V111.4z"/>
			<path d="M162.8,99h7.8v2.3H168v13.8h-2.5v-13.8h-2.6L162.8,99L162.8,99z"/>
			<path d="M177,115.1c-0.1-0.4-0.2-0.7-0.2-2v-2.5c0-1.5-0.5-2-1.7-2h-0.9v6.6h-2.5V99h3.8c2.6,0,3.7,1.2,3.7,3.7v1.3
				c0,1.7-0.5,2.7-1.7,3.2l0,0c1.3,0.5,1.7,1.7,1.7,3.4v2.5c0,0.8,0,1.4,0.3,2H177z M174.2,101.3v4.9h1c0.9,0,1.5-0.4,1.5-1.7v-1.6
				c0-1.1-0.4-1.7-1.3-1.7L174.2,101.3L174.2,101.3z"/>
			<path d="M180.7,102.8c0-2.6,1.4-4,3.8-4s3.8,1.5,3.8,4v8.4c0,2.6-1.4,4-3.8,4s-3.8-1.5-3.8-4V102.8z M183.3,111.4
				c0,1.1,0.5,1.6,1.3,1.6s1.3-0.4,1.3-1.6v-8.7c0-1.1-0.5-1.6-1.3-1.6s-1.3,0.4-1.3,1.6V111.4z"/>
			<path d="M193.4,98.8c2.5,0,3.7,1.5,3.7,4v0.5h-2.4v-0.7c0-1.1-0.5-1.6-1.3-1.6s-1.3,0.4-1.3,1.6s0.5,2,2.2,3.5
				c2.1,1.9,2.8,3.2,2.8,5c0,2.6-1.3,4-3.8,4s-3.8-1.5-3.8-4v-1h2.4v1.1c0,1.1,0.5,1.6,1.3,1.6s1.3-0.4,1.3-1.6s-0.5-2-2.2-3.5
				c-2.1-1.9-2.8-3.2-2.8-5C189.7,100.3,191,98.8,193.4,98.8z"/>
		</g>
	</g>
</g>
</svg>
