<?xml version="1.0" encoding="utf-8"?>
<!-- Generator: Adobe Illustrator 25.4.3, SVG Export Plug-In . SVG Version: 6.00 Build 0)  -->
<svg version="1.1" id="Capa_1" xmlns="http://www.w3.org/2000/svg" xmlns:xlink="http://www.w3.org/1999/xlink" x="0px" y="0px"
	 viewBox="0 0 427.1 108.9" style="enable-background:new 0 0 427.1 108.9;" xml:space="preserve">
<g>
	<g>
		<g>
			<path d="M165,81.6h-21.2v-2.2c0.6-0.1,1.4-0.1,2.3-0.3c0.9-0.1,1.5-0.3,1.9-0.4c0.7-0.3,1.2-0.7,1.5-1.1c0.3-0.5,0.4-1.1,0.4-1.8
				V46.6l-13.5,34.4H133c-0.2-0.6-0.6-1.8-1.2-3.6s-1.2-3.2-1.6-4.3l-9.9-26.9v23.8c0,2.3,0.2,4,0.5,5.2c0.3,1.2,0.8,2.1,1.5,2.6
				c0.5,0.4,1.3,0.8,2.5,1.1c1.2,0.3,2,0.6,2.5,0.6v2.2h-16.8v-2.2c0.5-0.1,1.2-0.2,2.2-0.4s1.9-0.5,2.5-1c0.7-0.5,1.2-1.4,1.5-2.6
				c0.3-1.2,0.4-3,0.4-5.2V50.8c0-1.2-0.1-2.2-0.4-2.9c-0.3-0.8-0.7-1.4-1.3-1.9c-0.7-0.6-1.5-0.9-2.3-1.1c-0.8-0.2-1.6-0.3-2.3-0.3
				v-2.2h18l9.6,25.8l8.1-20.9c0.3-0.8,0.5-1.7,0.8-2.8c0.3-1.1,0.4-1.8,0.4-2.1H165v2.2c-0.6,0-1.2,0.1-1.8,0.2
				c-0.6,0.1-1.3,0.3-1.8,0.4c-0.7,0.2-1.2,0.6-1.4,1.1c-0.2,0.5-0.3,1.1-0.3,1.7v27.7c0,0.7,0.1,1.2,0.3,1.7
				c0.2,0.5,0.7,0.8,1.4,1.2c0.4,0.2,1,0.3,1.8,0.5c0.8,0.1,1.5,0.2,1.9,0.3V81.6z"/>
			<path d="M205.2,46.8c1.9,1.8,3.5,3.9,4.6,6.4c1.1,2.5,1.7,5.3,1.7,8.5c0,2.8-0.5,5.6-1.4,8.1s-2.3,4.8-4.1,6.6
				c-1.9,1.9-4.1,3.4-6.7,4.5c-2.6,1.1-5.6,1.6-9.1,1.6c-2.8,0-5.5-0.5-8.1-1.4s-4.8-2.3-6.7-4.1c-1.9-1.7-3.4-3.9-4.5-6.4
				c-1.1-2.5-1.7-5.3-1.7-8.4c0-3.2,0.5-6.1,1.6-8.7c1.1-2.6,2.6-4.8,4.5-6.7c1.9-1.8,4.1-3.2,6.7-4.2c2.6-1,5.4-1.5,8.3-1.5
				c2.9,0,5.7,0.5,8.2,1.4C201.1,43.8,203.3,45.1,205.2,46.8z M198.1,74.8c0.8-1.7,1.4-3.6,1.8-5.7s0.6-4.5,0.6-7.2
				c0-2.3-0.2-4.5-0.5-6.6c-0.3-2.1-0.9-4.1-1.6-5.7c-0.8-1.7-1.8-3-3.1-4c-1.3-1-2.9-1.5-4.9-1.5c-3.3,0-5.9,1.6-7.6,4.7
				c-1.7,3.2-2.6,7.6-2.6,13.4c0,2.4,0.2,4.8,0.6,6.9c0.4,2.2,1,4.1,1.8,5.7c0.8,1.6,1.9,2.9,3.1,3.8c1.3,0.9,2.8,1.4,4.7,1.4
				c1.8,0,3.4-0.5,4.7-1.4C196.3,77.7,197.3,76.4,198.1,74.8z M197.4,32.8c0,0.8-0.2,1.4-0.7,1.9c-0.5,0.5-1.2,0.9-2.1,1.3
				c-1,0.4-2.6,1-4.6,1.8c-2.1,0.8-4.4,1.7-7.2,2.8l-0.9-1.1c1.9-1.8,3.3-3.2,4.3-4.2c1-1,2-2,3-3.2c0.7-0.7,1.4-1.3,2-1.6
				c0.6-0.3,1.3-0.5,2-0.5c1.2,0,2.2,0.3,3,0.8S197.4,32,197.4,32.8z"/>
			<path d="M250.6,46.5c2.4,1.6,4.3,3.6,5.8,6.2c1.5,2.6,2.2,5.8,2.2,9.6c0,3.3-0.7,6.2-2,8.6c-1.3,2.5-3.1,4.5-5.2,6
				c-2.2,1.6-4.7,2.7-7.5,3.5s-5.7,1.1-8.8,1.1h-19.7v-2.2c0.6,0,1.3-0.1,2.2-0.2s1.5-0.2,1.8-0.3c0.7-0.3,1.1-0.6,1.4-1.1
				c0.3-0.5,0.4-1,0.4-1.7V48.4c0-0.6-0.1-1.2-0.4-1.7c-0.2-0.5-0.7-0.9-1.4-1.2s-1.4-0.5-2.2-0.6c-0.8-0.1-1.4-0.2-1.8-0.2v-2.2
				h20.8c2.2,0,4.6,0.3,7.1,0.9C245.8,43.9,248.2,44.9,250.6,46.5z M244.9,74.5c0.9-1.5,1.6-3.2,2-5.3c0.4-2,0.6-4.4,0.6-7
				c0-2.6-0.3-5-0.8-7.1c-0.6-2.1-1.4-4-2.4-5.5c-1.1-1.5-2.4-2.7-4-3.5s-3.4-1.2-5.4-1.2c-0.6,0-1.4,0-2.2,0
				c-0.8,0-1.4,0.1-1.8,0.1v29.7c0,0.7,0.1,1.2,0.3,1.8c0.2,0.5,0.5,1,0.9,1.3c0.4,0.4,0.9,0.7,1.6,0.9c0.6,0.2,1.4,0.3,2.4,0.3
				c2.1,0,3.9-0.4,5.3-1.2C242.8,77.1,244,76,244.9,74.5z"/>
			<path d="M307.5,44.6c-0.5,0.1-1.3,0.2-2.3,0.4c-1,0.2-1.8,0.5-2.5,1c-0.7,0.5-1.2,1.3-1.5,2.5c-0.3,1.2-0.4,3-0.4,5.4v14.6
				c0,4.3-1.5,7.7-4.4,10.3c-2.9,2.6-6.7,3.9-11.5,3.9c-5.6,0-9.9-1.3-12.9-3.8c-3.1-2.5-4.6-6-4.6-10.5v-20c0-0.6-0.1-1.2-0.4-1.7
				c-0.2-0.5-0.7-0.9-1.4-1.2c-0.5-0.2-1.1-0.4-1.8-0.6c-0.7-0.1-1.3-0.2-1.7-0.3v-2.1h20.5v2.1c-0.6,0-1.2,0.1-1.8,0.2
				c-0.6,0.1-1.2,0.3-1.8,0.5c-0.7,0.2-1.2,0.6-1.4,1.1c-0.2,0.5-0.4,1.1-0.4,1.7v19.7c0,3.9,0.9,6.7,2.6,8.5
				c1.7,1.8,4.2,2.6,7.4,2.6c3.2,0,5.7-1,7.5-2.9s2.7-4.8,2.7-8.6V54.1c0-2.4-0.2-4.1-0.5-5.3s-0.8-2-1.5-2.5
				c-0.5-0.4-1.3-0.8-2.5-1.1s-2-0.5-2.5-0.6v-2.2h17V44.6z"/>
			<path d="M346.3,69l-0.8,12.5h-36v-2.2c0.6-0.1,1.4-0.1,2.3-0.3c0.9-0.1,1.4-0.2,1.7-0.3c0.7-0.3,1.1-0.6,1.4-1.1
				c0.3-0.5,0.4-1,0.4-1.8V48.4c0-0.7-0.1-1.2-0.3-1.6s-0.7-0.8-1.5-1.2c-0.6-0.3-1.3-0.5-2.1-0.6s-1.4-0.3-1.9-0.3v-2.2h21.5v2.2
				c-0.6,0.1-1.3,0.1-2.1,0.2c-0.8,0.1-1.5,0.2-2.1,0.4c-0.7,0.2-1.2,0.6-1.4,1.1c-0.2,0.5-0.4,1.1-0.4,1.7v25.7
				c0,1.2,0.1,2.2,0.2,2.9c0.2,0.7,0.5,1.2,1,1.5c0.5,0.3,1.1,0.6,2,0.7c0.9,0.1,2,0.2,3.5,0.2c1.5,0,2.9-0.1,4.3-0.3
				c1.4-0.2,2.4-0.6,3-1.1c0.9-0.9,1.9-2.3,2.9-4s1.8-3.3,2.4-4.7H346.3z"/>
			<path d="M384.3,46.8c1.9,1.8,3.5,3.9,4.6,6.4c1.1,2.5,1.7,5.3,1.7,8.5c0,2.8-0.5,5.6-1.4,8.1c-1,2.6-2.3,4.8-4.1,6.6
				c-1.9,1.9-4.1,3.4-6.7,4.5c-2.6,1.1-5.6,1.6-9.1,1.6c-2.8,0-5.5-0.5-8.1-1.4c-2.5-0.9-4.8-2.3-6.7-4.1c-1.9-1.7-3.4-3.9-4.5-6.4
				c-1.1-2.5-1.7-5.3-1.7-8.4c0-3.2,0.5-6.1,1.6-8.7c1.1-2.6,2.6-4.8,4.5-6.7c1.9-1.8,4.1-3.2,6.7-4.2c2.6-1,5.4-1.5,8.3-1.5
				c2.9,0,5.7,0.5,8.2,1.4C380.2,43.8,382.4,45.1,384.3,46.8z M377.2,74.8c0.8-1.7,1.4-3.6,1.8-5.7c0.4-2.1,0.6-4.5,0.6-7.2
				c0-2.3-0.2-4.5-0.5-6.6s-0.9-4.1-1.6-5.7c-0.8-1.7-1.8-3-3.1-4c-1.3-1-2.9-1.5-4.9-1.5c-3.3,0-5.9,1.6-7.6,4.7
				c-1.7,3.2-2.6,7.6-2.6,13.4c0,2.4,0.2,4.8,0.6,6.9s1,4.1,1.8,5.7c0.8,1.6,1.9,2.9,3.1,3.8c1.3,0.9,2.8,1.4,4.7,1.4
				c1.8,0,3.4-0.5,4.7-1.4C375.4,77.7,376.5,76.4,377.2,74.8z"/>
			<path d="M410.9,82.6c-2.4,0-4.6-0.3-6.7-0.9c-2.1-0.6-3.8-1.3-5.3-2.1l-1.9,1.9h-2.3l-0.4-14.1h2.4c0.5,1.3,1.2,2.8,2,4.3
				c0.8,1.5,1.8,2.8,2.9,4c1.1,1.2,2.4,2.2,3.8,3c1.4,0.8,3,1.2,4.9,1.2c2.5,0,4.4-0.6,5.7-1.8c1.3-1.2,2-2.8,2-4.6
				c0-1.5-0.6-2.8-1.7-3.8c-1.1-1-2.9-1.9-5.3-2.7c-1.5-0.5-3-1-4.3-1.4s-2.5-0.9-3.7-1.3c-2.6-1-4.6-2.5-5.9-4.5
				c-1.3-2-1.9-4.1-1.9-6.5c0-1.5,0.3-3,1-4.4c0.7-1.4,1.6-2.7,2.9-3.8c1.2-1,2.8-1.9,4.7-2.6c1.9-0.7,4-1,6.2-1
				c2.2,0,4.2,0.3,6.1,0.9c1.9,0.6,3.4,1.2,4.5,1.8l1.7-1.7h2.4l0.2,13.3h-2.4c-0.6-1.4-1.2-2.9-1.9-4.4c-0.7-1.5-1.5-2.8-2.4-3.7
				c-0.9-1.1-1.9-1.9-3.1-2.6c-1.2-0.6-2.6-1-4.1-1c-2,0-3.6,0.6-4.9,1.7c-1.3,1.1-1.9,2.5-1.9,4.2c0,1.6,0.5,2.8,1.6,3.8
				c1.1,1,2.8,1.9,5.1,2.6c1.4,0.5,2.7,0.9,4.2,1.4c1.4,0.5,2.7,0.9,3.8,1.3c2.7,1,4.7,2.5,6.1,4.3c1.4,1.8,2.1,4.1,2.1,6.7
				c0,1.7-0.4,3.3-1.2,4.9c-0.8,1.6-1.9,2.9-3.2,3.9c-1.5,1.2-3.2,2.1-5.1,2.7C415.7,82.3,413.4,82.6,410.9,82.6z"/>
		</g>
	</g>
	<g>
		<g>
			<path d="M89.6,80.8H73.7v28H49v-28H0V67.2L53.1,0h20.6v65.2h15.9V80.8z M49,65.2V17.6L11.4,65.2H49z"/>
		</g>
	</g>
</g>
</svg>
